<ttFont>
    <TTGlyph name="A" xMin="8" yMin="-1" xMax="439" yMax="605">
      <contour>
        <pt x="360" y="9" on="1"/>
        <pt x="356" y="22" on="0"/>
        <pt x="350" y="65" on="0"/>
        <pt x="344" y="116" on="0"/>
        <pt x="337" y="169" on="0"/>
        <pt x="330" y="217" on="0"/>
        <pt x="319" y="254" on="0"/>
        <pt x="312" y="263" on="1"/>
        <pt x="302" y="263" on="1"/>
        <pt x="295" y="263" on="0"/>
        <pt x="280" y="263" on="0"/>
        <pt x="273" y="263" on="1"/>
        <pt x="263" y="263" on="1"/>
        <pt x="242" y="263" on="0"/>
        <pt x="208" y="263" on="0"/>
        <pt x="176" y="258" on="0"/>
        <pt x="140" y="251" on="0"/>
        <pt x="116" y="243" on="1"/>
        <pt x="110" y="241" on="0"/>
        <pt x="100" y="223" on="0"/>
        <pt x="93" y="202" on="0"/>
        <pt x="88" y="182" on="0"/>
        <pt x="88" y="175" on="1"/>
        <pt x="88" y="168" on="0"/>
        <pt x="85" y="132" on="0"/>
        <pt x="82" y="92" on="0"/>
        <pt x="78" y="55" on="0"/>
        <pt x="77" y="49" on="1"/>
        <pt x="70" y="37" on="0"/>
        <pt x="44" y="19" on="0"/>
        <pt x="29" y="19" on="1"/>
        <pt x="16" y="19" on="0"/>
        <pt x="8" y="31" on="0"/>
        <pt x="8" y="44" on="1"/>
        <pt x="8" y="45" on="0"/>
        <pt x="9" y="57" on="0"/>
        <pt x="9" y="59" on="1"/>
        <pt x="24" y="195" on="0"/>
        <pt x="100" y="459" on="0"/>
        <pt x="156" y="585" on="1"/>
        <pt x="156" y="586" on="0"/>
        <pt x="161" y="592" on="0"/>
        <pt x="168" y="598" on="0"/>
        <pt x="174" y="603" on="0"/>
        <pt x="175" y="603" on="1"/>
        <pt x="177" y="603" on="0"/>
        <pt x="178" y="604" on="1"/>
        <pt x="179" y="604" on="0"/>
        <pt x="179" y="604" on="1"/>
        <pt x="180" y="605" on="1"/>
        <pt x="203" y="605" on="0"/>
        <pt x="246" y="572" on="0"/>
        <pt x="286" y="522" on="0"/>
        <pt x="318" y="459" on="0"/>
        <pt x="343" y="399" on="0"/>
        <pt x="358" y="346" on="0"/>
        <pt x="360" y="331" on="1"/>
        <pt x="371" y="325" on="0"/>
        <pt x="394" y="318" on="0"/>
        <pt x="416" y="309" on="0"/>
        <pt x="433" y="296" on="0"/>
        <pt x="439" y="282" on="1"/>
        <pt x="439" y="281" on="0"/>
        <pt x="438" y="275" on="0"/>
        <pt x="434" y="269" on="0"/>
        <pt x="431" y="263" on="0"/>
        <pt x="429" y="263" on="1"/>
        <pt x="427" y="262" on="0"/>
        <pt x="412" y="258" on="0"/>
        <pt x="397" y="255" on="0"/>
        <pt x="382" y="253" on="0"/>
        <pt x="380" y="253" on="1"/>
        <pt x="380" y="248" on="1"/>
        <pt x="380" y="202" on="0"/>
        <pt x="396" y="103" on="0"/>
        <pt x="409" y="59" on="1"/>
        <pt x="409" y="58" on="0"/>
        <pt x="412" y="52" on="0"/>
        <pt x="416" y="46" on="0"/>
        <pt x="418" y="39" on="0"/>
        <pt x="419" y="39" on="1"/>
        <pt x="419" y="34" on="1"/>
        <pt x="419" y="17" on="0"/>
        <pt x="394" y="-1" on="0"/>
        <pt x="380" y="-1" on="1"/>
        <pt x="373" y="-1" on="0"/>
        <pt x="363" y="2" on="0"/>
      </contour>
      <contour>
        <pt x="127" y="309" on="1"/>
        <pt x="146" y="309" on="0"/>
        <pt x="197" y="314" on="0"/>
        <pt x="248" y="322" on="0"/>
        <pt x="292" y="329" on="0"/>
        <pt x="302" y="331" on="1"/>
        <pt x="301" y="337" on="0"/>
        <pt x="290" y="371" on="0"/>
        <pt x="278" y="409" on="0"/>
        <pt x="266" y="442" on="0"/>
        <pt x="263" y="448" on="1"/>
        <pt x="261" y="452" on="0"/>
        <pt x="248" y="473" on="0"/>
        <pt x="231" y="493" on="0"/>
        <pt x="212" y="508" on="0"/>
        <pt x="205" y="508" on="1"/>
        <pt x="199" y="508" on="0"/>
        <pt x="189" y="506" on="0"/>
        <pt x="185" y="496" on="1"/>
        <pt x="127" y="331" on="1"/>
      </contour>
    </TTGlyph>
    <TTGlyph name="AE" xMin="8" yMin="-1" xMax="781" yMax="605">
      <contour>
        <pt x="360" y="9" on="1"/>
        <pt x="356" y="22" on="0"/>
        <pt x="350" y="65" on="0"/>
        <pt x="344" y="116" on="0"/>
        <pt x="337" y="169" on="0"/>
        <pt x="330" y="217" on="0"/>
        <pt x="319" y="254" on="0"/>
        <pt x="312" y="263" on="1"/>
        <pt x="302" y="263" on="1"/>
        <pt x="295" y="263" on="0"/>
        <pt x="280" y="263" on="0"/>
        <pt x="273" y="263" on="1"/>
        <pt x="263" y="263" on="1"/>
        <pt x="242" y="263" on="0"/>
        <pt x="208" y="263" on="0"/>
        <pt x="176" y="258" on="0"/>
        <pt x="140" y="251" on="0"/>
        <pt x="116" y="243" on="1"/>
        <pt x="110" y="241" on="0"/>
        <pt x="100" y="223" on="0"/>
        <pt x="93" y="202" on="0"/>
        <pt x="88" y="182" on="0"/>
        <pt x="88" y="175" on="1"/>
        <pt x="88" y="168" on="0"/>
        <pt x="85" y="132" on="0"/>
        <pt x="82" y="92" on="0"/>
        <pt x="78" y="55" on="0"/>
        <pt x="77" y="49" on="1"/>
        <pt x="70" y="37" on="0"/>
        <pt x="44" y="19" on="0"/>
        <pt x="29" y="19" on="1"/>
        <pt x="16" y="19" on="0"/>
        <pt x="8" y="31" on="0"/>
        <pt x="8" y="44" on="1"/>
        <pt x="8" y="45" on="0"/>
        <pt x="9" y="57" on="0"/>
        <pt x="9" y="59" on="1"/>
        <pt x="24" y="195" on="0"/>
        <pt x="100" y="459" on="0"/>
        <pt x="156" y="585" on="1"/>
        <pt x="156" y="586" on="0"/>
        <pt x="161" y="592" on="0"/>
        <pt x="168" y="598" on="0"/>
        <pt x="174" y="603" on="0"/>
        <pt x="175" y="603" on="1"/>
        <pt x="177" y="603" on="0"/>
        <pt x="178" y="604" on="1"/>
        <pt x="179" y="604" on="1"/>
        <pt x="180" y="605" on="1"/>
        <pt x="203" y="605" on="0"/>
        <pt x="246" y="572" on="0"/>
        <pt x="286" y="522" on="0"/>
        <pt x="318" y="459" on="0"/>
        <pt x="343" y="399" on="0"/>
        <pt x="350" y="372" on="1"/>
        <pt x="357" y="349" on="0"/>
        <pt x="360" y="335" on="1"/>
        <pt x="365" y="386" on="0"/>
        <pt x="371" y="433" on="1"/>
        <pt x="374" y="453" on="0"/>
        <pt x="410" y="480" on="0"/>
        <pt x="463" y="498" on="0"/>
        <pt x="529" y="508" on="0"/>
        <pt x="592" y="512" on="0"/>
        <pt x="648" y="513" on="0"/>
        <pt x="665" y="513" on="1"/>
        <pt x="671" y="513" on="0"/>
        <pt x="693" y="513" on="0"/>
        <pt x="718" y="514" on="0"/>
        <pt x="745" y="512" on="0"/>
        <pt x="768" y="505" on="0"/>
        <pt x="781" y="491" on="0"/>
        <pt x="781" y="480" on="1"/>
        <pt x="781" y="473" on="0"/>
        <pt x="774" y="462" on="0"/>
        <pt x="761" y="462" on="1"/>
        <pt x="677" y="472" on="0"/>
        <pt x="509" y="447" on="0"/>
        <pt x="429" y="423" on="1"/>
        <pt x="430" y="421" on="0"/>
        <pt x="430" y="414" on="1"/>
        <pt x="430" y="385" on="1"/>
        <pt x="430" y="378" on="0"/>
        <pt x="429" y="375" on="1"/>
        <pt x="429" y="373" on="0"/>
        <pt x="427" y="362" on="0"/>
        <pt x="423" y="348" on="0"/>
        <pt x="420" y="337" on="0"/>
        <pt x="420" y="336" on="1"/>
        <pt x="420" y="335" on="0"/>
        <pt x="428" y="327" on="0"/>
        <pt x="429" y="326" on="1"/>
        <pt x="439" y="326" on="1"/>
        <pt x="445" y="327" on="0"/>
        <pt x="481" y="330" on="0"/>
        <pt x="530" y="334" on="0"/>
        <pt x="584" y="337" on="0"/>
        <pt x="632" y="343" on="0"/>
        <pt x="668" y="345" on="0"/>
        <pt x="674" y="345" on="1"/>
        <pt x="677" y="345" on="1"/>
        <pt x="682" y="345" on="0"/>
        <pt x="689" y="346" on="0"/>
        <pt x="694" y="346" on="1"/>
        <pt x="700" y="346" on="1"/>
        <pt x="718" y="346" on="0"/>
        <pt x="733" y="339" on="0"/>
        <pt x="733" y="320" on="1"/>
        <pt x="733" y="304" on="0"/>
        <pt x="705" y="291" on="0"/>
        <pt x="660" y="286" on="0"/>
        <pt x="603" y="287" on="0"/>
        <pt x="541" y="288" on="0"/>
        <pt x="484" y="284" on="0"/>
        <pt x="439" y="269" on="0"/>
        <pt x="411" y="240" on="0"/>
        <pt x="411" y="214" on="1"/>
        <pt x="411" y="179" on="0"/>
        <pt x="437" y="137" on="0"/>
        <pt x="480" y="114" on="0"/>
        <pt x="536" y="106" on="0"/>
        <pt x="597" y="107" on="0"/>
        <pt x="657" y="110" on="0"/>
        <pt x="683" y="110" on="1"/>
        <pt x="706" y="110" on="0"/>
        <pt x="745" y="122" on="0"/>
        <pt x="766" y="122" on="1"/>
        <pt x="773" y="122" on="0"/>
        <pt x="779" y="116" on="0"/>
        <pt x="781" y="105" on="0"/>
        <pt x="781" y="100" on="1"/>
        <pt x="781" y="91" on="1"/>
        <pt x="781" y="79" on="0"/>
        <pt x="778" y="63" on="0"/>
        <pt x="761" y="63" on="1"/>
        <pt x="479" y="63" on="1"/>
        <pt x="445" y="63" on="0"/>
        <pt x="421" y="74" on="1"/>
        <pt x="411" y="78" on="0"/>
        <pt x="402" y="84" on="1"/>
        <pt x="409" y="59" on="1"/>
        <pt x="409" y="58" on="0"/>
        <pt x="412" y="52" on="0"/>
        <pt x="416" y="46" on="0"/>
        <pt x="418" y="39" on="0"/>
        <pt x="419" y="39" on="1"/>
        <pt x="419" y="34" on="1"/>
        <pt x="419" y="17" on="0"/>
        <pt x="394" y="-1" on="0"/>
        <pt x="380" y="-1" on="1"/>
        <pt x="373" y="-1" on="0"/>
        <pt x="363" y="2" on="0"/>
      </contour>
      <contour>
        <pt x="127" y="309" on="1"/>
        <pt x="146" y="309" on="0"/>
        <pt x="197" y="314" on="0"/>
        <pt x="248" y="322" on="0"/>
        <pt x="292" y="329" on="0"/>
        <pt x="302" y="331" on="1"/>
        <pt x="301" y="337" on="0"/>
        <pt x="290" y="371" on="0"/>
        <pt x="278" y="409" on="0"/>
        <pt x="266" y="442" on="0"/>
        <pt x="263" y="448" on="1"/>
        <pt x="261" y="452" on="0"/>
        <pt x="248" y="473" on="0"/>
        <pt x="231" y="493" on="0"/>
        <pt x="212" y="508" on="0"/>
        <pt x="205" y="508" on="1"/>
        <pt x="199" y="508" on="0"/>
        <pt x="189" y="506" on="0"/>
        <pt x="185" y="496" on="1"/>
        <pt x="127" y="331" on="1"/>
      </contour>
    </TTGlyph>
    <TTGlyph name="AEacute" xMin="8" yMin="-1" xMax="781" yMax="744">
      <component glyphName="AE" x="0" y="0" flags="0x1204"/>
      <component glyphName="acute" x="126" y="164" flags="0x1004"/>
    </TTGlyph>
    <TTGlyph name="Aacute" xMin="8" yMin="-1" xMax="439" yMax="744">
      <component glyphName="A" x="0" y="0" flags="0x1204"/>
      <component glyphName="acute" x="-58" y="164" flags="0x1004"/>
    </TTGlyph>
    <TTGlyph name="Abreve" xMin="8" yMin="-1" xMax="439" yMax="746">
      <component glyphName="A" x="0" y="0" flags="0x1204"/>
      <component glyphName="breve" x="98" y="164" flags="0x1004"/>
    </TTGlyph>
    <TTGlyph name="Acircumflex" xMin="8" yMin="-1" xMax="439" yMax="857">
      <component glyphName="A" x="0" y="0" flags="0x1204"/>
      <component glyphName="circumflex" x="69" y="164" flags="0x1004"/>
    </TTGlyph>
    <TTGlyph name="Adieresis" xMin="8" yMin="-1" xMax="439" yMax="769">
      <component glyphName="A" x="0" y="0" flags="0x1204"/>
      <component glyphName="dieresis" x="-14" y="164" flags="0x1004"/>
    </TTGlyph>
    <TTGlyph name="Agrave" xMin="8" yMin="-1" xMax="439" yMax="627">
      <component glyphName="A" x="0" y="0" flags="0x1204"/>
      <component glyphName="grave" x="9" y="221" scalex="0.805969238281" scaley="0.678466796875" flags="0x1004"/>
    </TTGlyph>
    <TTGlyph name="Amacron" xMin="8" yMin="-1" xMax="439" yMax="687">
      <component glyphName="A" x="0" y="0" flags="0x1204"/>
      <component glyphName="macron" x="39" y="164" flags="0x1004"/>
    </TTGlyph>
    <TTGlyph name="Aogonek" xMin="8" yMin="-172" xMax="439" yMax="605">
      <contour>
        <pt x="317" y="-49" on="1"/>
        <pt x="348" y="-15" on="0"/>
        <pt x="367" y="0" on="1"/>
        <pt x="368" y="1" on="1"/>
        <pt x="363" y="2" on="0"/>
        <pt x="360" y="9" on="1"/>
        <pt x="356" y="22" on="0"/>
        <pt x="350" y="65" on="0"/>
        <pt x="344" y="116" on="0"/>
        <pt x="337" y="169" on="0"/>
        <pt x="330" y="217" on="0"/>
        <pt x="319" y="254" on="0"/>
        <pt x="312" y="263" on="1"/>
        <pt x="302" y="263" on="1"/>
        <pt x="295" y="263" on="0"/>
        <pt x="280" y="263" on="0"/>
        <pt x="273" y="263" on="1"/>
        <pt x="263" y="263" on="1"/>
        <pt x="242" y="263" on="0"/>
        <pt x="208" y="263" on="0"/>
        <pt x="176" y="258" on="0"/>
        <pt x="140" y="251" on="0"/>
        <pt x="116" y="243" on="1"/>
        <pt x="110" y="241" on="0"/>
        <pt x="100" y="223" on="0"/>
        <pt x="93" y="202" on="0"/>
        <pt x="88" y="182" on="0"/>
        <pt x="88" y="175" on="1"/>
        <pt x="88" y="168" on="0"/>
        <pt x="85" y="132" on="0"/>
        <pt x="82" y="92" on="0"/>
        <pt x="78" y="55" on="0"/>
        <pt x="77" y="49" on="1"/>
        <pt x="70" y="37" on="0"/>
        <pt x="44" y="19" on="0"/>
        <pt x="29" y="19" on="1"/>
        <pt x="16" y="19" on="0"/>
        <pt x="8" y="31" on="0"/>
        <pt x="8" y="44" on="1"/>
        <pt x="8" y="45" on="0"/>
        <pt x="9" y="57" on="0"/>
        <pt x="9" y="59" on="1"/>
        <pt x="24" y="195" on="0"/>
        <pt x="100" y="459" on="0"/>
        <pt x="156" y="585" on="1"/>
        <pt x="156" y="586" on="0"/>
        <pt x="161" y="592" on="0"/>
        <pt x="168" y="598" on="0"/>
        <pt x="174" y="603" on="0"/>
        <pt x="175" y="603" on="1"/>
        <pt x="177" y="603" on="0"/>
        <pt x="178" y="604" on="1"/>
        <pt x="179" y="604" on="1"/>
        <pt x="180" y="605" on="1"/>
        <pt x="203" y="605" on="0"/>
        <pt x="246" y="572" on="0"/>
        <pt x="286" y="522" on="0"/>
        <pt x="318" y="459" on="0"/>
        <pt x="343" y="399" on="0"/>
        <pt x="358" y="346" on="0"/>
        <pt x="360" y="331" on="1"/>
        <pt x="371" y="325" on="0"/>
        <pt x="394" y="318" on="0"/>
        <pt x="416" y="309" on="0"/>
        <pt x="433" y="296" on="0"/>
        <pt x="439" y="282" on="1"/>
        <pt x="439" y="281" on="0"/>
        <pt x="438" y="275" on="0"/>
        <pt x="434" y="269" on="0"/>
        <pt x="431" y="263" on="0"/>
        <pt x="429" y="263" on="1"/>
        <pt x="427" y="262" on="0"/>
        <pt x="412" y="258" on="0"/>
        <pt x="397" y="255" on="0"/>
        <pt x="382" y="253" on="0"/>
        <pt x="380" y="253" on="1"/>
        <pt x="380" y="248" on="1"/>
        <pt x="380" y="202" on="0"/>
        <pt x="396" y="103" on="0"/>
        <pt x="409" y="59" on="1"/>
        <pt x="409" y="58" on="0"/>
        <pt x="412" y="52" on="0"/>
        <pt x="416" y="46" on="0"/>
        <pt x="418" y="39" on="0"/>
        <pt x="419" y="39" on="1"/>
        <pt x="419" y="34" on="1"/>
        <pt x="419" y="17" on="0"/>
        <pt x="406" y="8" on="1"/>
        <pt x="406" y="1" on="0"/>
        <pt x="401" y="-11" on="1"/>
        <pt x="394" y="-25" on="0"/>
        <pt x="371" y="-56" on="0"/>
        <pt x="354" y="-69" on="1"/>
        <pt x="395" y="-100" on="0"/>
        <pt x="433" y="-142" on="0"/>
        <pt x="439" y="-167" on="0"/>
        <pt x="422" y="-175" on="0"/>
        <pt x="392" y="-168" on="0"/>
        <pt x="356" y="-148" on="0"/>
        <pt x="327" y="-116" on="0"/>
        <pt x="312" y="-74" on="0"/>
      </contour>
      <contour>
        <pt x="127" y="309" on="1"/>
        <pt x="146" y="309" on="0"/>
        <pt x="197" y="314" on="0"/>
        <pt x="248" y="322" on="0"/>
        <pt x="292" y="329" on="0"/>
        <pt x="302" y="331" on="1"/>
        <pt x="301" y="337" on="0"/>
        <pt x="290" y="371" on="0"/>
        <pt x="278" y="409" on="0"/>
        <pt x="266" y="442" on="0"/>
        <pt x="263" y="448" on="1"/>
        <pt x="261" y="452" on="0"/>
        <pt x="248" y="473" on="0"/>
        <pt x="231" y="493" on="0"/>
        <pt x="212" y="508" on="0"/>
        <pt x="205" y="508" on="1"/>
        <pt x="199" y="508" on="0"/>
        <pt x="189" y="506" on="0"/>
        <pt x="185" y="496" on="1"/>
        <pt x="127" y="331" on="1"/>
      </contour>
    </TTGlyph>
    <TTGlyph name="Aring" xMin="8" yMin="-1" xMax="439" yMax="796">
      <contour>
        <pt x="76" y="656" on="1"/>
        <pt x="76" y="679" on="0"/>
        <pt x="90" y="728" on="0"/>
        <pt x="118" y="769" on="0"/>
        <pt x="157" y="796" on="0"/>
        <pt x="182" y="796" on="1"/>
        <pt x="216" y="796" on="0"/>
        <pt x="264" y="781" on="0"/>
        <pt x="294" y="749" on="0"/>
        <pt x="307" y="700" on="0"/>
        <pt x="307" y="667" on="1"/>
        <pt x="307" y="660" on="1"/>
        <pt x="307" y="654" on="0"/>
        <pt x="307" y="641" on="0"/>
        <pt x="307" y="636" on="1"/>
        <pt x="307" y="627" on="1"/>
        <pt x="302" y="610" on="0"/>
        <pt x="276" y="588" on="0"/>
        <pt x="261" y="582" on="1"/>
        <pt x="250" y="579" on="0"/>
        <pt x="239" y="576" on="1"/>
        <pt x="253" y="564" on="0"/>
        <pt x="266" y="547" on="1"/>
        <pt x="286" y="522" on="0"/>
        <pt x="318" y="459" on="0"/>
        <pt x="343" y="399" on="0"/>
        <pt x="358" y="346" on="0"/>
        <pt x="360" y="331" on="1"/>
        <pt x="371" y="325" on="0"/>
        <pt x="394" y="318" on="0"/>
        <pt x="416" y="309" on="0"/>
        <pt x="433" y="296" on="0"/>
        <pt x="439" y="282" on="1"/>
        <pt x="439" y="281" on="0"/>
        <pt x="438" y="275" on="0"/>
        <pt x="434" y="269" on="0"/>
        <pt x="431" y="263" on="0"/>
        <pt x="429" y="263" on="1"/>
        <pt x="427" y="262" on="0"/>
        <pt x="412" y="258" on="0"/>
        <pt x="397" y="255" on="0"/>
        <pt x="382" y="253" on="0"/>
        <pt x="380" y="253" on="1"/>
        <pt x="380" y="248" on="1"/>
        <pt x="380" y="202" on="0"/>
        <pt x="396" y="103" on="0"/>
        <pt x="409" y="59" on="1"/>
        <pt x="409" y="58" on="0"/>
        <pt x="412" y="52" on="0"/>
        <pt x="416" y="46" on="0"/>
        <pt x="418" y="39" on="0"/>
        <pt x="419" y="39" on="1"/>
        <pt x="419" y="34" on="1"/>
        <pt x="419" y="17" on="0"/>
        <pt x="394" y="-1" on="0"/>
        <pt x="380" y="-1" on="1"/>
        <pt x="373" y="-1" on="0"/>
        <pt x="363" y="2" on="0"/>
        <pt x="360" y="9" on="1"/>
        <pt x="356" y="22" on="0"/>
        <pt x="350" y="65" on="0"/>
        <pt x="344" y="116" on="0"/>
        <pt x="337" y="169" on="0"/>
        <pt x="330" y="217" on="0"/>
        <pt x="319" y="254" on="0"/>
        <pt x="312" y="263" on="1"/>
        <pt x="302" y="263" on="1"/>
        <pt x="295" y="263" on="0"/>
        <pt x="280" y="263" on="0"/>
        <pt x="273" y="263" on="1"/>
        <pt x="263" y="263" on="1"/>
        <pt x="242" y="263" on="0"/>
        <pt x="208" y="263" on="0"/>
        <pt x="176" y="258" on="0"/>
        <pt x="140" y="251" on="0"/>
        <pt x="116" y="243" on="1"/>
        <pt x="110" y="241" on="0"/>
        <pt x="100" y="223" on="0"/>
        <pt x="93" y="202" on="0"/>
        <pt x="88" y="182" on="0"/>
        <pt x="88" y="175" on="1"/>
        <pt x="88" y="168" on="0"/>
        <pt x="85" y="132" on="0"/>
        <pt x="82" y="92" on="0"/>
        <pt x="78" y="55" on="0"/>
        <pt x="77" y="49" on="1"/>
        <pt x="70" y="37" on="0"/>
        <pt x="44" y="19" on="0"/>
        <pt x="29" y="19" on="1"/>
        <pt x="16" y="19" on="0"/>
        <pt x="8" y="31" on="0"/>
        <pt x="8" y="44" on="1"/>
        <pt x="8" y="45" on="0"/>
        <pt x="9" y="57" on="0"/>
        <pt x="9" y="59" on="1"/>
        <pt x="24" y="195" on="0"/>
        <pt x="62" y="327" on="1"/>
        <pt x="99" y="455" on="0"/>
        <pt x="152" y="576" on="1"/>
        <pt x="133" y="579" on="0"/>
        <pt x="117" y="586" on="1"/>
        <pt x="99" y="595" on="0"/>
        <pt x="76" y="628" on="0"/>
      </contour>
      <contour>
        <pt x="127" y="309" on="1"/>
        <pt x="146" y="309" on="0"/>
        <pt x="197" y="314" on="0"/>
        <pt x="248" y="322" on="0"/>
        <pt x="292" y="329" on="0"/>
        <pt x="302" y="331" on="1"/>
        <pt x="301" y="337" on="0"/>
        <pt x="290" y="371" on="0"/>
        <pt x="278" y="409" on="0"/>
        <pt x="266" y="442" on="0"/>
        <pt x="263" y="448" on="1"/>
        <pt x="261" y="452" on="0"/>
        <pt x="248" y="473" on="0"/>
        <pt x="231" y="493" on="0"/>
        <pt x="212" y="508" on="0"/>
        <pt x="205" y="508" on="1"/>
        <pt x="199" y="508" on="0"/>
        <pt x="189" y="506" on="0"/>
        <pt x="185" y="496" on="1"/>
        <pt x="127" y="331" on="1"/>
      </contour>
      <contour>
        <pt x="106" y="664" on="1"/>
        <pt x="106" y="646" on="0"/>
        <pt x="126" y="623" on="0"/>
        <pt x="154" y="610" on="0"/>
        <pt x="184" y="606" on="0"/>
        <pt x="196" y="606" on="1"/>
        <pt x="207" y="606" on="0"/>
        <pt x="224" y="607" on="0"/>
        <pt x="241" y="610" on="0"/>
        <pt x="258" y="620" on="0"/>
        <pt x="270" y="627" on="1"/>
        <pt x="276" y="638" on="0"/>
        <pt x="276" y="660" on="0"/>
        <pt x="276" y="671" on="1"/>
        <pt x="276" y="694" on="0"/>
        <pt x="261" y="730" on="0"/>
        <pt x="233" y="753" on="0"/>
        <pt x="195" y="760" on="0"/>
        <pt x="173" y="755" on="1"/>
        <pt x="163" y="753" on="0"/>
        <pt x="139" y="732" on="0"/>
        <pt x="120" y="705" on="0"/>
        <pt x="106" y="675" on="0"/>
      </contour>
    </TTGlyph>
    <TTGlyph name="Atilde" xMin="1" yMin="-1" xMax="449" yMax="750">
      <component glyphName="A" x="0" y="0" flags="0x1204"/>
      <component glyphName="tilde" x="-18" y="164" flags="0x1004"/>
    </TTGlyph>
    <TTGlyph name="B" xMin="8" yMin="0" xMax="450" yMax="529">
      <contour>
        <pt x="20" y="429" on="1"/>
        <pt x="11" y="432" on="0"/>
        <pt x="8" y="441" on="0"/>
        <pt x="8" y="448" on="1"/>
        <pt x="8" y="470" on="0"/>
        <pt x="37" y="499" on="0"/>
        <pt x="79" y="517" on="0"/>
        <pt x="133" y="525" on="0"/>
        <pt x="184" y="529" on="0"/>
        <pt x="230" y="528" on="0"/>
        <pt x="243" y="528" on="1"/>
        <pt x="248" y="528" on="0"/>
        <pt x="274" y="527" on="0"/>
        <pt x="302" y="526" on="0"/>
        <pt x="326" y="526" on="0"/>
        <pt x="331" y="526" on="1"/>
        <pt x="344" y="520" on="0"/>
        <pt x="381" y="509" on="0"/>
        <pt x="415" y="493" on="0"/>
        <pt x="439" y="467" on="0"/>
        <pt x="439" y="448" on="1"/>
        <pt x="439" y="428" on="0"/>
        <pt x="418" y="399" on="0"/>
        <pt x="386" y="377" on="0"/>
        <pt x="347" y="360" on="0"/>
        <pt x="309" y="343" on="0"/>
        <pt x="280" y="325" on="0"/>
        <pt x="273" y="312" on="1"/>
        <pt x="300" y="305" on="0"/>
        <pt x="362" y="281" on="0"/>
        <pt x="415" y="246" on="0"/>
        <pt x="450" y="195" on="0"/>
        <pt x="450" y="161" on="1"/>
        <pt x="450" y="119" on="0"/>
        <pt x="413" y="58" on="0"/>
        <pt x="354" y="19" on="0"/>
        <pt x="279" y="0" on="0"/>
        <pt x="239" y="0" on="1"/>
        <pt x="234" y="0" on="1"/>
        <pt x="230" y="1" on="0"/>
        <pt x="218" y="3" on="0"/>
        <pt x="205" y="6" on="0"/>
        <pt x="195" y="8" on="0"/>
        <pt x="195" y="9" on="1"/>
        <pt x="39" y="98" on="1"/>
        <pt x="37" y="99" on="0"/>
        <pt x="30" y="113" on="0"/>
        <pt x="29" y="116" on="1"/>
        <pt x="24" y="152" on="0"/>
        <pt x="19" y="234" on="0"/>
        <pt x="17" y="317" on="0"/>
        <pt x="19" y="396" on="0"/>
      </contour>
      <contour>
        <pt x="76" y="267" on="1"/>
        <pt x="76" y="220" on="0"/>
        <pt x="103" y="142" on="0"/>
        <pt x="155" y="88" on="0"/>
        <pt x="232" y="57" on="0"/>
        <pt x="282" y="57" on="1"/>
        <pt x="299" y="57" on="0"/>
        <pt x="337" y="70" on="0"/>
        <pt x="370" y="93" on="0"/>
        <pt x="391" y="125" on="0"/>
        <pt x="391" y="144" on="1"/>
        <pt x="391" y="179" on="0"/>
        <pt x="356" y="225" on="0"/>
        <pt x="301" y="252" on="0"/>
        <pt x="231" y="264" on="0"/>
        <pt x="161" y="269" on="0"/>
        <pt x="98" y="267" on="0"/>
      </contour>
      <contour>
        <pt x="224" y="479" on="1"/>
        <pt x="174" y="479" on="0"/>
        <pt x="116" y="465" on="0"/>
        <pt x="85" y="428" on="0"/>
        <pt x="75" y="365" on="0"/>
        <pt x="75" y="318" on="1"/>
        <pt x="89" y="318" on="0"/>
        <pt x="144" y="329" on="0"/>
        <pt x="210" y="348" on="0"/>
        <pt x="279" y="373" on="0"/>
        <pt x="335" y="400" on="0"/>
        <pt x="371" y="429" on="0"/>
        <pt x="371" y="443" on="1"/>
        <pt x="371" y="450" on="0"/>
        <pt x="353" y="462" on="0"/>
        <pt x="323" y="470" on="0"/>
        <pt x="287" y="475" on="0"/>
        <pt x="254" y="478" on="0"/>
        <pt x="229" y="479" on="0"/>
      </contour>
    </TTGlyph>
    <TTGlyph name="C" xMin="8" yMin="-2" xMax="508" yMax="399">
      <contour>
        <pt x="8" y="200" on="1"/>
        <pt x="8" y="239" on="0"/>
        <pt x="48" y="299" on="0"/>
        <pt x="110" y="344" on="0"/>
        <pt x="190" y="374" on="0"/>
        <pt x="270" y="392" on="0"/>
        <pt x="345" y="399" on="0"/>
        <pt x="372" y="399" on="1"/>
        <pt x="383" y="399" on="0"/>
        <pt x="401" y="383" on="0"/>
        <pt x="401" y="371" on="1"/>
        <pt x="401" y="360" on="0"/>
        <pt x="396" y="343" on="0"/>
        <pt x="389" y="331" on="1"/>
        <pt x="368" y="334" on="0"/>
        <pt x="304" y="334" on="0"/>
        <pt x="235" y="326" on="0"/>
        <pt x="167" y="307" on="0"/>
        <pt x="111" y="274" on="0"/>
        <pt x="77" y="228" on="0"/>
        <pt x="77" y="195" on="1"/>
        <pt x="77" y="165" on="0"/>
        <pt x="97" y="122" on="0"/>
        <pt x="131" y="91" on="0"/>
        <pt x="175" y="72" on="0"/>
        <pt x="224" y="61" on="0"/>
        <pt x="274" y="57" on="0"/>
        <pt x="297" y="57" on="1"/>
        <pt x="323" y="57" on="0"/>
        <pt x="374" y="59" on="0"/>
        <pt x="422" y="65" on="0"/>
        <pt x="472" y="76" on="0"/>
        <pt x="496" y="88" on="1"/>
        <pt x="507" y="85" on="0"/>
        <pt x="508" y="70" on="0"/>
        <pt x="508" y="62" on="1"/>
        <pt x="508" y="43" on="0"/>
        <pt x="483" y="19" on="0"/>
        <pt x="442" y="5" on="0"/>
        <pt x="392" y="-1" on="0"/>
        <pt x="344" y="-2" on="0"/>
        <pt x="303" y="-1" on="0"/>
        <pt x="292" y="-1" on="1"/>
        <pt x="262" y="-1" on="0"/>
        <pt x="195" y="8" on="0"/>
        <pt x="133" y="26" on="0"/>
        <pt x="76" y="57" on="0"/>
        <pt x="34" y="101" on="0"/>
        <pt x="8" y="161" on="0"/>
      </contour>
    </TTGlyph>
    <TTGlyph name="Cacute" xMin="8" yMin="-2" xMax="508" yMax="567">
      <component glyphName="C" x="0" y="0" flags="0x1204"/>
      <component glyphName="acute" x="-37" y="-13" flags="0x1004"/>
    </TTGlyph>
    <TTGlyph name="Ccaron" xMin="8" yMin="-2" xMax="508" yMax="610">
      <component glyphName="C" x="0" y="0" flags="0x1204"/>
      <component glyphName="caron" x="9" y="31" flags="0x1004"/>
    </TTGlyph>
    <TTGlyph name="Ccedilla" xMin="8" yMin="-214" xMax="508" yMax="399">
      <contour>
        <pt x="8" y="200" on="1"/>
        <pt x="8" y="239" on="0"/>
        <pt x="48" y="299" on="0"/>
        <pt x="110" y="344" on="0"/>
        <pt x="190" y="374" on="0"/>
        <pt x="270" y="392" on="0"/>
        <pt x="345" y="399" on="0"/>
        <pt x="372" y="399" on="1"/>
        <pt x="383" y="399" on="0"/>
        <pt x="401" y="383" on="0"/>
        <pt x="401" y="371" on="1"/>
        <pt x="401" y="360" on="0"/>
        <pt x="396" y="343" on="0"/>
        <pt x="389" y="331" on="1"/>
        <pt x="368" y="334" on="0"/>
        <pt x="304" y="334" on="0"/>
        <pt x="235" y="326" on="0"/>
        <pt x="167" y="307" on="0"/>
        <pt x="111" y="274" on="0"/>
        <pt x="77" y="228" on="0"/>
        <pt x="77" y="195" on="1"/>
        <pt x="77" y="165" on="0"/>
        <pt x="97" y="122" on="0"/>
        <pt x="131" y="91" on="0"/>
        <pt x="175" y="72" on="0"/>
        <pt x="224" y="61" on="0"/>
        <pt x="274" y="57" on="0"/>
        <pt x="297" y="57" on="1"/>
        <pt x="323" y="57" on="0"/>
        <pt x="374" y="59" on="0"/>
        <pt x="422" y="65" on="0"/>
        <pt x="472" y="76" on="0"/>
        <pt x="496" y="88" on="1"/>
        <pt x="507" y="85" on="0"/>
        <pt x="508" y="70" on="0"/>
        <pt x="508" y="62" on="1"/>
        <pt x="508" y="43" on="0"/>
        <pt x="483" y="19" on="0"/>
        <pt x="442" y="5" on="0"/>
        <pt x="392" y="-1" on="0"/>
        <pt x="344" y="-2" on="0"/>
        <pt x="303" y="-1" on="0"/>
        <pt x="292" y="-1" on="1"/>
        <pt x="262" y="-1" on="0"/>
        <pt x="229" y="3" on="1"/>
        <pt x="218" y="4" on="0"/>
        <pt x="207" y="6" on="1"/>
        <pt x="216" y="-9" on="0"/>
        <pt x="229" y="-20" on="1"/>
        <pt x="244" y="-32" on="0"/>
        <pt x="279" y="-47" on="0"/>
        <pt x="292" y="-49" on="1"/>
        <pt x="301" y="-51" on="0"/>
        <pt x="347" y="-60" on="0"/>
        <pt x="399" y="-69" on="0"/>
        <pt x="445" y="-77" on="0"/>
        <pt x="454" y="-78" on="1"/>
        <pt x="457" y="-82" on="0"/>
        <pt x="467" y="-101" on="0"/>
        <pt x="467" y="-107" on="1"/>
        <pt x="467" y="-124" on="0"/>
        <pt x="441" y="-152" on="0"/>
        <pt x="399" y="-176" on="0"/>
        <pt x="349" y="-196" on="0"/>
        <pt x="299" y="-208" on="0"/>
        <pt x="258" y="-214" on="0"/>
        <pt x="246" y="-214" on="1"/>
        <pt x="237" y="-214" on="0"/>
        <pt x="222" y="-198" on="0"/>
        <pt x="222" y="-184" on="1"/>
        <pt x="222" y="-173" on="0"/>
        <pt x="230" y="-162" on="0"/>
        <pt x="244" y="-157" on="0"/>
        <pt x="258" y="-157" on="0"/>
        <pt x="263" y="-156" on="1"/>
        <pt x="276" y="-152" on="0"/>
        <pt x="312" y="-143" on="0"/>
        <pt x="345" y="-134" on="0"/>
        <pt x="357" y="-130" on="1"/>
        <pt x="369" y="-127" on="1"/>
        <pt x="369" y="-116" on="1"/>
        <pt x="355" y="-116" on="0"/>
        <pt x="313" y="-109" on="0"/>
        <pt x="264" y="-94" on="0"/>
        <pt x="215" y="-70" on="0"/>
        <pt x="176" y="-34" on="0"/>
        <pt x="163" y="-10" on="1"/>
        <pt x="156" y="3" on="0"/>
        <pt x="153" y="20" on="1"/>
        <pt x="127" y="29" on="0"/>
        <pt x="105" y="42" on="1"/>
        <pt x="76" y="57" on="0"/>
        <pt x="34" y="101" on="0"/>
        <pt x="8" y="161" on="0"/>
      </contour>
    </TTGlyph>
    <TTGlyph name="Ccircumflex" xMin="8" yMin="-2" xMax="508" yMax="702">
      <component glyphName="C" x="0" y="0" flags="0x1204"/>
      <component glyphName="circumflex" x="99" y="9" flags="0x1004"/>
    </TTGlyph>
    <TTGlyph name="Cdotaccent" xMin="8" yMin="-2" xMax="508" yMax="523">
      <component glyphName="C" x="0" y="0" flags="0x1204"/>
      <component glyphName="dotaccent" x="155" y="-2" flags="0x1004"/>
    </TTGlyph>
    <TTGlyph name="D" xMin="18" yMin="-1" xMax="419" yMax="468">
      <contour>
        <pt x="20" y="148" on="1"/>
        <pt x="20" y="179" on="0"/>
        <pt x="20" y="246" on="0"/>
        <pt x="26" y="314" on="0"/>
        <pt x="37" y="378" on="0"/>
        <pt x="49" y="409" on="1"/>
        <pt x="37" y="405" on="0"/>
        <pt x="25" y="409" on="0"/>
        <pt x="19" y="419" on="0"/>
        <pt x="18" y="432" on="0"/>
        <pt x="18" y="437" on="1"/>
        <pt x="18" y="450" on="0"/>
        <pt x="26" y="462" on="0"/>
        <pt x="40" y="467" on="0"/>
        <pt x="59" y="468" on="0"/>
        <pt x="69" y="468" on="1"/>
        <pt x="105" y="468" on="0"/>
        <pt x="184" y="456" on="0"/>
        <pt x="262" y="431" on="0"/>
        <pt x="332" y="392" on="0"/>
        <pt x="387" y="337" on="0"/>
        <pt x="419" y="269" on="0"/>
        <pt x="419" y="225" on="1"/>
        <pt x="419" y="172" on="0"/>
        <pt x="377" y="88" on="0"/>
        <pt x="306" y="31" on="0"/>
        <pt x="212" y="-1" on="0"/>
        <pt x="162" y="-1" on="1"/>
        <pt x="130" y="-1" on="0"/>
        <pt x="77" y="21" on="0"/>
        <pt x="39" y="60" on="0"/>
        <pt x="20" y="116" on="0"/>
      </contour>
      <contour>
        <pt x="88" y="88" on="1"/>
        <pt x="95" y="76" on="0"/>
        <pt x="121" y="64" on="0"/>
        <pt x="149" y="58" on="0"/>
        <pt x="178" y="57" on="0"/>
        <pt x="190" y="57" on="1"/>
        <pt x="224" y="57" on="0"/>
        <pt x="287" y="82" on="0"/>
        <pt x="335" y="126" on="0"/>
        <pt x="362" y="187" on="0"/>
        <pt x="362" y="222" on="1"/>
        <pt x="362" y="250" on="0"/>
        <pt x="338" y="299" on="0"/>
        <pt x="299" y="341" on="0"/>
        <pt x="248" y="374" on="0"/>
        <pt x="192" y="397" on="0"/>
        <pt x="136" y="409" on="0"/>
        <pt x="110" y="409" on="1"/>
        <pt x="107" y="409" on="1"/>
        <pt x="92" y="394" on="0"/>
        <pt x="79" y="343" on="0"/>
        <pt x="76" y="286" on="0"/>
        <pt x="78" y="231" on="0"/>
        <pt x="78" y="214" on="1"/>
        <pt x="78" y="195" on="1"/>
        <pt x="78" y="189" on="0"/>
        <pt x="81" y="158" on="0"/>
        <pt x="83" y="123" on="0"/>
        <pt x="87" y="93" on="0"/>
      </contour>
    </TTGlyph>
    <TTGlyph name="Dcaron" xMin="18" yMin="-1" xMax="419" yMax="743">
      <component glyphName="D" x="0" y="0" flags="0x1204"/>
      <component glyphName="caron" x="-5" y="164" flags="0x1004"/>
    </TTGlyph>
    <TTGlyph name="E" xMin="8" yMin="0" xMax="439" yMax="451">
      <contour>
        <pt x="8" y="140" on="1"/>
        <pt x="8" y="195" on="0"/>
        <pt x="22" y="316" on="0"/>
        <pt x="29" y="371" on="1"/>
        <pt x="31" y="390" on="0"/>
        <pt x="67" y="417" on="0"/>
        <pt x="121" y="435" on="0"/>
        <pt x="186" y="445" on="0"/>
        <pt x="249" y="449" on="0"/>
        <pt x="305" y="450" on="0"/>
        <pt x="322" y="450" on="1"/>
        <pt x="328" y="450" on="0"/>
        <pt x="350" y="450" on="0"/>
        <pt x="376" y="451" on="0"/>
        <pt x="404" y="449" on="0"/>
        <pt x="425" y="442" on="0"/>
        <pt x="439" y="428" on="0"/>
        <pt x="439" y="417" on="1"/>
        <pt x="439" y="410" on="0"/>
        <pt x="432" y="399" on="0"/>
        <pt x="419" y="399" on="1"/>
        <pt x="335" y="409" on="0"/>
        <pt x="167" y="384" on="0"/>
        <pt x="88" y="360" on="1"/>
        <pt x="88" y="358" on="0"/>
        <pt x="88" y="350" on="1"/>
        <pt x="88" y="322" on="1"/>
        <pt x="88" y="314" on="0"/>
        <pt x="88" y="312" on="1"/>
        <pt x="88" y="310" on="0"/>
        <pt x="84" y="299" on="0"/>
        <pt x="81" y="286" on="0"/>
        <pt x="77" y="274" on="0"/>
        <pt x="77" y="273" on="1"/>
        <pt x="77" y="271" on="0"/>
        <pt x="85" y="264" on="0"/>
        <pt x="88" y="263" on="1"/>
        <pt x="98" y="263" on="1"/>
        <pt x="103" y="263" on="0"/>
        <pt x="139" y="266" on="0"/>
        <pt x="187" y="271" on="0"/>
        <pt x="241" y="275" on="0"/>
        <pt x="289" y="279" on="0"/>
        <pt x="326" y="281" on="0"/>
        <pt x="331" y="282" on="1"/>
        <pt x="335" y="282" on="1"/>
        <pt x="339" y="282" on="0"/>
        <pt x="348" y="283" on="0"/>
        <pt x="351" y="283" on="1"/>
        <pt x="358" y="283" on="1"/>
        <pt x="376" y="283" on="0"/>
        <pt x="391" y="276" on="0"/>
        <pt x="391" y="257" on="1"/>
        <pt x="391" y="241" on="0"/>
        <pt x="363" y="228" on="0"/>
        <pt x="318" y="223" on="0"/>
        <pt x="260" y="224" on="0"/>
        <pt x="200" y="225" on="0"/>
        <pt x="141" y="221" on="0"/>
        <pt x="96" y="207" on="0"/>
        <pt x="69" y="177" on="0"/>
        <pt x="69" y="151" on="1"/>
        <pt x="69" y="116" on="0"/>
        <pt x="95" y="74" on="0"/>
        <pt x="139" y="51" on="0"/>
        <pt x="195" y="43" on="0"/>
        <pt x="254" y="44" on="0"/>
        <pt x="314" y="48" on="0"/>
        <pt x="340" y="48" on="1"/>
        <pt x="364" y="48" on="0"/>
        <pt x="403" y="59" on="0"/>
        <pt x="424" y="59" on="1"/>
        <pt x="430" y="59" on="0"/>
        <pt x="437" y="52" on="0"/>
        <pt x="439" y="42" on="0"/>
        <pt x="439" y="37" on="1"/>
        <pt x="439" y="28" on="1"/>
        <pt x="439" y="16" on="0"/>
        <pt x="435" y="0" on="0"/>
        <pt x="419" y="0" on="1"/>
        <pt x="136" y="0" on="1"/>
        <pt x="103" y="0" on="0"/>
        <pt x="54" y="21" on="0"/>
        <pt x="24" y="59" on="0"/>
        <pt x="8" y="110" on="0"/>
      </contour>
    </TTGlyph>
    <TTGlyph name="Eacute" xMin="8" yMin="0" xMax="439" yMax="620">
      <component glyphName="E" x="0" y="0" flags="0x1204"/>
      <component glyphName="acute" x="-69" y="40" flags="0x1004"/>
    </TTGlyph>
    <TTGlyph name="Ebreve" xMin="8" yMin="0" xMax="439" yMax="594">
      <component glyphName="E" x="0" y="0" flags="0x1204"/>
      <component glyphName="breve" x="99" y="12" flags="0x1004"/>
    </TTGlyph>
    <TTGlyph name="Ecaron" xMin="8" yMin="0" xMax="439" yMax="638">
      <component glyphName="E" x="0" y="0" flags="0x1204"/>
      <component glyphName="caron" x="0" y="59" flags="0x1004"/>
    </TTGlyph>
    <TTGlyph name="Ecircumflex" xMin="8" yMin="0" xMax="439" yMax="781">
      <component glyphName="E" x="0" y="0" flags="0x1204"/>
      <component glyphName="circumflex" x="67" y="88" flags="0x1004"/>
    </TTGlyph>
    <TTGlyph name="Edieresis" xMin="8" yMin="0" xMax="439" yMax="636">
      <component glyphName="E" x="0" y="0" flags="0x1204"/>
      <component glyphName="dieresis" x="-11" y="31" flags="0x1004"/>
    </TTGlyph>
    <TTGlyph name="Edotaccent" xMin="8" yMin="0" xMax="439" yMax="607">
      <component glyphName="E" x="0" y="0" flags="0x1204"/>
      <component glyphName="dotaccent" x="144" y="82" flags="0x1004"/>
    </TTGlyph>
    <TTGlyph name="Egrave" xMin="8" yMin="0" xMax="439" yMax="678">
      <component glyphName="E" x="0" y="0" flags="0x1204"/>
      <component glyphName="grave" x="-41" y="81" flags="0x1004"/>
    </TTGlyph>
    <TTGlyph name="Emacron" xMin="8" yMin="0" xMax="439" yMax="601">
      <component glyphName="E" x="0" y="0" flags="0x1204"/>
      <component glyphName="macron" x="49" y="78" flags="0x1004"/>
    </TTGlyph>
    <TTGlyph name="Eogonek" xMin="8" yMin="-172" xMax="439" yMax="451">
      <contour>
        <pt x="177" y="-49" on="1"/>
        <pt x="208" y="-15" on="0"/>
        <pt x="228" y="0" on="1"/>
        <pt x="136" y="0" on="1"/>
        <pt x="103" y="0" on="0"/>
        <pt x="54" y="21" on="0"/>
        <pt x="24" y="59" on="0"/>
        <pt x="8" y="110" on="0"/>
        <pt x="8" y="140" on="1"/>
        <pt x="8" y="195" on="0"/>
        <pt x="22" y="316" on="0"/>
        <pt x="29" y="371" on="1"/>
        <pt x="31" y="390" on="0"/>
        <pt x="67" y="417" on="0"/>
        <pt x="121" y="435" on="0"/>
        <pt x="186" y="445" on="0"/>
        <pt x="249" y="449" on="0"/>
        <pt x="305" y="450" on="0"/>
        <pt x="322" y="450" on="1"/>
        <pt x="328" y="450" on="0"/>
        <pt x="350" y="450" on="0"/>
        <pt x="376" y="451" on="0"/>
        <pt x="404" y="449" on="0"/>
        <pt x="425" y="442" on="0"/>
        <pt x="439" y="428" on="0"/>
        <pt x="439" y="417" on="1"/>
        <pt x="439" y="410" on="0"/>
        <pt x="432" y="399" on="0"/>
        <pt x="419" y="399" on="1"/>
        <pt x="335" y="409" on="0"/>
        <pt x="167" y="384" on="0"/>
        <pt x="88" y="360" on="1"/>
        <pt x="88" y="358" on="0"/>
        <pt x="88" y="350" on="1"/>
        <pt x="88" y="322" on="1"/>
        <pt x="88" y="314" on="0"/>
        <pt x="88" y="312" on="1"/>
        <pt x="88" y="310" on="0"/>
        <pt x="84" y="299" on="0"/>
        <pt x="81" y="286" on="0"/>
        <pt x="77" y="274" on="0"/>
        <pt x="77" y="273" on="1"/>
        <pt x="77" y="271" on="0"/>
        <pt x="85" y="264" on="0"/>
        <pt x="88" y="263" on="1"/>
        <pt x="98" y="263" on="1"/>
        <pt x="103" y="263" on="0"/>
        <pt x="139" y="266" on="0"/>
        <pt x="187" y="271" on="0"/>
        <pt x="241" y="275" on="0"/>
        <pt x="289" y="279" on="0"/>
        <pt x="326" y="281" on="0"/>
        <pt x="331" y="282" on="1"/>
        <pt x="335" y="282" on="1"/>
        <pt x="339" y="282" on="0"/>
        <pt x="348" y="283" on="0"/>
        <pt x="351" y="283" on="1"/>
        <pt x="358" y="283" on="1"/>
        <pt x="376" y="283" on="0"/>
        <pt x="391" y="276" on="0"/>
        <pt x="391" y="257" on="1"/>
        <pt x="391" y="241" on="0"/>
        <pt x="363" y="228" on="0"/>
        <pt x="318" y="223" on="0"/>
        <pt x="260" y="224" on="0"/>
        <pt x="200" y="225" on="0"/>
        <pt x="141" y="221" on="0"/>
        <pt x="96" y="207" on="0"/>
        <pt x="69" y="177" on="0"/>
        <pt x="69" y="151" on="1"/>
        <pt x="69" y="116" on="0"/>
        <pt x="95" y="74" on="0"/>
        <pt x="139" y="51" on="0"/>
        <pt x="195" y="43" on="0"/>
        <pt x="254" y="44" on="0"/>
        <pt x="314" y="48" on="0"/>
        <pt x="340" y="48" on="1"/>
        <pt x="364" y="48" on="0"/>
        <pt x="403" y="59" on="0"/>
        <pt x="424" y="59" on="1"/>
        <pt x="430" y="59" on="0"/>
        <pt x="437" y="52" on="0"/>
        <pt x="439" y="42" on="0"/>
        <pt x="439" y="37" on="1"/>
        <pt x="439" y="28" on="1"/>
        <pt x="439" y="16" on="0"/>
        <pt x="435" y="0" on="0"/>
        <pt x="419" y="0" on="1"/>
        <pt x="265" y="0" on="1"/>
        <pt x="263" y="-4" on="0"/>
        <pt x="261" y="-11" on="1"/>
        <pt x="255" y="-25" on="0"/>
        <pt x="230" y="-56" on="0"/>
        <pt x="215" y="-69" on="1"/>
        <pt x="256" y="-100" on="0"/>
        <pt x="294" y="-142" on="0"/>
        <pt x="300" y="-167" on="0"/>
        <pt x="282" y="-175" on="0"/>
        <pt x="252" y="-168" on="0"/>
        <pt x="217" y="-148" on="0"/>
        <pt x="187" y="-116" on="0"/>
        <pt x="172" y="-74" on="0"/>
      </contour>
    </TTGlyph>
    <TTGlyph name="Eth" xMin="-17" yMin="-1" xMax="419" yMax="468">
      <contour>
        <pt x="20" y="148" on="1"/>
        <pt x="20" y="173" on="1"/>
        <pt x="-14" y="167" on="1"/>
        <pt x="-17" y="233" on="1"/>
        <pt x="-2" y="235" on="1"/>
        <pt x="8" y="236" on="0"/>
        <pt x="20" y="238" on="1"/>
        <pt x="21" y="258" on="0"/>
        <pt x="23" y="280" on="1"/>
        <pt x="26" y="314" on="0"/>
        <pt x="37" y="378" on="0"/>
        <pt x="49" y="409" on="1"/>
        <pt x="37" y="405" on="0"/>
        <pt x="25" y="409" on="0"/>
        <pt x="19" y="419" on="0"/>
        <pt x="18" y="432" on="0"/>
        <pt x="18" y="437" on="1"/>
        <pt x="18" y="450" on="0"/>
        <pt x="26" y="462" on="0"/>
        <pt x="40" y="467" on="0"/>
        <pt x="59" y="468" on="0"/>
        <pt x="69" y="468" on="1"/>
        <pt x="105" y="468" on="0"/>
        <pt x="184" y="456" on="0"/>
        <pt x="262" y="431" on="0"/>
        <pt x="332" y="392" on="0"/>
        <pt x="387" y="337" on="0"/>
        <pt x="419" y="269" on="0"/>
        <pt x="419" y="225" on="1"/>
        <pt x="419" y="172" on="0"/>
        <pt x="377" y="88" on="0"/>
        <pt x="306" y="31" on="0"/>
        <pt x="212" y="-1" on="0"/>
        <pt x="162" y="-1" on="1"/>
        <pt x="130" y="-1" on="0"/>
        <pt x="77" y="21" on="0"/>
        <pt x="39" y="60" on="0"/>
        <pt x="20" y="116" on="0"/>
      </contour>
      <contour>
        <pt x="88" y="88" on="1"/>
        <pt x="95" y="76" on="0"/>
        <pt x="121" y="64" on="0"/>
        <pt x="149" y="58" on="0"/>
        <pt x="178" y="57" on="0"/>
        <pt x="190" y="57" on="1"/>
        <pt x="224" y="57" on="0"/>
        <pt x="287" y="82" on="0"/>
        <pt x="335" y="126" on="0"/>
        <pt x="362" y="187" on="0"/>
        <pt x="362" y="222" on="1"/>
        <pt x="362" y="250" on="0"/>
        <pt x="338" y="299" on="0"/>
        <pt x="299" y="341" on="0"/>
        <pt x="248" y="374" on="0"/>
        <pt x="192" y="397" on="0"/>
        <pt x="136" y="409" on="0"/>
        <pt x="110" y="409" on="1"/>
        <pt x="107" y="409" on="1"/>
        <pt x="92" y="394" on="0"/>
        <pt x="79" y="343" on="0"/>
        <pt x="76" y="286" on="0"/>
        <pt x="77" y="258" on="1"/>
        <pt x="77" y="252" on="0"/>
        <pt x="77" y="246" on="1"/>
        <pt x="84" y="246" on="1"/>
        <pt x="110" y="250" on="0"/>
        <pt x="156" y="256" on="0"/>
        <pt x="186" y="260" on="0"/>
        <pt x="187" y="260" on="1"/>
        <pt x="199" y="260" on="0"/>
        <pt x="218" y="261" on="0"/>
        <pt x="230" y="256" on="0"/>
        <pt x="237" y="245" on="0"/>
        <pt x="237" y="233" on="1"/>
        <pt x="237" y="223" on="0"/>
        <pt x="233" y="210" on="0"/>
        <pt x="217" y="210" on="1"/>
        <pt x="78" y="184" on="1"/>
        <pt x="79" y="179" on="0"/>
        <pt x="80" y="173" on="1"/>
        <pt x="81" y="158" on="0"/>
        <pt x="83" y="123" on="0"/>
        <pt x="87" y="93" on="0"/>
      </contour>
    </TTGlyph>
    <TTGlyph name="Euro" xMin="10" yMin="-2" xMax="615" yMax="399">
      <contour>
        <pt x="42" y="112" on="1"/>
        <pt x="42" y="129" on="0"/>
        <pt x="87" y="150" on="0"/>
        <pt x="121" y="156" on="1"/>
        <pt x="118" y="166" on="0"/>
        <pt x="116" y="188" on="0"/>
        <pt x="116" y="200" on="1"/>
        <pt x="90" y="198" on="0"/>
        <pt x="38" y="197" on="0"/>
        <pt x="10" y="197" on="1"/>
        <pt x="10" y="199" on="0"/>
        <pt x="11" y="211" on="0"/>
        <pt x="13" y="225" on="0"/>
        <pt x="14" y="237" on="0"/>
        <pt x="14" y="239" on="1"/>
        <pt x="15" y="241" on="0"/>
        <pt x="23" y="248" on="0"/>
        <pt x="24" y="248" on="1"/>
        <pt x="30" y="249" on="0"/>
        <pt x="52" y="251" on="0"/>
        <pt x="81" y="254" on="0"/>
        <pt x="98" y="256" on="1"/>
        <pt x="131" y="260" on="1"/>
        <pt x="144" y="287" on="0"/>
        <pt x="194" y="329" on="0"/>
        <pt x="256" y="360" on="0"/>
        <pt x="326" y="381" on="0"/>
        <pt x="394" y="394" on="0"/>
        <pt x="456" y="399" on="0"/>
        <pt x="479" y="399" on="1"/>
        <pt x="490" y="399" on="0"/>
        <pt x="508" y="383" on="0"/>
        <pt x="508" y="371" on="1"/>
        <pt x="508" y="360" on="0"/>
        <pt x="503" y="343" on="0"/>
        <pt x="496" y="331" on="1"/>
        <pt x="472" y="335" on="0"/>
        <pt x="396" y="333" on="0"/>
        <pt x="315" y="320" on="0"/>
        <pt x="241" y="292" on="0"/>
        <pt x="216" y="269" on="1"/>
        <pt x="218" y="269" on="1"/>
        <pt x="225" y="269" on="0"/>
        <pt x="256" y="266" on="0"/>
        <pt x="295" y="264" on="0"/>
        <pt x="337" y="263" on="0"/>
        <pt x="376" y="261" on="0"/>
        <pt x="406" y="259" on="0"/>
        <pt x="414" y="258" on="1"/>
        <pt x="420" y="254" on="0"/>
        <pt x="433" y="235" on="0"/>
        <pt x="433" y="229" on="1"/>
        <pt x="433" y="228" on="0"/>
        <pt x="431" y="222" on="0"/>
        <pt x="428" y="215" on="0"/>
        <pt x="424" y="210" on="0"/>
        <pt x="424" y="210" on="1"/>
        <pt x="356" y="212" on="0"/>
        <pt x="241" y="207" on="0"/>
        <pt x="184" y="203" on="1"/>
        <pt x="184" y="195" on="1"/>
        <pt x="184" y="186" on="0"/>
        <pt x="185" y="169" on="0"/>
        <pt x="187" y="161" on="1"/>
        <pt x="213" y="163" on="0"/>
        <pt x="266" y="163" on="0"/>
        <pt x="314" y="162" on="0"/>
        <pt x="350" y="161" on="0"/>
        <pt x="360" y="161" on="1"/>
        <pt x="378" y="161" on="0"/>
        <pt x="406" y="160" on="0"/>
        <pt x="427" y="149" on="0"/>
        <pt x="437" y="127" on="0"/>
        <pt x="437" y="106" on="1"/>
        <pt x="383" y="106" on="0"/>
        <pt x="281" y="101" on="0"/>
        <pt x="230" y="99" on="1"/>
        <pt x="247" y="86" on="0"/>
        <pt x="290" y="70" on="0"/>
        <pt x="336" y="60" on="0"/>
        <pt x="382" y="57" on="0"/>
        <pt x="404" y="57" on="1"/>
        <pt x="430" y="57" on="0"/>
        <pt x="480" y="59" on="0"/>
        <pt x="530" y="65" on="0"/>
        <pt x="579" y="76" on="0"/>
        <pt x="603" y="88" on="1"/>
        <pt x="614" y="85" on="0"/>
        <pt x="615" y="70" on="0"/>
        <pt x="615" y="62" on="1"/>
        <pt x="615" y="43" on="0"/>
        <pt x="590" y="19" on="0"/>
        <pt x="549" y="5" on="0"/>
        <pt x="499" y="-1" on="0"/>
        <pt x="451" y="-2" on="0"/>
        <pt x="411" y="-1" on="0"/>
        <pt x="399" y="-1" on="1"/>
        <pt x="365" y="-1" on="0"/>
        <pt x="294" y="8" on="0"/>
        <pt x="228" y="31" on="0"/>
        <pt x="169" y="67" on="0"/>
        <pt x="149" y="93" on="1"/>
        <pt x="127" y="93" on="0"/>
        <pt x="105" y="93" on="1"/>
        <pt x="62" y="93" on="1"/>
        <pt x="42" y="93" on="0"/>
      </contour>
    </TTGlyph>
    <TTGlyph name="F" xMin="19" yMin="-8" xMax="429" yMax="457">
      <contour>
        <pt x="49" y="175" on="1"/>
        <pt x="33" y="180" on="0"/>
        <pt x="19" y="195" on="0"/>
        <pt x="19" y="210" on="1"/>
        <pt x="19" y="219" on="0"/>
        <pt x="25" y="227" on="0"/>
        <pt x="34" y="232" on="0"/>
        <pt x="44" y="237" on="0"/>
        <pt x="49" y="243" on="1"/>
        <pt x="49" y="250" on="0"/>
        <pt x="53" y="284" on="0"/>
        <pt x="55" y="320" on="0"/>
        <pt x="58" y="354" on="0"/>
        <pt x="59" y="360" on="1"/>
        <pt x="59" y="361" on="0"/>
        <pt x="58" y="368" on="0"/>
        <pt x="58" y="376" on="0"/>
        <pt x="57" y="382" on="0"/>
        <pt x="57" y="383" on="1"/>
        <pt x="54" y="383" on="0"/>
        <pt x="41" y="381" on="0"/>
        <pt x="29" y="381" on="0"/>
        <pt x="20" y="386" on="0"/>
        <pt x="20" y="394" on="1"/>
        <pt x="20" y="404" on="0"/>
        <pt x="31" y="424" on="0"/>
        <pt x="39" y="429" on="1"/>
        <pt x="82" y="440" on="0"/>
        <pt x="169" y="452" on="0"/>
        <pt x="258" y="457" on="0"/>
        <pt x="345" y="457" on="0"/>
        <pt x="388" y="457" on="1"/>
        <pt x="404" y="457" on="0"/>
        <pt x="429" y="448" on="0"/>
        <pt x="429" y="429" on="1"/>
        <pt x="429" y="418" on="0"/>
        <pt x="422" y="405" on="0"/>
        <pt x="409" y="399" on="1"/>
        <pt x="397" y="399" on="0"/>
        <pt x="337" y="400" on="0"/>
        <pt x="268" y="400" on="0"/>
        <pt x="207" y="399" on="0"/>
        <pt x="195" y="399" on="1"/>
        <pt x="186" y="399" on="0"/>
        <pt x="159" y="396" on="0"/>
        <pt x="134" y="394" on="0"/>
        <pt x="116" y="390" on="0"/>
        <pt x="116" y="389" on="1"/>
        <pt x="116" y="235" on="1"/>
        <pt x="350" y="214" on="1"/>
        <pt x="357" y="213" on="0"/>
        <pt x="366" y="202" on="0"/>
        <pt x="373" y="190" on="0"/>
        <pt x="376" y="174" on="0"/>
        <pt x="376" y="170" on="1"/>
        <pt x="107" y="170" on="1"/>
        <pt x="107" y="-8" on="1"/>
        <pt x="86" y="-8" on="0"/>
        <pt x="60" y="11" on="0"/>
        <pt x="47" y="42" on="0"/>
        <pt x="43" y="82" on="0"/>
        <pt x="44" y="122" on="0"/>
        <pt x="48" y="161" on="0"/>
      </contour>
    </TTGlyph>
    <TTGlyph name="G" xMin="8" yMin="-253" xMax="516" yMax="410">
      <contour>
        <pt x="439" y="29" on="1"/>
        <pt x="404" y="16" on="0"/>
        <pt x="355" y="0" on="0"/>
        <pt x="314" y="-8" on="0"/>
        <pt x="272" y="-10" on="0"/>
        <pt x="243" y="-10" on="1"/>
        <pt x="200" y="-10" on="0"/>
        <pt x="116" y="14" on="0"/>
        <pt x="49" y="63" on="0"/>
        <pt x="8" y="139" on="0"/>
        <pt x="8" y="190" on="1"/>
        <pt x="8" y="231" on="0"/>
        <pt x="47" y="297" on="0"/>
        <pt x="110" y="345" on="0"/>
        <pt x="190" y="380" on="0"/>
        <pt x="274" y="400" on="0"/>
        <pt x="354" y="410" on="0"/>
        <pt x="385" y="410" on="1"/>
        <pt x="394" y="410" on="1"/>
        <pt x="399" y="410" on="0"/>
        <pt x="414" y="409" on="0"/>
        <pt x="420" y="409" on="1"/>
        <pt x="429" y="409" on="1"/>
        <pt x="430" y="409" on="0"/>
        <pt x="436" y="404" on="0"/>
        <pt x="442" y="397" on="0"/>
        <pt x="447" y="391" on="0"/>
        <pt x="448" y="389" on="1"/>
        <pt x="448" y="388" on="0"/>
        <pt x="449" y="388" on="1"/>
        <pt x="449" y="386" on="1"/>
        <pt x="450" y="385" on="1"/>
        <pt x="450" y="384" on="0"/>
        <pt x="449" y="383" on="0"/>
        <pt x="449" y="382" on="1"/>
        <pt x="448" y="381" on="0"/>
        <pt x="448" y="380" on="1"/>
        <pt x="447" y="378" on="0"/>
        <pt x="442" y="372" on="0"/>
        <pt x="436" y="365" on="0"/>
        <pt x="430" y="360" on="0"/>
        <pt x="429" y="360" on="1"/>
        <pt x="404" y="359" on="0"/>
        <pt x="332" y="353" on="0"/>
        <pt x="254" y="338" on="0"/>
        <pt x="177" y="315" on="0"/>
        <pt x="116" y="279" on="0"/>
        <pt x="77" y="228" on="0"/>
        <pt x="77" y="192" on="1"/>
        <pt x="77" y="161" on="0"/>
        <pt x="100" y="108" on="0"/>
        <pt x="139" y="67" on="0"/>
        <pt x="193" y="42" on="0"/>
        <pt x="224" y="39" on="1"/>
        <pt x="245" y="37" on="0"/>
        <pt x="302" y="42" on="0"/>
        <pt x="360" y="55" on="0"/>
        <pt x="411" y="75" on="0"/>
        <pt x="429" y="88" on="1"/>
        <pt x="434" y="93" on="0"/>
        <pt x="445" y="110" on="0"/>
        <pt x="457" y="126" on="0"/>
        <pt x="470" y="139" on="0"/>
        <pt x="478" y="139" on="1"/>
        <pt x="491" y="139" on="0"/>
        <pt x="507" y="121" on="0"/>
        <pt x="516" y="107" on="1"/>
        <pt x="516" y="103" on="1"/>
        <pt x="516" y="68" on="0"/>
        <pt x="514" y="13" on="0"/>
        <pt x="511" y="-36" on="0"/>
        <pt x="508" y="-82" on="0"/>
        <pt x="506" y="-133" on="0"/>
        <pt x="506" y="-195" on="0"/>
        <pt x="507" y="-234" on="1"/>
        <pt x="504" y="-240" on="0"/>
        <pt x="490" y="-247" on="0"/>
        <pt x="474" y="-252" on="0"/>
        <pt x="460" y="-253" on="0"/>
        <pt x="458" y="-253" on="1"/>
        <pt x="454" y="-253" on="0"/>
        <pt x="439" y="-247" on="0"/>
        <pt x="439" y="-244" on="1"/>
      </contour>
    </TTGlyph>
    <TTGlyph name="Gbreve" xMin="8" yMin="-253" xMax="516" yMax="561">
      <component glyphName="G" x="0" y="0" flags="0x1204"/>
      <component glyphName="breve" x="136" y="-21" flags="0x1004"/>
    </TTGlyph>
    <TTGlyph name="Gcircumflex" xMin="8" yMin="-253" xMax="516" yMax="708">
      <component glyphName="G" x="0" y="0" flags="0x1204"/>
      <component glyphName="circumflex" x="134" y="15" flags="0x1004"/>
    </TTGlyph>
    <TTGlyph name="Gcommaaccent" xMin="8" yMin="-285" xMax="516" yMax="410">
      <component glyphName="G" x="0" y="0" flags="0x1204"/>
      <component glyphName="commaaccent" x="142" y="0" flags="0x1004"/>
    </TTGlyph>
    <TTGlyph name="Gdotaccent" xMin="8" yMin="-253" xMax="516" yMax="540">
      <component glyphName="G" x="0" y="0" flags="0x1204"/>
      <component glyphName="dotaccent" x="181" y="15" flags="0x1004"/>
    </TTGlyph>
    <TTGlyph name="H" xMin="8" yMin="0" xMax="460" yMax="459">
      <contour>
        <pt x="69" y="185" on="1"/>
        <pt x="69" y="182" on="0"/>
        <pt x="72" y="159" on="0"/>
        <pt x="75" y="133" on="0"/>
        <pt x="77" y="110" on="0"/>
        <pt x="77" y="107" on="1"/>
        <pt x="77" y="95" on="1"/>
        <pt x="77" y="88" on="0"/>
        <pt x="71" y="82" on="0"/>
        <pt x="60" y="77" on="0"/>
        <pt x="49" y="77" on="0"/>
        <pt x="44" y="77" on="1"/>
        <pt x="25" y="77" on="0"/>
        <pt x="14" y="98" on="0"/>
        <pt x="9" y="116" on="1"/>
        <pt x="9" y="133" on="1"/>
        <pt x="9" y="146" on="0"/>
        <pt x="8" y="174" on="0"/>
        <pt x="8" y="187" on="1"/>
        <pt x="8" y="205" on="1"/>
        <pt x="8" y="238" on="0"/>
        <pt x="9" y="292" on="0"/>
        <pt x="11" y="345" on="0"/>
        <pt x="16" y="401" on="0"/>
        <pt x="20" y="439" on="1"/>
        <pt x="19" y="446" on="0"/>
        <pt x="22" y="455" on="0"/>
        <pt x="29" y="458" on="0"/>
        <pt x="39" y="459" on="0"/>
        <pt x="43" y="459" on="1"/>
        <pt x="49" y="459" on="0"/>
        <pt x="65" y="457" on="0"/>
        <pt x="69" y="448" on="1"/>
        <pt x="75" y="406" on="0"/>
        <pt x="80" y="325" on="0"/>
        <pt x="77" y="282" on="1"/>
        <pt x="88" y="273" on="1"/>
        <pt x="368" y="273" on="1"/>
        <pt x="368" y="294" on="0"/>
        <pt x="370" y="320" on="0"/>
        <pt x="371" y="337" on="0"/>
        <pt x="371" y="351" on="0"/>
        <pt x="369" y="370" on="0"/>
        <pt x="365" y="396" on="0"/>
        <pt x="360" y="419" on="1"/>
        <pt x="363" y="428" on="0"/>
        <pt x="379" y="429" on="0"/>
        <pt x="386" y="429" on="1"/>
        <pt x="396" y="429" on="0"/>
        <pt x="413" y="399" on="0"/>
        <pt x="427" y="348" on="0"/>
        <pt x="439" y="280" on="0"/>
        <pt x="447" y="207" on="0"/>
        <pt x="454" y="133" on="0"/>
        <pt x="458" y="67" on="0"/>
        <pt x="460" y="14" on="0"/>
        <pt x="460" y="0" on="1"/>
        <pt x="419" y="0" on="1"/>
        <pt x="417" y="0" on="0"/>
        <pt x="410" y="22" on="0"/>
        <pt x="401" y="53" on="0"/>
        <pt x="392" y="86" on="0"/>
        <pt x="389" y="98" on="1"/>
        <pt x="388" y="101" on="0"/>
        <pt x="386" y="130" on="0"/>
        <pt x="383" y="162" on="0"/>
        <pt x="381" y="191" on="0"/>
        <pt x="380" y="195" on="1"/>
        <pt x="379" y="199" on="0"/>
        <pt x="371" y="214" on="0"/>
        <pt x="371" y="214" on="1"/>
        <pt x="77" y="214" on="1"/>
        <pt x="77" y="214" on="0"/>
        <pt x="70" y="199" on="0"/>
        <pt x="69" y="195" on="1"/>
      </contour>
    </TTGlyph>
    <TTGlyph name="Hcircumflex" xMin="8" yMin="0" xMax="460" yMax="857">
      <component glyphName="H" x="0" y="0" flags="0x1204"/>
      <component glyphName="circumflex" x="82" y="164" flags="0x1004"/>
    </TTGlyph>
    <TTGlyph name="I" xMin="7" yMin="-4" xMax="110" yMax="429">
      <contour>
        <pt x="8" y="337" on="1"/>
        <pt x="8" y="349" on="0"/>
        <pt x="8" y="381" on="0"/>
        <pt x="14" y="410" on="0"/>
        <pt x="29" y="429" on="0"/>
        <pt x="46" y="429" on="1"/>
        <pt x="54" y="429" on="0"/>
        <pt x="65" y="401" on="0"/>
        <pt x="71" y="356" on="0"/>
        <pt x="75" y="302" on="0"/>
        <pt x="76" y="252" on="0"/>
        <pt x="77" y="212" on="0"/>
        <pt x="77" y="205" on="1"/>
        <pt x="79" y="179" on="0"/>
        <pt x="90" y="126" on="0"/>
        <pt x="101" y="72" on="0"/>
        <pt x="110" y="20" on="0"/>
        <pt x="110" y="-4" on="1"/>
        <pt x="75" y="-4" on="0"/>
        <pt x="33" y="26" on="0"/>
        <pt x="12" y="76" on="0"/>
        <pt x="6" y="141" on="0"/>
        <pt x="8" y="208" on="0"/>
        <pt x="11" y="275" on="0"/>
        <pt x="9" y="302" on="1"/>
        <pt x="9" y="307" on="1"/>
        <pt x="9" y="312" on="0"/>
        <pt x="8" y="322" on="0"/>
        <pt x="8" y="327" on="1"/>
      </contour>
    </TTGlyph>
    <TTGlyph name="Iacute" xMin="-111" yMin="-4" xMax="182" yMax="625">
      <component glyphName="I" x="0" y="0" flags="0x1204"/>
      <component glyphName="acute" x="-262" y="-122" scalex="1.0517578125" scaley="1.287109375" flags="0x1004"/>
    </TTGlyph>
    <TTGlyph name="Ibreve" xMin="-41" yMin="-4" xMax="165" yMax="613">
      <component glyphName="I" x="0" y="0" flags="0x1204"/>
      <component glyphName="breve" x="-64" y="31" flags="0x1004"/>
    </TTGlyph>
    <TTGlyph name="Icircumflex" xMin="-86" yMin="-4" xMax="208" yMax="700">
      <component glyphName="I" x="0" y="0" flags="0x1204"/>
      <component glyphName="circumflex" x="-94" y="7" flags="0x1004"/>
    </TTGlyph>
    <TTGlyph name="Idieresis" xMin="-45" yMin="-4" xMax="209" yMax="611">
      <component glyphName="I" x="0" y="0" flags="0x1204"/>
      <component glyphName="dieresis" x="-89" y="-38" scalex="0.714538574219" scaley="1.07177734375" flags="0x1004"/>
    </TTGlyph>
    <TTGlyph name="Idotaccent" xMin="-15" yMin="-4" xMax="110" yMax="618">
      <component glyphName="I" x="0" y="0" flags="0x1204"/>
      <component glyphName="dotaccent" x="-47" y="93" flags="0x1004"/>
    </TTGlyph>
    <TTGlyph name="Igrave" xMin="-137" yMin="-4" xMax="274" yMax="678">
      <component glyphName="I" x="0" y="0" flags="0x1204"/>
      <component glyphName="grave" x="-204" y="81" flags="0x1004"/>
    </TTGlyph>
    <TTGlyph name="Iogonek" xMin="7" yMin="-167" xMax="130" yMax="429">
      <contour>
        <pt x="11" y="-44" on="1"/>
        <pt x="42" y="-10" on="0"/>
        <pt x="61" y="5" on="1"/>
        <pt x="62" y="6" on="0"/>
        <pt x="62" y="6" on="1"/>
        <pt x="58" y="8" on="0"/>
        <pt x="54" y="11" on="1"/>
        <pt x="33" y="26" on="0"/>
        <pt x="12" y="76" on="0"/>
        <pt x="6" y="141" on="0"/>
        <pt x="8" y="208" on="0"/>
        <pt x="11" y="275" on="0"/>
        <pt x="9" y="302" on="1"/>
        <pt x="9" y="307" on="1"/>
        <pt x="9" y="312" on="0"/>
        <pt x="8" y="322" on="0"/>
        <pt x="8" y="327" on="1"/>
        <pt x="8" y="337" on="1"/>
        <pt x="8" y="349" on="0"/>
        <pt x="8" y="381" on="0"/>
        <pt x="14" y="410" on="0"/>
        <pt x="29" y="429" on="0"/>
        <pt x="46" y="429" on="1"/>
        <pt x="54" y="429" on="0"/>
        <pt x="65" y="401" on="0"/>
        <pt x="71" y="356" on="0"/>
        <pt x="75" y="302" on="0"/>
        <pt x="76" y="252" on="0"/>
        <pt x="77" y="212" on="0"/>
        <pt x="77" y="205" on="1"/>
        <pt x="79" y="179" on="0"/>
        <pt x="90" y="126" on="0"/>
        <pt x="101" y="72" on="0"/>
        <pt x="110" y="20" on="0"/>
        <pt x="110" y="-4" on="1"/>
        <pt x="103" y="-4" on="0"/>
        <pt x="96" y="-3" on="1"/>
        <pt x="95" y="-6" on="1"/>
        <pt x="88" y="-20" on="0"/>
        <pt x="65" y="-51" on="0"/>
        <pt x="48" y="-64" on="1"/>
        <pt x="89" y="-95" on="0"/>
        <pt x="127" y="-137" on="0"/>
        <pt x="133" y="-162" on="0"/>
        <pt x="116" y="-170" on="0"/>
        <pt x="86" y="-163" on="0"/>
        <pt x="50" y="-143" on="0"/>
        <pt x="21" y="-111" on="0"/>
        <pt x="6" y="-69" on="0"/>
      </contour>
    </TTGlyph>
    <TTGlyph name="Itilde" xMin="-160" yMin="-4" xMax="288" yMax="750">
      <component glyphName="I" x="0" y="0" flags="0x1204"/>
      <component glyphName="tilde" x="-179" y="164" flags="0x1004"/>
    </TTGlyph>
    <TTGlyph name="J" xMin="16" yMin="-1" xMax="547" yMax="448">
      <contour>
        <pt x="78" y="136" on="1"/>
        <pt x="78" y="142" on="0"/>
        <pt x="82" y="164" on="0"/>
        <pt x="90" y="184" on="0"/>
        <pt x="103" y="200" on="0"/>
        <pt x="113" y="200" on="1"/>
        <pt x="113" y="168" on="0"/>
        <pt x="126" y="113" on="0"/>
        <pt x="156" y="71" on="0"/>
        <pt x="206" y="47" on="0"/>
        <pt x="243" y="47" on="1"/>
        <pt x="257" y="47" on="0"/>
        <pt x="284" y="50" on="0"/>
        <pt x="310" y="59" on="0"/>
        <pt x="332" y="75" on="0"/>
        <pt x="342" y="88" on="1"/>
        <pt x="342" y="91" on="0"/>
        <pt x="343" y="108" on="0"/>
        <pt x="343" y="126" on="0"/>
        <pt x="344" y="143" on="0"/>
        <pt x="344" y="146" on="1"/>
        <pt x="344" y="176" on="0"/>
        <pt x="340" y="223" on="0"/>
        <pt x="329" y="269" on="0"/>
        <pt x="309" y="318" on="0"/>
        <pt x="292" y="350" on="1"/>
        <pt x="292" y="389" on="1"/>
        <pt x="16" y="389" on="1"/>
        <pt x="16" y="398" on="1"/>
        <pt x="16" y="404" on="0"/>
        <pt x="19" y="416" on="0"/>
        <pt x="24" y="428" on="0"/>
        <pt x="29" y="429" on="1"/>
        <pt x="35" y="429" on="0"/>
        <pt x="65" y="435" on="0"/>
        <pt x="99" y="441" on="0"/>
        <pt x="130" y="447" on="0"/>
        <pt x="136" y="448" on="1"/>
        <pt x="156" y="448" on="1"/>
        <pt x="170" y="447" on="0"/>
        <pt x="230" y="446" on="0"/>
        <pt x="305" y="445" on="0"/>
        <pt x="388" y="442" on="0"/>
        <pt x="462" y="440" on="0"/>
        <pt x="522" y="439" on="0"/>
        <pt x="536" y="439" on="1"/>
        <pt x="544" y="435" on="0"/>
        <pt x="547" y="425" on="0"/>
        <pt x="547" y="419" on="1"/>
        <pt x="547" y="409" on="0"/>
        <pt x="528" y="389" on="0"/>
        <pt x="516" y="389" on="1"/>
        <pt x="371" y="389" on="1"/>
        <pt x="355" y="389" on="0"/>
        <pt x="350" y="377" on="0"/>
        <pt x="350" y="365" on="1"/>
        <pt x="350" y="337" on="0"/>
        <pt x="367" y="281" on="0"/>
        <pt x="388" y="225" on="0"/>
        <pt x="407" y="167" on="0"/>
        <pt x="409" y="136" on="1"/>
        <pt x="411" y="98" on="0"/>
        <pt x="381" y="46" on="0"/>
        <pt x="330" y="14" on="0"/>
        <pt x="265" y="-1" on="0"/>
        <pt x="234" y="-1" on="1"/>
        <pt x="205" y="-1" on="0"/>
        <pt x="150" y="18" on="0"/>
        <pt x="105" y="54" on="0"/>
        <pt x="78" y="105" on="0"/>
      </contour>
    </TTGlyph>
    <TTGlyph name="Jcircumflex" xMin="16" yMin="-1" xMax="547" yMax="857">
      <component glyphName="J" x="0" y="0" flags="0x1204"/>
      <component glyphName="circumflex" x="127" y="164" flags="0x1004"/>
    </TTGlyph>
    <TTGlyph name="K" xMin="9" yMin="-2" xMax="527" yMax="439">
      <contour>
        <pt x="9" y="371" on="1"/>
        <pt x="9" y="378" on="0"/>
        <pt x="10" y="401" on="0"/>
        <pt x="15" y="423" on="0"/>
        <pt x="27" y="439" on="0"/>
        <pt x="39" y="439" on="1"/>
        <pt x="52" y="439" on="0"/>
        <pt x="65" y="427" on="0"/>
        <pt x="69" y="409" on="0"/>
        <pt x="68" y="388" on="0"/>
        <pt x="69" y="380" on="1"/>
        <pt x="69" y="372" on="0"/>
        <pt x="71" y="333" on="0"/>
        <pt x="74" y="290" on="0"/>
        <pt x="77" y="251" on="0"/>
        <pt x="77" y="243" on="1"/>
        <pt x="88" y="243" on="1"/>
        <pt x="243" y="322" on="1"/>
        <pt x="253" y="334" on="0"/>
        <pt x="279" y="355" on="0"/>
        <pt x="304" y="376" on="0"/>
        <pt x="330" y="397" on="0"/>
        <pt x="341" y="409" on="1"/>
        <pt x="371" y="409" on="1"/>
        <pt x="371" y="371" on="1"/>
        <pt x="371" y="365" on="0"/>
        <pt x="345" y="340" on="0"/>
        <pt x="312" y="312" on="0"/>
        <pt x="280" y="286" on="0"/>
        <pt x="273" y="282" on="1"/>
        <pt x="267" y="279" on="0"/>
        <pt x="236" y="262" on="0"/>
        <pt x="202" y="243" on="0"/>
        <pt x="172" y="227" on="0"/>
        <pt x="166" y="224" on="1"/>
        <pt x="439" y="77" on="1"/>
        <pt x="443" y="77" on="0"/>
        <pt x="472" y="75" on="0"/>
        <pt x="503" y="67" on="0"/>
        <pt x="527" y="52" on="0"/>
        <pt x="527" y="39" on="1"/>
        <pt x="527" y="33" on="0"/>
        <pt x="524" y="23" on="0"/>
        <pt x="516" y="20" on="1"/>
        <pt x="513" y="20" on="0"/>
        <pt x="501" y="19" on="0"/>
        <pt x="488" y="19" on="0"/>
        <pt x="475" y="19" on="0"/>
        <pt x="473" y="19" on="1"/>
        <pt x="438" y="19" on="0"/>
        <pt x="375" y="40" on="0"/>
        <pt x="314" y="73" on="0"/>
        <pt x="257" y="111" on="0"/>
        <pt x="197" y="144" on="0"/>
        <pt x="133" y="167" on="0"/>
        <pt x="98" y="167" on="1"/>
        <pt x="96" y="167" on="0"/>
        <pt x="88" y="166" on="0"/>
        <pt x="88" y="166" on="1"/>
        <pt x="86" y="157" on="0"/>
        <pt x="88" y="126" on="0"/>
        <pt x="88" y="89" on="0"/>
        <pt x="85" y="50" on="0"/>
        <pt x="76" y="19" on="0"/>
        <pt x="58" y="-2" on="0"/>
        <pt x="43" y="-2" on="1"/>
        <pt x="29" y="-2" on="0"/>
        <pt x="21" y="8" on="0"/>
        <pt x="20" y="29" on="1"/>
        <pt x="20" y="33" on="0"/>
        <pt x="19" y="54" on="0"/>
        <pt x="19" y="68" on="1"/>
        <pt x="19" y="98" on="1"/>
        <pt x="19" y="113" on="0"/>
        <pt x="20" y="141" on="0"/>
        <pt x="20" y="151" on="1"/>
        <pt x="20" y="166" on="1"/>
        <pt x="20" y="171" on="0"/>
        <pt x="18" y="202" on="0"/>
        <pt x="15" y="244" on="0"/>
        <pt x="13" y="292" on="0"/>
        <pt x="11" y="334" on="0"/>
        <pt x="9" y="365" on="0"/>
      </contour>
    </TTGlyph>
    <TTGlyph name="Kcommaaccent" xMin="9" yMin="-285" xMax="527" yMax="439">
      <component glyphName="K" x="0" y="0" flags="0x1204"/>
      <component glyphName="commaaccent" x="142" y="0" flags="0x1004"/>
    </TTGlyph>
    <TTGlyph name="L" xMin="19" yMin="0" xMax="555" yMax="419">
      <contour>
        <pt x="20" y="49" on="1"/>
        <pt x="20" y="72" on="1"/>
        <pt x="20" y="90" on="0"/>
        <pt x="19" y="128" on="0"/>
        <pt x="19" y="146" on="1"/>
        <pt x="19" y="201" on="1"/>
        <pt x="19" y="222" on="0"/>
        <pt x="20" y="261" on="0"/>
        <pt x="20" y="275" on="1"/>
        <pt x="20" y="321" on="1"/>
        <pt x="20" y="337" on="0"/>
        <pt x="23" y="367" on="0"/>
        <pt x="31" y="396" on="0"/>
        <pt x="39" y="409" on="1"/>
        <pt x="44" y="416" on="0"/>
        <pt x="50" y="419" on="0"/>
        <pt x="59" y="419" on="1"/>
        <pt x="63" y="419" on="0"/>
        <pt x="78" y="416" on="0"/>
        <pt x="78" y="409" on="1"/>
        <pt x="78" y="98" on="1"/>
        <pt x="78" y="81" on="0"/>
        <pt x="100" y="65" on="0"/>
        <pt x="131" y="59" on="0"/>
        <pt x="147" y="59" on="1"/>
        <pt x="174" y="59" on="1"/>
        <pt x="218" y="59" on="0"/>
        <pt x="308" y="65" on="0"/>
        <pt x="396" y="72" on="0"/>
        <pt x="485" y="77" on="0"/>
        <pt x="530" y="77" on="1"/>
        <pt x="541" y="77" on="1"/>
        <pt x="547" y="77" on="0"/>
        <pt x="552" y="73" on="0"/>
        <pt x="555" y="61" on="0"/>
        <pt x="555" y="49" on="1"/>
        <pt x="555" y="46" on="0"/>
        <pt x="546" y="39" on="0"/>
        <pt x="541" y="37" on="1"/>
        <pt x="534" y="33" on="0"/>
        <pt x="526" y="29" on="1"/>
        <pt x="513" y="28" on="0"/>
        <pt x="456" y="23" on="0"/>
        <pt x="385" y="17" on="0"/>
        <pt x="307" y="11" on="0"/>
        <pt x="235" y="5" on="0"/>
        <pt x="179" y="1" on="0"/>
        <pt x="166" y="0" on="1"/>
        <pt x="116" y="0" on="1"/>
        <pt x="95" y="0" on="0"/>
        <pt x="58" y="8" on="0"/>
        <pt x="28" y="29" on="0"/>
      </contour>
    </TTGlyph>
    <TTGlyph name="Lacute" xMin="19" yMin="0" xMax="555" yMax="623">
      <component glyphName="L" x="0" y="0" flags="0x1204"/>
      <component glyphName="acute" x="-24" y="43" flags="0x1004"/>
    </TTGlyph>
    <TTGlyph name="Lcommaaccent" xMin="19" yMin="-285" xMax="555" yMax="419">
      <component glyphName="L" x="0" y="0" flags="0x1204"/>
      <component glyphName="commaaccent" x="156" y="0" flags="0x1004"/>
    </TTGlyph>
    <TTGlyph name="Ldot" xMin="19" yMin="0" xMax="555" yMax="419">
      <component glyphName="L" x="0" y="0" flags="0x1204"/>
      <component glyphName="periodcentered" x="266" y="21" flags="0x1004"/>
    </TTGlyph>
    <TTGlyph name="Lslash" xMin="-144" yMin="0" xMax="555" yMax="419">
      <contour>
        <pt x="-136" y="214" on="1"/>
        <pt x="-147" y="225" on="0"/>
        <pt x="-141" y="241" on="0"/>
        <pt x="-114" y="252" on="0"/>
        <pt x="-72" y="258" on="0"/>
        <pt x="-23" y="260" on="0"/>
        <pt x="2" y="259" on="1"/>
        <pt x="19" y="259" on="1"/>
        <pt x="20" y="269" on="0"/>
        <pt x="20" y="275" on="1"/>
        <pt x="20" y="321" on="1"/>
        <pt x="20" y="337" on="0"/>
        <pt x="23" y="367" on="0"/>
        <pt x="31" y="396" on="0"/>
        <pt x="39" y="409" on="1"/>
        <pt x="44" y="416" on="0"/>
        <pt x="50" y="419" on="0"/>
        <pt x="59" y="419" on="1"/>
        <pt x="63" y="419" on="0"/>
        <pt x="78" y="416" on="0"/>
        <pt x="78" y="409" on="1"/>
        <pt x="78" y="256" on="1"/>
        <pt x="82" y="256" on="0"/>
        <pt x="85" y="255" on="1"/>
        <pt x="101" y="253" on="0"/>
        <pt x="105" y="251" on="1"/>
        <pt x="105" y="246" on="0"/>
        <pt x="108" y="233" on="0"/>
        <pt x="108" y="221" on="0"/>
        <pt x="103" y="212" on="0"/>
        <pt x="95" y="212" on="1"/>
        <pt x="78" y="212" on="1"/>
        <pt x="78" y="98" on="1"/>
        <pt x="78" y="81" on="0"/>
        <pt x="100" y="65" on="0"/>
        <pt x="131" y="59" on="0"/>
        <pt x="147" y="59" on="1"/>
        <pt x="174" y="59" on="1"/>
        <pt x="218" y="59" on="0"/>
        <pt x="308" y="65" on="0"/>
        <pt x="396" y="72" on="0"/>
        <pt x="485" y="77" on="0"/>
        <pt x="530" y="77" on="1"/>
        <pt x="541" y="77" on="1"/>
        <pt x="547" y="77" on="0"/>
        <pt x="552" y="73" on="0"/>
        <pt x="555" y="61" on="0"/>
        <pt x="555" y="49" on="1"/>
        <pt x="555" y="46" on="0"/>
        <pt x="546" y="39" on="0"/>
        <pt x="541" y="37" on="1"/>
        <pt x="534" y="33" on="0"/>
        <pt x="526" y="29" on="1"/>
        <pt x="513" y="28" on="0"/>
        <pt x="456" y="23" on="0"/>
        <pt x="385" y="17" on="0"/>
        <pt x="307" y="11" on="0"/>
        <pt x="235" y="5" on="0"/>
        <pt x="179" y="1" on="0"/>
        <pt x="166" y="0" on="1"/>
        <pt x="116" y="0" on="1"/>
        <pt x="95" y="0" on="0"/>
        <pt x="58" y="8" on="0"/>
        <pt x="28" y="29" on="0"/>
        <pt x="20" y="49" on="1"/>
        <pt x="20" y="72" on="1"/>
        <pt x="20" y="90" on="0"/>
        <pt x="19" y="128" on="0"/>
        <pt x="19" y="146" on="1"/>
        <pt x="19" y="212" on="1"/>
      </contour>
    </TTGlyph>
    <TTGlyph name="M" xMin="8" yMin="-1" xMax="586" yMax="459">
      <contour>
        <pt x="507" y="29" on="1"/>
        <pt x="506" y="38" on="0"/>
        <pt x="503" y="75" on="0"/>
        <pt x="500" y="121" on="0"/>
        <pt x="496" y="172" on="0"/>
        <pt x="491" y="218" on="0"/>
        <pt x="488" y="254" on="0"/>
        <pt x="487" y="263" on="1"/>
        <pt x="487" y="266" on="0"/>
        <pt x="485" y="281" on="0"/>
        <pt x="480" y="298" on="0"/>
        <pt x="470" y="312" on="0"/>
        <pt x="462" y="312" on="1"/>
        <pt x="447" y="312" on="0"/>
        <pt x="405" y="300" on="0"/>
        <pt x="360" y="286" on="0"/>
        <pt x="317" y="276" on="0"/>
        <pt x="299" y="276" on="1"/>
        <pt x="263" y="276" on="0"/>
        <pt x="207" y="302" on="0"/>
        <pt x="156" y="332" on="0"/>
        <pt x="103" y="358" on="0"/>
        <pt x="70" y="358" on="1"/>
        <pt x="70" y="299" on="0"/>
        <pt x="79" y="187" on="0"/>
        <pt x="79" y="130" on="1"/>
        <pt x="79" y="125" on="0"/>
        <pt x="78" y="110" on="0"/>
        <pt x="78" y="104" on="1"/>
        <pt x="77" y="96" on="0"/>
        <pt x="77" y="88" on="1"/>
        <pt x="29" y="59" on="1"/>
        <pt x="20" y="67" on="1"/>
        <pt x="19" y="68" on="0"/>
        <pt x="18" y="90" on="0"/>
        <pt x="16" y="126" on="0"/>
        <pt x="14" y="170" on="0"/>
        <pt x="11" y="215" on="0"/>
        <pt x="10" y="258" on="0"/>
        <pt x="9" y="273" on="1"/>
        <pt x="9" y="285" on="1"/>
        <pt x="9" y="296" on="0"/>
        <pt x="8" y="323" on="0"/>
        <pt x="8" y="337" on="1"/>
        <pt x="8" y="378" on="1"/>
        <pt x="8" y="391" on="0"/>
        <pt x="9" y="419" on="0"/>
        <pt x="9" y="431" on="1"/>
        <pt x="9" y="448" on="1"/>
        <pt x="11" y="457" on="0"/>
        <pt x="27" y="459" on="0"/>
        <pt x="34" y="459" on="1"/>
        <pt x="35" y="459" on="0"/>
        <pt x="48" y="457" on="0"/>
        <pt x="49" y="457" on="1"/>
        <pt x="83" y="433" on="0"/>
        <pt x="144" y="389" on="0"/>
        <pt x="207" y="356" on="0"/>
        <pt x="275" y="336" on="0"/>
        <pt x="317" y="336" on="1"/>
        <pt x="338" y="329" on="0"/>
        <pt x="386" y="344" on="0"/>
        <pt x="432" y="371" on="0"/>
        <pt x="473" y="401" on="0"/>
        <pt x="487" y="410" on="1"/>
        <pt x="497" y="410" on="0"/>
        <pt x="514" y="398" on="0"/>
        <pt x="528" y="380" on="0"/>
        <pt x="535" y="360" on="0"/>
        <pt x="536" y="350" on="1"/>
        <pt x="536" y="340" on="0"/>
        <pt x="541" y="299" on="0"/>
        <pt x="544" y="273" on="1"/>
        <pt x="556" y="164" on="1"/>
        <pt x="559" y="139" on="0"/>
        <pt x="564" y="97" on="0"/>
        <pt x="565" y="88" on="1"/>
        <pt x="566" y="78" on="0"/>
        <pt x="569" y="70" on="1"/>
        <pt x="576" y="52" on="1"/>
        <pt x="580" y="44" on="0"/>
        <pt x="586" y="26" on="0"/>
        <pt x="586" y="19" on="1"/>
        <pt x="586" y="11" on="0"/>
        <pt x="575" y="3" on="0"/>
        <pt x="562" y="-1" on="0"/>
        <pt x="553" y="-1" on="1"/>
        <pt x="540" y="-1" on="1"/>
        <pt x="525" y="-1" on="0"/>
        <pt x="512" y="14" on="0"/>
      </contour>
    </TTGlyph>
    <TTGlyph name="N" xMin="9" yMin="-2" xMax="605" yMax="448">
      <contour>
        <pt x="9" y="195" on="1"/>
        <pt x="14" y="204" on="0"/>
        <pt x="24" y="238" on="0"/>
        <pt x="31" y="280" on="0"/>
        <pt x="41" y="323" on="0"/>
        <pt x="52" y="359" on="0"/>
        <pt x="67" y="381" on="0"/>
        <pt x="77" y="381" on="1"/>
        <pt x="79" y="381" on="0"/>
        <pt x="87" y="380" on="0"/>
        <pt x="88" y="380" on="1"/>
        <pt x="184" y="298" on="0"/>
        <pt x="401" y="167" on="0"/>
        <pt x="516" y="116" on="1"/>
        <pt x="518" y="116" on="0"/>
        <pt x="524" y="116" on="0"/>
        <pt x="526" y="116" on="1"/>
        <pt x="532" y="116" on="0"/>
        <pt x="542" y="118" on="0"/>
        <pt x="546" y="127" on="1"/>
        <pt x="533" y="156" on="0"/>
        <pt x="512" y="230" on="0"/>
        <pt x="496" y="306" on="0"/>
        <pt x="486" y="377" on="0"/>
        <pt x="486" y="404" on="1"/>
        <pt x="486" y="408" on="0"/>
        <pt x="489" y="422" on="0"/>
        <pt x="493" y="437" on="0"/>
        <pt x="501" y="448" on="0"/>
        <pt x="507" y="448" on="1"/>
        <pt x="511" y="448" on="0"/>
        <pt x="527" y="445" on="0"/>
        <pt x="544" y="437" on="0"/>
        <pt x="556" y="426" on="0"/>
        <pt x="556" y="419" on="1"/>
        <pt x="556" y="408" on="0"/>
        <pt x="546" y="387" on="0"/>
        <pt x="546" y="376" on="1"/>
        <pt x="546" y="371" on="1"/>
        <pt x="546" y="368" on="0"/>
        <pt x="549" y="350" on="0"/>
        <pt x="552" y="331" on="0"/>
        <pt x="554" y="314" on="0"/>
        <pt x="555" y="312" on="1"/>
        <pt x="555" y="302" on="1"/>
        <pt x="562" y="278" on="0"/>
        <pt x="580" y="220" on="0"/>
        <pt x="595" y="159" on="0"/>
        <pt x="605" y="96" on="0"/>
        <pt x="605" y="67" on="1"/>
        <pt x="605" y="57" on="0"/>
        <pt x="603" y="40" on="0"/>
        <pt x="596" y="26" on="0"/>
        <pt x="582" y="19" on="0"/>
        <pt x="571" y="19" on="1"/>
        <pt x="559" y="19" on="0"/>
        <pt x="535" y="27" on="0"/>
        <pt x="513" y="42" on="0"/>
        <pt x="495" y="59" on="0"/>
        <pt x="487" y="67" on="1"/>
        <pt x="107" y="273" on="1"/>
        <pt x="103" y="273" on="1"/>
        <pt x="103" y="274" on="1"/>
        <pt x="97" y="274" on="0"/>
        <pt x="88" y="255" on="0"/>
        <pt x="81" y="233" on="0"/>
        <pt x="77" y="215" on="0"/>
        <pt x="77" y="214" on="1"/>
        <pt x="77" y="210" on="0"/>
        <pt x="79" y="190" on="0"/>
        <pt x="81" y="161" on="0"/>
        <pt x="83" y="130" on="0"/>
        <pt x="85" y="102" on="0"/>
        <pt x="88" y="81" on="0"/>
        <pt x="88" y="77" on="1"/>
        <pt x="88" y="9" on="1"/>
        <pt x="86" y="4" on="0"/>
        <pt x="77" y="0" on="0"/>
        <pt x="66" y="-2" on="0"/>
        <pt x="55" y="-1" on="0"/>
        <pt x="54" y="-1" on="1"/>
        <pt x="50" y="-1" on="0"/>
        <pt x="32" y="0" on="0"/>
        <pt x="29" y="0" on="1"/>
      </contour>
    </TTGlyph>
    <TTGlyph name="Nacute" xMin="9" yMin="-2" xMax="605" yMax="623">
      <component glyphName="N" x="0" y="0" flags="0x1204"/>
      <component glyphName="acute" x="11" y="43" flags="0x1004"/>
    </TTGlyph>
    <TTGlyph name="Ncaron" xMin="9" yMin="-2" xMax="605" yMax="674">
      <component glyphName="N" x="0" y="0" flags="0x1204"/>
      <component glyphName="caron" x="75" y="95" flags="0x1004"/>
    </TTGlyph>
    <TTGlyph name="Ncommaaccent" xMin="9" yMin="-285" xMax="605" yMax="448">
      <component glyphName="N" x="0" y="0" flags="0x1204"/>
      <component glyphName="commaaccent" x="186" y="0" flags="0x1004"/>
    </TTGlyph>
    <TTGlyph name="Ntilde" xMin="9" yMin="-2" xMax="605" yMax="587">
      <component glyphName="N" x="0" y="0" flags="0x1204"/>
      <component glyphName="tilde" x="37" y="1" flags="0x1004"/>
    </TTGlyph>
    <TTGlyph name="O" xMin="9" yMin="-1" xMax="479" yMax="410">
      <contour>
        <pt x="9" y="205" on="1"/>
        <pt x="9" y="233" on="0"/>
        <pt x="32" y="286" on="0"/>
        <pt x="71" y="332" on="0"/>
        <pt x="122" y="369" on="0"/>
        <pt x="178" y="395" on="0"/>
        <pt x="234" y="410" on="0"/>
        <pt x="259" y="410" on="1"/>
        <pt x="313" y="410" on="0"/>
        <pt x="394" y="373" on="0"/>
        <pt x="450" y="309" on="0"/>
        <pt x="479" y="221" on="0"/>
        <pt x="479" y="169" on="1"/>
        <pt x="479" y="83" on="0"/>
        <pt x="380" y="-1" on="0"/>
        <pt x="289" y="-1" on="1"/>
        <pt x="263" y="-1" on="0"/>
        <pt x="201" y="12" on="0"/>
        <pt x="139" y="36" on="0"/>
        <pt x="81" y="71" on="0"/>
        <pt x="37" y="116" on="0"/>
        <pt x="9" y="172" on="0"/>
      </contour>
      <contour>
        <pt x="77" y="203" on="1"/>
        <pt x="77" y="169" on="0"/>
        <pt x="122" y="115" on="0"/>
        <pt x="187" y="77" on="0"/>
        <pt x="258" y="57" on="0"/>
        <pt x="285" y="57" on="1"/>
        <pt x="317" y="57" on="0"/>
        <pt x="371" y="68" on="0"/>
        <pt x="411" y="95" on="0"/>
        <pt x="435" y="141" on="0"/>
        <pt x="439" y="175" on="1"/>
        <pt x="442" y="215" on="0"/>
        <pt x="415" y="280" on="0"/>
        <pt x="365" y="326" on="0"/>
        <pt x="299" y="350" on="0"/>
        <pt x="263" y="350" on="1"/>
        <pt x="235" y="350" on="0"/>
        <pt x="169" y="328" on="0"/>
        <pt x="114" y="289" on="0"/>
        <pt x="77" y="235" on="0"/>
      </contour>
    </TTGlyph>
    <TTGlyph name="OE" xMin="9" yMin="-3" xMax="866" yMax="449">
      <contour>
        <pt x="9" y="205" on="1"/>
        <pt x="9" y="233" on="0"/>
        <pt x="32" y="286" on="0"/>
        <pt x="71" y="332" on="0"/>
        <pt x="122" y="369" on="0"/>
        <pt x="178" y="395" on="0"/>
        <pt x="234" y="410" on="0"/>
        <pt x="259" y="410" on="1"/>
        <pt x="313" y="410" on="0"/>
        <pt x="394" y="373" on="0"/>
        <pt x="422" y="342" on="1"/>
        <pt x="437" y="325" on="0"/>
        <pt x="448" y="303" on="1"/>
        <pt x="452" y="337" on="0"/>
        <pt x="456" y="368" on="1"/>
        <pt x="459" y="388" on="0"/>
        <pt x="495" y="415" on="0"/>
        <pt x="548" y="433" on="0"/>
        <pt x="613" y="442" on="0"/>
        <pt x="677" y="446" on="0"/>
        <pt x="733" y="447" on="0"/>
        <pt x="750" y="447" on="1"/>
        <pt x="756" y="447" on="0"/>
        <pt x="778" y="448" on="0"/>
        <pt x="803" y="449" on="0"/>
        <pt x="830" y="446" on="0"/>
        <pt x="853" y="439" on="0"/>
        <pt x="866" y="426" on="0"/>
        <pt x="866" y="415" on="1"/>
        <pt x="866" y="407" on="0"/>
        <pt x="859" y="396" on="0"/>
        <pt x="846" y="397" on="1"/>
        <pt x="762" y="406" on="0"/>
        <pt x="594" y="382" on="0"/>
        <pt x="514" y="358" on="1"/>
        <pt x="515" y="355" on="0"/>
        <pt x="515" y="348" on="1"/>
        <pt x="515" y="320" on="1"/>
        <pt x="515" y="312" on="0"/>
        <pt x="514" y="309" on="1"/>
        <pt x="514" y="308" on="0"/>
        <pt x="511" y="297" on="0"/>
        <pt x="508" y="283" on="0"/>
        <pt x="505" y="271" on="0"/>
        <pt x="505" y="270" on="1"/>
        <pt x="505" y="269" on="0"/>
        <pt x="513" y="262" on="0"/>
        <pt x="514" y="261" on="1"/>
        <pt x="524" y="261" on="1"/>
        <pt x="530" y="261" on="0"/>
        <pt x="566" y="263" on="0"/>
        <pt x="615" y="269" on="0"/>
        <pt x="669" y="272" on="0"/>
        <pt x="717" y="276" on="0"/>
        <pt x="753" y="279" on="0"/>
        <pt x="758" y="280" on="1"/>
        <pt x="762" y="280" on="1"/>
        <pt x="766" y="280" on="0"/>
        <pt x="774" y="280" on="0"/>
        <pt x="779" y="280" on="1"/>
        <pt x="785" y="280" on="1"/>
        <pt x="803" y="280" on="0"/>
        <pt x="818" y="274" on="0"/>
        <pt x="818" y="254" on="1"/>
        <pt x="818" y="239" on="0"/>
        <pt x="790" y="225" on="0"/>
        <pt x="745" y="220" on="0"/>
        <pt x="687" y="222" on="0"/>
        <pt x="626" y="223" on="0"/>
        <pt x="569" y="218" on="0"/>
        <pt x="524" y="204" on="0"/>
        <pt x="496" y="174" on="0"/>
        <pt x="496" y="149" on="1"/>
        <pt x="496" y="114" on="0"/>
        <pt x="522" y="71" on="0"/>
        <pt x="565" y="48" on="0"/>
        <pt x="621" y="41" on="0"/>
        <pt x="682" y="42" on="0"/>
        <pt x="742" y="45" on="0"/>
        <pt x="768" y="45" on="1"/>
        <pt x="791" y="45" on="0"/>
        <pt x="830" y="56" on="0"/>
        <pt x="851" y="56" on="1"/>
        <pt x="858" y="56" on="0"/>
        <pt x="864" y="49" on="0"/>
        <pt x="866" y="40" on="0"/>
        <pt x="866" y="34" on="1"/>
        <pt x="866" y="25" on="1"/>
        <pt x="866" y="14" on="0"/>
        <pt x="863" y="-3" on="0"/>
        <pt x="846" y="-3" on="1"/>
        <pt x="564" y="-3" on="1"/>
        <pt x="530" y="-3" on="0"/>
        <pt x="482" y="19" on="0"/>
        <pt x="466" y="37" on="1"/>
        <pt x="456" y="49" on="0"/>
        <pt x="450" y="64" on="1"/>
        <pt x="441" y="51" on="0"/>
        <pt x="429" y="42" on="1"/>
        <pt x="380" y="-1" on="0"/>
        <pt x="289" y="-1" on="1"/>
        <pt x="263" y="-1" on="0"/>
        <pt x="201" y="12" on="0"/>
        <pt x="139" y="36" on="0"/>
        <pt x="81" y="71" on="0"/>
        <pt x="37" y="116" on="0"/>
        <pt x="9" y="172" on="0"/>
      </contour>
      <contour>
        <pt x="77" y="203" on="1"/>
        <pt x="77" y="169" on="0"/>
        <pt x="122" y="115" on="0"/>
        <pt x="187" y="77" on="0"/>
        <pt x="258" y="57" on="0"/>
        <pt x="285" y="57" on="1"/>
        <pt x="317" y="57" on="0"/>
        <pt x="371" y="68" on="0"/>
        <pt x="411" y="95" on="0"/>
        <pt x="422" y="118" on="1"/>
        <pt x="432" y="134" on="0"/>
        <pt x="436" y="157" on="1"/>
        <pt x="437" y="181" on="0"/>
        <pt x="438" y="207" on="1"/>
        <pt x="436" y="228" on="0"/>
        <pt x="428" y="248" on="1"/>
        <pt x="415" y="280" on="0"/>
        <pt x="365" y="326" on="0"/>
        <pt x="299" y="350" on="0"/>
        <pt x="263" y="350" on="1"/>
        <pt x="235" y="350" on="0"/>
        <pt x="169" y="328" on="0"/>
        <pt x="114" y="289" on="0"/>
        <pt x="77" y="235" on="0"/>
      </contour>
    </TTGlyph>
    <TTGlyph name="Oacute" xMin="9" yMin="-1" xMax="479" yMax="541">
      <component glyphName="O" x="0" y="0" flags="0x1204"/>
      <component glyphName="acute" x="-119" y="-245" scalex="1.15521240234" scaley="1.35400390625" flags="0x1004"/>
    </TTGlyph>
    <TTGlyph name="Obreve" xMin="9" yMin="-1" xMax="479" yMax="603">
      <component glyphName="O" x="0" y="0" flags="0x1204"/>
      <component glyphName="breve" x="122" y="21" flags="0x1004"/>
    </TTGlyph>
    <TTGlyph name="Ocircumflex" xMin="9" yMin="-1" xMax="479" yMax="737">
      <component glyphName="O" x="0" y="0" flags="0x1204"/>
      <component glyphName="circumflex" x="93" y="44" flags="0x1004"/>
    </TTGlyph>
    <TTGlyph name="Odieresis" xMin="9" yMin="-1" xMax="479" yMax="574">
      <component glyphName="O" x="0" y="0" flags="0x1204"/>
      <component glyphName="dieresis" x="-7" y="-31" flags="0x1004"/>
    </TTGlyph>
    <TTGlyph name="Ograve" xMin="9" yMin="-1" xMax="479" yMax="569">
      <component glyphName="O" x="0" y="0" flags="0x1204"/>
      <component glyphName="grave" x="24" y="84" scalex="0.788513183594" scaley="0.810302734375" flags="0x1004"/>
    </TTGlyph>
    <TTGlyph name="Ohungarumlaut" xMin="9" yMin="-1" xMax="479" yMax="665">
      <component glyphName="O" x="0" y="0" flags="0x1204"/>
      <component glyphName="hungarumlaut" x="110" y="54" flags="0x1004"/>
    </TTGlyph>
    <TTGlyph name="Omacron" xMin="9" yMin="-1" xMax="479" yMax="521">
      <component glyphName="O" x="0" y="0" flags="0x1204"/>
      <component glyphName="macron" x="61" y="-2" flags="0x1004"/>
    </TTGlyph>
    <TTGlyph name="Oslash" xMin="9" yMin="-63" xMax="479" yMax="534">
      <contour>
        <pt x="116" y="-33" on="1"/>
        <pt x="116" y="-9" on="0"/>
        <pt x="123" y="11" on="1"/>
        <pt x="127" y="26" on="0"/>
        <pt x="133" y="40" on="1"/>
        <pt x="121" y="47" on="0"/>
        <pt x="110" y="54" on="1"/>
        <pt x="81" y="71" on="0"/>
        <pt x="37" y="116" on="0"/>
        <pt x="9" y="172" on="0"/>
        <pt x="9" y="205" on="1"/>
        <pt x="9" y="233" on="0"/>
        <pt x="32" y="286" on="0"/>
        <pt x="71" y="332" on="0"/>
        <pt x="122" y="369" on="0"/>
        <pt x="178" y="395" on="0"/>
        <pt x="234" y="410" on="0"/>
        <pt x="259" y="410" on="1"/>
        <pt x="273" y="410" on="0"/>
        <pt x="286" y="409" on="1"/>
        <pt x="293" y="423" on="0"/>
        <pt x="299" y="437" on="1"/>
        <pt x="314" y="466" on="0"/>
        <pt x="335" y="512" on="0"/>
        <pt x="341" y="523" on="1"/>
        <pt x="343" y="527" on="0"/>
        <pt x="349" y="531" on="0"/>
        <pt x="358" y="534" on="0"/>
        <pt x="367" y="533" on="0"/>
        <pt x="371" y="533" on="1"/>
        <pt x="389" y="533" on="0"/>
        <pt x="400" y="521" on="0"/>
        <pt x="400" y="503" on="1"/>
        <pt x="400" y="501" on="0"/>
        <pt x="399" y="485" on="0"/>
        <pt x="399" y="483" on="1"/>
        <pt x="372" y="442" on="0"/>
        <pt x="348" y="394" on="1"/>
        <pt x="351" y="393" on="0"/>
        <pt x="354" y="391" on="1"/>
        <pt x="394" y="373" on="0"/>
        <pt x="450" y="309" on="0"/>
        <pt x="479" y="221" on="0"/>
        <pt x="479" y="169" on="1"/>
        <pt x="479" y="83" on="0"/>
        <pt x="380" y="-1" on="0"/>
        <pt x="289" y="-1" on="1"/>
        <pt x="263" y="-1" on="0"/>
        <pt x="232" y="6" on="1"/>
        <pt x="216" y="8" on="0"/>
        <pt x="200" y="14" on="1"/>
        <pt x="192" y="-11" on="0"/>
        <pt x="184" y="-33" on="1"/>
        <pt x="178" y="-52" on="0"/>
        <pt x="164" y="-63" on="0"/>
        <pt x="145" y="-63" on="1"/>
        <pt x="128" y="-63" on="0"/>
        <pt x="116" y="-50" on="0"/>
      </contour>
      <contour>
        <pt x="223" y="67" on="1"/>
        <pt x="258" y="57" on="0"/>
        <pt x="285" y="57" on="1"/>
        <pt x="317" y="57" on="0"/>
        <pt x="371" y="68" on="0"/>
        <pt x="411" y="95" on="0"/>
        <pt x="435" y="141" on="0"/>
        <pt x="439" y="175" on="1"/>
        <pt x="442" y="215" on="0"/>
        <pt x="415" y="280" on="0"/>
        <pt x="365" y="326" on="0"/>
        <pt x="332" y="337" on="1"/>
        <pt x="322" y="342" on="1"/>
        <pt x="297" y="285" on="0"/>
        <pt x="274" y="226" on="1"/>
        <pt x="247" y="157" on="0"/>
        <pt x="224" y="90" on="1"/>
        <pt x="221" y="79" on="0"/>
        <pt x="218" y="68" on="1"/>
      </contour>
      <contour>
        <pt x="77" y="203" on="1"/>
        <pt x="77" y="169" on="0"/>
        <pt x="122" y="115" on="0"/>
        <pt x="154" y="95" on="1"/>
        <pt x="156" y="94" on="0"/>
        <pt x="159" y="93" on="1"/>
        <pt x="168" y="112" on="0"/>
        <pt x="176" y="133" on="1"/>
        <pt x="177" y="136" on="0"/>
        <pt x="184" y="164" on="0"/>
        <pt x="195" y="197" on="0"/>
        <pt x="203" y="226" on="0"/>
        <pt x="205" y="230" on="1"/>
        <pt x="209" y="241" on="0"/>
        <pt x="230" y="286" on="0"/>
        <pt x="243" y="315" on="1"/>
        <pt x="251" y="332" on="0"/>
        <pt x="259" y="350" on="1"/>
        <pt x="233" y="350" on="0"/>
        <pt x="202" y="339" on="1"/>
        <pt x="169" y="328" on="0"/>
        <pt x="114" y="289" on="0"/>
        <pt x="77" y="235" on="0"/>
      </contour>
    </TTGlyph>
    <TTGlyph name="Oslashacute" xMin="9" yMin="-85" xMax="479" yMax="661">
      <contour>
        <pt x="120" y="-55" on="1"/>
        <pt x="120" y="-31" on="0"/>
        <pt x="133" y="11" on="0"/>
        <pt x="141" y="31" on="1"/>
        <pt x="143" y="32" on="0"/>
        <pt x="144" y="34" on="1"/>
        <pt x="126" y="43" on="0"/>
        <pt x="110" y="54" on="1"/>
        <pt x="81" y="71" on="0"/>
        <pt x="37" y="116" on="0"/>
        <pt x="9" y="172" on="0"/>
        <pt x="9" y="205" on="1"/>
        <pt x="9" y="233" on="0"/>
        <pt x="32" y="286" on="0"/>
        <pt x="71" y="332" on="0"/>
        <pt x="122" y="369" on="0"/>
        <pt x="178" y="395" on="0"/>
        <pt x="234" y="410" on="0"/>
        <pt x="259" y="410" on="1"/>
        <pt x="280" y="410" on="0"/>
        <pt x="299" y="407" on="1"/>
        <pt x="301" y="411" on="0"/>
        <pt x="303" y="416" on="1"/>
        <pt x="317" y="445" on="0"/>
        <pt x="338" y="490" on="0"/>
        <pt x="344" y="501" on="1"/>
        <pt x="345" y="506" on="0"/>
        <pt x="353" y="510" on="0"/>
        <pt x="361" y="512" on="0"/>
        <pt x="371" y="511" on="0"/>
        <pt x="373" y="511" on="1"/>
        <pt x="393" y="511" on="0"/>
        <pt x="404" y="500" on="0"/>
        <pt x="404" y="481" on="1"/>
        <pt x="404" y="479" on="0"/>
        <pt x="403" y="463" on="0"/>
        <pt x="403" y="462" on="1"/>
        <pt x="381" y="428" on="0"/>
        <pt x="360" y="388" on="1"/>
        <pt x="396" y="371" on="0"/>
        <pt x="422" y="342" on="1"/>
        <pt x="450" y="309" on="0"/>
        <pt x="479" y="221" on="0"/>
        <pt x="479" y="169" on="1"/>
        <pt x="479" y="83" on="0"/>
        <pt x="380" y="-1" on="0"/>
        <pt x="289" y="-1" on="1"/>
        <pt x="263" y="-1" on="0"/>
        <pt x="232" y="6" on="1"/>
        <pt x="220" y="8" on="0"/>
        <pt x="208" y="11" on="1"/>
        <pt x="197" y="-24" on="0"/>
        <pt x="188" y="-55" on="1"/>
        <pt x="182" y="-73" on="0"/>
        <pt x="167" y="-85" on="0"/>
        <pt x="149" y="-85" on="1"/>
        <pt x="132" y="-85" on="0"/>
        <pt x="120" y="-71" on="0"/>
      </contour>
      <contour>
        <pt x="285" y="57" on="1"/>
        <pt x="317" y="57" on="0"/>
        <pt x="371" y="68" on="0"/>
        <pt x="411" y="95" on="0"/>
        <pt x="435" y="141" on="0"/>
        <pt x="439" y="175" on="1"/>
        <pt x="442" y="215" on="0"/>
        <pt x="415" y="280" on="0"/>
        <pt x="390" y="303" on="1"/>
        <pt x="366" y="325" on="0"/>
        <pt x="334" y="337" on="1"/>
        <pt x="304" y="272" on="0"/>
        <pt x="277" y="205" on="1"/>
        <pt x="251" y="136" on="0"/>
        <pt x="228" y="68" on="1"/>
        <pt x="228" y="67" on="0"/>
        <pt x="227" y="65" on="1"/>
        <pt x="259" y="57" on="0"/>
      </contour>
      <contour>
        <pt x="77" y="203" on="1"/>
        <pt x="77" y="169" on="0"/>
        <pt x="122" y="115" on="0"/>
        <pt x="154" y="95" on="1"/>
        <pt x="161" y="91" on="0"/>
        <pt x="169" y="88" on="1"/>
        <pt x="174" y="99" on="0"/>
        <pt x="179" y="110" on="1"/>
        <pt x="179" y="115" on="0"/>
        <pt x="188" y="143" on="0"/>
        <pt x="197" y="176" on="0"/>
        <pt x="207" y="205" on="0"/>
        <pt x="207" y="208" on="1"/>
        <pt x="212" y="219" on="0"/>
        <pt x="233" y="265" on="0"/>
        <pt x="246" y="294" on="1"/>
        <pt x="258" y="321" on="0"/>
        <pt x="272" y="350" on="1"/>
        <pt x="263" y="350" on="1"/>
        <pt x="235" y="350" on="0"/>
        <pt x="169" y="328" on="0"/>
        <pt x="114" y="289" on="0"/>
        <pt x="77" y="235" on="0"/>
      </contour>
      <contour>
        <pt x="108" y="544" on="1"/>
        <pt x="108" y="557" on="0"/>
        <pt x="123" y="573" on="0"/>
        <pt x="135" y="577" on="1"/>
        <pt x="173" y="590" on="0"/>
        <pt x="223" y="599" on="0"/>
        <pt x="266" y="609" on="0"/>
        <pt x="314" y="626" on="0"/>
        <pt x="352" y="647" on="1"/>
        <pt x="353" y="649" on="0"/>
        <pt x="363" y="659" on="0"/>
        <pt x="365" y="660" on="1"/>
        <pt x="366" y="660" on="1"/>
        <pt x="367" y="660" on="0"/>
        <pt x="368" y="661" on="0"/>
        <pt x="369" y="661" on="1"/>
        <pt x="378" y="661" on="0"/>
        <pt x="386" y="644" on="0"/>
        <pt x="386" y="637" on="1"/>
        <pt x="386" y="625" on="0"/>
        <pt x="363" y="606" on="0"/>
        <pt x="352" y="601" on="1"/>
        <pt x="333" y="592" on="0"/>
        <pt x="320" y="586" on="0"/>
        <pt x="313" y="583" on="1"/>
        <pt x="307" y="581" on="0"/>
        <pt x="279" y="570" on="0"/>
        <pt x="242" y="558" on="0"/>
        <pt x="200" y="547" on="0"/>
        <pt x="159" y="540" on="0"/>
        <pt x="121" y="539" on="0"/>
      </contour>
    </TTGlyph>
    <TTGlyph name="Otilde" xMin="9" yMin="-1" xMax="479" yMax="604">
      <component glyphName="O" x="0" y="0" flags="0x1204"/>
      <component glyphName="tilde" x="4" y="18" flags="0x1004"/>
    </TTGlyph>
    <TTGlyph name="P" xMin="7" yMin="0" xMax="381" yMax="468">
      <contour>
        <pt x="8" y="168" on="1"/>
        <pt x="8" y="178" on="0"/>
        <pt x="9" y="218" on="0"/>
        <pt x="14" y="265" on="0"/>
        <pt x="20" y="314" on="0"/>
        <pt x="31" y="355" on="0"/>
        <pt x="50" y="381" on="0"/>
        <pt x="63" y="381" on="1"/>
        <pt x="64" y="381" on="0"/>
        <pt x="65" y="381" on="0"/>
        <pt x="66" y="381" on="1"/>
        <pt x="67" y="380" on="0"/>
        <pt x="69" y="380" on="1"/>
        <pt x="70" y="379" on="0"/>
        <pt x="76" y="374" on="0"/>
        <pt x="82" y="368" on="0"/>
        <pt x="87" y="361" on="0"/>
        <pt x="88" y="360" on="1"/>
        <pt x="79" y="341" on="0"/>
        <pt x="71" y="318" on="0"/>
        <pt x="67" y="302" on="0"/>
        <pt x="69" y="291" on="0"/>
        <pt x="71" y="276" on="0"/>
        <pt x="73" y="253" on="0"/>
        <pt x="73" y="235" on="1"/>
        <pt x="90" y="235" on="0"/>
        <pt x="141" y="241" on="0"/>
        <pt x="196" y="252" on="0"/>
        <pt x="251" y="270" on="0"/>
        <pt x="295" y="297" on="0"/>
        <pt x="322" y="333" on="0"/>
        <pt x="322" y="358" on="1"/>
        <pt x="322" y="373" on="0"/>
        <pt x="286" y="395" on="0"/>
        <pt x="230" y="409" on="0"/>
        <pt x="163" y="416" on="0"/>
        <pt x="100" y="419" on="0"/>
        <pt x="49" y="419" on="0"/>
        <pt x="39" y="419" on="1"/>
        <pt x="31" y="422" on="0"/>
        <pt x="28" y="433" on="0"/>
        <pt x="28" y="439" on="1"/>
        <pt x="28" y="450" on="0"/>
        <pt x="37" y="462" on="0"/>
        <pt x="49" y="467" on="1"/>
        <pt x="52" y="467" on="0"/>
        <pt x="67" y="467" on="0"/>
        <pt x="84" y="467" on="0"/>
        <pt x="99" y="468" on="0"/>
        <pt x="103" y="468" on="1"/>
        <pt x="131" y="468" on="0"/>
        <pt x="175" y="467" on="0"/>
        <pt x="219" y="462" on="0"/>
        <pt x="269" y="455" on="0"/>
        <pt x="302" y="448" on="1"/>
        <pt x="320" y="437" on="0"/>
        <pt x="349" y="424" on="0"/>
        <pt x="371" y="407" on="0"/>
        <pt x="381" y="380" on="0"/>
        <pt x="381" y="354" on="1"/>
        <pt x="381" y="320" on="0"/>
        <pt x="348" y="270" on="0"/>
        <pt x="296" y="233" on="0"/>
        <pt x="229" y="208" on="0"/>
        <pt x="159" y="191" on="0"/>
        <pt x="93" y="179" on="0"/>
        <pt x="69" y="175" on="1"/>
        <pt x="69" y="141" on="1"/>
        <pt x="69" y="123" on="0"/>
        <pt x="70" y="97" on="0"/>
        <pt x="71" y="70" on="0"/>
        <pt x="75" y="40" on="0"/>
        <pt x="77" y="20" on="1"/>
        <pt x="72" y="11" on="0"/>
        <pt x="54" y="0" on="0"/>
        <pt x="44" y="0" on="1"/>
        <pt x="31" y="0" on="0"/>
        <pt x="17" y="21" on="0"/>
        <pt x="9" y="54" on="0"/>
        <pt x="7" y="93" on="0"/>
        <pt x="8" y="131" on="0"/>
        <pt x="8" y="161" on="0"/>
      </contour>
    </TTGlyph>
    <TTGlyph name="Q" xMin="19" yMin="-137" xMax="508" yMax="410">
      <contour>
        <pt x="292" y="-20" on="1"/>
        <pt x="249" y="-17" on="0"/>
        <pt x="154" y="1" on="0"/>
        <pt x="72" y="42" on="0"/>
        <pt x="19" y="109" on="0"/>
        <pt x="19" y="161" on="1"/>
        <pt x="19" y="196" on="0"/>
        <pt x="37" y="258" on="0"/>
        <pt x="71" y="314" on="0"/>
        <pt x="118" y="360" on="0"/>
        <pt x="146" y="380" on="1"/>
        <pt x="148" y="381" on="0"/>
        <pt x="159" y="386" on="0"/>
        <pt x="173" y="394" on="0"/>
        <pt x="178" y="396" on="1"/>
        <pt x="185" y="399" on="1"/>
        <pt x="187" y="400" on="0"/>
        <pt x="194" y="408" on="0"/>
        <pt x="195" y="409" on="1"/>
        <pt x="210" y="409" on="1"/>
        <pt x="222" y="409" on="0"/>
        <pt x="246" y="410" on="0"/>
        <pt x="258" y="410" on="1"/>
        <pt x="273" y="410" on="1"/>
        <pt x="332" y="410" on="0"/>
        <pt x="421" y="386" on="0"/>
        <pt x="479" y="332" on="0"/>
        <pt x="508" y="244" on="0"/>
        <pt x="508" y="179" on="1"/>
        <pt x="508" y="137" on="0"/>
        <pt x="490" y="80" on="0"/>
        <pt x="452" y="38" on="0"/>
        <pt x="397" y="7" on="0"/>
        <pt x="360" y="-9" on="1"/>
        <pt x="365" y="-26" on="0"/>
        <pt x="380" y="-55" on="0"/>
        <pt x="396" y="-83" on="0"/>
        <pt x="412" y="-111" on="0"/>
        <pt x="419" y="-127" on="1"/>
        <pt x="411" y="-134" on="0"/>
        <pt x="398" y="-137" on="0"/>
        <pt x="388" y="-137" on="1"/>
        <pt x="368" y="-137" on="0"/>
        <pt x="343" y="-106" on="0"/>
        <pt x="323" y="-66" on="0"/>
        <pt x="305" y="-28" on="0"/>
      </contour>
      <contour>
        <pt x="77" y="149" on="1"/>
        <pt x="77" y="116" on="0"/>
        <pt x="120" y="72" on="0"/>
        <pt x="182" y="48" on="0"/>
        <pt x="249" y="37" on="0"/>
        <pt x="274" y="37" on="1"/>
        <pt x="274" y="66" on="0"/>
        <pt x="263" y="122" on="0"/>
        <pt x="263" y="151" on="1"/>
        <pt x="263" y="157" on="1"/>
        <pt x="263" y="162" on="0"/>
        <pt x="263" y="174" on="0"/>
        <pt x="263" y="178" on="1"/>
        <pt x="263" y="185" on="1"/>
        <pt x="263" y="187" on="0"/>
        <pt x="269" y="193" on="0"/>
        <pt x="275" y="200" on="0"/>
        <pt x="280" y="204" on="0"/>
        <pt x="282" y="205" on="1"/>
        <pt x="297" y="207" on="0"/>
        <pt x="310" y="187" on="0"/>
        <pt x="317" y="153" on="0"/>
        <pt x="320" y="110" on="0"/>
        <pt x="325" y="74" on="0"/>
        <pt x="335" y="49" on="0"/>
        <pt x="345" y="49" on="1"/>
        <pt x="376" y="49" on="0"/>
        <pt x="418" y="76" on="0"/>
        <pt x="445" y="118" on="0"/>
        <pt x="458" y="169" on="0"/>
        <pt x="458" y="195" on="1"/>
        <pt x="458" y="244" on="0"/>
        <pt x="436" y="312" on="0"/>
        <pt x="391" y="353" on="0"/>
        <pt x="324" y="371" on="0"/>
        <pt x="279" y="371" on="1"/>
        <pt x="238" y="371" on="0"/>
        <pt x="164" y="331" on="0"/>
        <pt x="110" y="267" on="0"/>
        <pt x="77" y="187" on="0"/>
      </contour>
    </TTGlyph>
    <TTGlyph name="R" xMin="19" yMin="0" xMax="597" yMax="467">
      <contour>
        <pt x="82" y="156" on="1"/>
        <pt x="82" y="49" on="1"/>
        <pt x="82" y="48" on="0"/>
        <pt x="75" y="40" on="0"/>
        <pt x="65" y="31" on="0"/>
        <pt x="53" y="21" on="0"/>
        <pt x="49" y="20" on="1"/>
        <pt x="47" y="19" on="0"/>
        <pt x="45" y="19" on="1"/>
        <pt x="44" y="19" on="0"/>
        <pt x="42" y="19" on="1"/>
        <pt x="39" y="19" on="1"/>
        <pt x="33" y="19" on="0"/>
        <pt x="23" y="21" on="0"/>
        <pt x="20" y="29" on="1"/>
        <pt x="20" y="44" on="1"/>
        <pt x="20" y="56" on="0"/>
        <pt x="19" y="81" on="0"/>
        <pt x="19" y="92" on="1"/>
        <pt x="19" y="107" on="1"/>
        <pt x="19" y="190" on="0"/>
        <pt x="43" y="317" on="0"/>
        <pt x="110" y="409" on="0"/>
        <pt x="228" y="462" on="0"/>
        <pt x="322" y="467" on="1"/>
        <pt x="336" y="463" on="0"/>
        <pt x="358" y="447" on="0"/>
        <pt x="373" y="424" on="0"/>
        <pt x="381" y="399" on="0"/>
        <pt x="381" y="385" on="1"/>
        <pt x="381" y="359" on="0"/>
        <pt x="353" y="314" on="0"/>
        <pt x="312" y="274" on="0"/>
        <pt x="263" y="241" on="0"/>
        <pt x="222" y="215" on="0"/>
        <pt x="194" y="193" on="0"/>
        <pt x="194" y="185" on="1"/>
        <pt x="194" y="173" on="0"/>
        <pt x="212" y="147" on="0"/>
        <pt x="242" y="123" on="0"/>
        <pt x="278" y="102" on="0"/>
        <pt x="313" y="84" on="0"/>
        <pt x="343" y="71" on="0"/>
        <pt x="350" y="67" on="1"/>
        <pt x="368" y="67" on="1"/>
        <pt x="381" y="67" on="0"/>
        <pt x="409" y="67" on="0"/>
        <pt x="421" y="67" on="1"/>
        <pt x="439" y="67" on="1"/>
        <pt x="460" y="67" on="0"/>
        <pt x="499" y="71" on="0"/>
        <pt x="537" y="76" on="0"/>
        <pt x="576" y="80" on="0"/>
        <pt x="597" y="80" on="1"/>
        <pt x="597" y="59" on="0"/>
        <pt x="574" y="31" on="0"/>
        <pt x="538" y="13" on="0"/>
        <pt x="493" y="3" on="0"/>
        <pt x="450" y="0" on="0"/>
        <pt x="429" y="0" on="1"/>
        <pt x="399" y="0" on="1"/>
        <pt x="358" y="0" on="0"/>
        <pt x="279" y="26" on="0"/>
        <pt x="206" y="70" on="0"/>
        <pt x="142" y="126" on="0"/>
        <pt x="116" y="156" on="1"/>
      </contour>
      <contour>
        <pt x="97" y="252" on="1"/>
        <pt x="97" y="240" on="0"/>
        <pt x="116" y="233" on="0"/>
        <pt x="127" y="233" on="1"/>
        <pt x="141" y="233" on="0"/>
        <pt x="181" y="246" on="0"/>
        <pt x="223" y="266" on="0"/>
        <pt x="263" y="294" on="0"/>
        <pt x="294" y="327" on="0"/>
        <pt x="314" y="363" on="0"/>
        <pt x="314" y="380" on="1"/>
        <pt x="314" y="394" on="0"/>
        <pt x="304" y="409" on="0"/>
        <pt x="287" y="409" on="1"/>
        <pt x="254" y="409" on="0"/>
        <pt x="187" y="388" on="0"/>
        <pt x="132" y="348" on="0"/>
        <pt x="97" y="289" on="0"/>
      </contour>
    </TTGlyph>
    <TTGlyph name="Racute" xMin="19" yMin="0" xMax="597" yMax="651">
      <component glyphName="R" x="0" y="0" flags="0x1204"/>
      <component glyphName="acute" x="-24" y="71" flags="0x1004"/>
    </TTGlyph>
    <TTGlyph name="Rcaron" xMin="19" yMin="0" xMax="597" yMax="687">
      <component glyphName="R" x="0" y="0" flags="0x1204"/>
      <component glyphName="caron" x="37" y="108" flags="0x1004"/>
    </TTGlyph>
    <TTGlyph name="Rcommaaccent" xMin="19" yMin="-285" xMax="597" yMax="467">
      <component glyphName="R" x="0" y="0" flags="0x1204"/>
      <component glyphName="commaaccent" x="176" y="0" flags="0x1004"/>
    </TTGlyph>
    <TTGlyph name="S" xMin="19" yMin="-1" xMax="479" yMax="439">
      <contour>
        <pt x="19" y="112" on="1"/>
        <pt x="19" y="123" on="0"/>
        <pt x="21" y="137" on="0"/>
        <pt x="29" y="146" on="1"/>
        <pt x="48" y="134" on="0"/>
        <pt x="67" y="110" on="0"/>
        <pt x="79" y="89" on="0"/>
        <pt x="93" y="71" on="0"/>
        <pt x="125" y="57" on="0"/>
        <pt x="181" y="49" on="0"/>
        <pt x="229" y="49" on="1"/>
        <pt x="239" y="49" on="0"/>
        <pt x="275" y="49" on="0"/>
        <pt x="318" y="54" on="0"/>
        <pt x="362" y="63" on="0"/>
        <pt x="398" y="80" on="0"/>
        <pt x="421" y="105" on="0"/>
        <pt x="421" y="123" on="1"/>
        <pt x="421" y="126" on="0"/>
        <pt x="419" y="135" on="0"/>
        <pt x="419" y="136" on="1"/>
        <pt x="371" y="185" on="1"/>
        <pt x="49" y="273" on="1"/>
        <pt x="40" y="275" on="0"/>
        <pt x="31" y="285" on="0"/>
        <pt x="27" y="297" on="0"/>
        <pt x="27" y="304" on="1"/>
        <pt x="27" y="318" on="1"/>
        <pt x="27" y="345" on="0"/>
        <pt x="64" y="385" on="0"/>
        <pt x="121" y="411" on="0"/>
        <pt x="192" y="428" on="0"/>
        <pt x="261" y="437" on="0"/>
        <pt x="320" y="439" on="0"/>
        <pt x="336" y="439" on="1"/>
        <pt x="347" y="439" on="1"/>
        <pt x="354" y="439" on="0"/>
        <pt x="371" y="439" on="0"/>
        <pt x="378" y="439" on="1"/>
        <pt x="389" y="439" on="1"/>
        <pt x="399" y="436" on="0"/>
        <pt x="401" y="421" on="0"/>
        <pt x="401" y="414" on="1"/>
        <pt x="401" y="400" on="0"/>
        <pt x="364" y="387" on="0"/>
        <pt x="307" y="380" on="0"/>
        <pt x="235" y="374" on="0"/>
        <pt x="168" y="363" on="0"/>
        <pt x="112" y="341" on="0"/>
        <pt x="98" y="322" on="1"/>
        <pt x="116" y="312" on="1"/>
        <pt x="399" y="234" on="1"/>
        <pt x="416" y="229" on="0"/>
        <pt x="446" y="202" on="0"/>
        <pt x="467" y="167" on="0"/>
        <pt x="479" y="128" on="0"/>
        <pt x="479" y="112" on="1"/>
        <pt x="479" y="88" on="0"/>
        <pt x="457" y="51" on="0"/>
        <pt x="423" y="26" on="0"/>
        <pt x="379" y="11" on="0"/>
        <pt x="333" y="2" on="0"/>
        <pt x="288" y="-1" on="0"/>
        <pt x="270" y="-1" on="1"/>
        <pt x="251" y="-1" on="0"/>
        <pt x="198" y="0" on="0"/>
        <pt x="142" y="6" on="0"/>
        <pt x="88" y="19" on="0"/>
        <pt x="45" y="44" on="0"/>
        <pt x="19" y="82" on="0"/>
      </contour>
    </TTGlyph>
    <TTGlyph name="Sacute" xMin="19" yMin="-1" xMax="479" yMax="609">
      <component glyphName="S" x="0" y="0" flags="0x1204"/>
      <component glyphName="acute" x="-50" y="29" flags="0x1004"/>
    </TTGlyph>
    <TTGlyph name="Scaron" xMin="19" yMin="-1" xMax="479" yMax="706">
      <component glyphName="S" x="0" y="0" flags="0x1204"/>
      <component glyphName="caron" x="22" y="127" flags="0x1004"/>
    </TTGlyph>
    <TTGlyph name="Scedilla" xMin="19" yMin="-234" xMax="483" yMax="439">
      <contour>
        <pt x="19" y="112" on="1"/>
        <pt x="19" y="123" on="0"/>
        <pt x="21" y="137" on="0"/>
        <pt x="29" y="146" on="1"/>
        <pt x="48" y="134" on="0"/>
        <pt x="67" y="110" on="0"/>
        <pt x="79" y="89" on="0"/>
        <pt x="93" y="71" on="0"/>
        <pt x="125" y="57" on="0"/>
        <pt x="181" y="49" on="0"/>
        <pt x="229" y="49" on="1"/>
        <pt x="239" y="49" on="0"/>
        <pt x="275" y="49" on="0"/>
        <pt x="318" y="54" on="0"/>
        <pt x="362" y="63" on="0"/>
        <pt x="398" y="80" on="0"/>
        <pt x="421" y="105" on="0"/>
        <pt x="421" y="123" on="1"/>
        <pt x="421" y="126" on="0"/>
        <pt x="419" y="135" on="0"/>
        <pt x="419" y="136" on="1"/>
        <pt x="371" y="185" on="1"/>
        <pt x="49" y="273" on="1"/>
        <pt x="40" y="275" on="0"/>
        <pt x="31" y="285" on="0"/>
        <pt x="27" y="297" on="0"/>
        <pt x="27" y="304" on="1"/>
        <pt x="27" y="318" on="1"/>
        <pt x="27" y="345" on="0"/>
        <pt x="64" y="385" on="0"/>
        <pt x="121" y="411" on="0"/>
        <pt x="192" y="428" on="0"/>
        <pt x="261" y="437" on="0"/>
        <pt x="320" y="439" on="0"/>
        <pt x="336" y="439" on="1"/>
        <pt x="347" y="439" on="1"/>
        <pt x="354" y="439" on="0"/>
        <pt x="371" y="439" on="0"/>
        <pt x="378" y="439" on="1"/>
        <pt x="389" y="439" on="1"/>
        <pt x="399" y="436" on="0"/>
        <pt x="401" y="421" on="0"/>
        <pt x="401" y="414" on="1"/>
        <pt x="401" y="400" on="0"/>
        <pt x="364" y="387" on="0"/>
        <pt x="307" y="380" on="0"/>
        <pt x="235" y="374" on="0"/>
        <pt x="168" y="363" on="0"/>
        <pt x="112" y="341" on="0"/>
        <pt x="98" y="322" on="1"/>
        <pt x="116" y="312" on="1"/>
        <pt x="399" y="234" on="1"/>
        <pt x="416" y="229" on="0"/>
        <pt x="446" y="202" on="0"/>
        <pt x="467" y="167" on="0"/>
        <pt x="479" y="128" on="0"/>
        <pt x="479" y="112" on="1"/>
        <pt x="479" y="88" on="0"/>
        <pt x="457" y="51" on="0"/>
        <pt x="423" y="26" on="0"/>
        <pt x="379" y="11" on="0"/>
        <pt x="333" y="2" on="0"/>
        <pt x="288" y="-1" on="0"/>
        <pt x="270" y="-1" on="1"/>
        <pt x="251" y="-1" on="0"/>
        <pt x="224" y="0" on="1"/>
        <pt x="216" y="0" on="1"/>
        <pt x="218" y="-4" on="0"/>
        <pt x="220" y="-9" on="1"/>
        <pt x="230" y="-27" on="0"/>
        <pt x="260" y="-52" on="0"/>
        <pt x="294" y="-65" on="0"/>
        <pt x="308" y="-68" on="1"/>
        <pt x="317" y="-71" on="0"/>
        <pt x="363" y="-78" on="0"/>
        <pt x="414" y="-88" on="0"/>
        <pt x="460" y="-96" on="0"/>
        <pt x="470" y="-97" on="1"/>
        <pt x="473" y="-101" on="0"/>
        <pt x="483" y="-121" on="0"/>
        <pt x="483" y="-127" on="1"/>
        <pt x="483" y="-143" on="0"/>
        <pt x="457" y="-172" on="0"/>
        <pt x="416" y="-196" on="0"/>
        <pt x="365" y="-214" on="0"/>
        <pt x="315" y="-227" on="0"/>
        <pt x="274" y="-234" on="0"/>
        <pt x="261" y="-234" on="1"/>
        <pt x="253" y="-234" on="0"/>
        <pt x="238" y="-217" on="0"/>
        <pt x="238" y="-203" on="1"/>
        <pt x="238" y="-191" on="0"/>
        <pt x="246" y="-180" on="0"/>
        <pt x="260" y="-177" on="0"/>
        <pt x="275" y="-176" on="0"/>
        <pt x="280" y="-175" on="1"/>
        <pt x="292" y="-172" on="0"/>
        <pt x="327" y="-162" on="0"/>
        <pt x="360" y="-153" on="0"/>
        <pt x="373" y="-150" on="1"/>
        <pt x="385" y="-146" on="1"/>
        <pt x="385" y="-134" on="1"/>
        <pt x="371" y="-134" on="0"/>
        <pt x="329" y="-128" on="0"/>
        <pt x="280" y="-113" on="0"/>
        <pt x="231" y="-88" on="0"/>
        <pt x="192" y="-53" on="0"/>
        <pt x="179" y="-30" on="1"/>
        <pt x="172" y="-14" on="0"/>
        <pt x="168" y="3" on="1"/>
        <pt x="141" y="6" on="0"/>
        <pt x="115" y="12" on="1"/>
        <pt x="88" y="19" on="0"/>
        <pt x="45" y="44" on="0"/>
        <pt x="19" y="82" on="0"/>
      </contour>
    </TTGlyph>
    <TTGlyph name="Scircumflex" xMin="19" yMin="-1" xMax="479" yMax="764">
      <component glyphName="S" x="0" y="0" flags="0x1204"/>
      <component glyphName="circumflex" x="99" y="71" flags="0x1004"/>
    </TTGlyph>
    <TTGlyph name="Scommaaccent" xMin="19" yMin="-285" xMax="479" yMax="439">
      <component glyphName="S" x="0" y="0" flags="0x1204"/>
      <component glyphName="commaaccent" x="176" y="0" flags="0x1004"/>
    </TTGlyph>
    <TTGlyph name="T" xMin="19" yMin="-6" xMax="625" yMax="433">
      <contour>
        <pt x="292" y="371" on="1"/>
        <pt x="291" y="371" on="0"/>
        <pt x="270" y="371" on="0"/>
        <pt x="244" y="371" on="0"/>
        <pt x="218" y="372" on="0"/>
        <pt x="212" y="372" on="1"/>
        <pt x="164" y="372" on="0"/>
        <pt x="77" y="360" on="0"/>
        <pt x="33" y="360" on="1"/>
        <pt x="23" y="360" on="0"/>
        <pt x="19" y="377" on="0"/>
        <pt x="19" y="385" on="1"/>
        <pt x="19" y="401" on="0"/>
        <pt x="42" y="420" on="0"/>
        <pt x="76" y="430" on="0"/>
        <pt x="118" y="433" on="0"/>
        <pt x="158" y="432" on="0"/>
        <pt x="191" y="429" on="0"/>
        <pt x="200" y="429" on="1"/>
        <pt x="299" y="429" on="0"/>
        <pt x="505" y="414" on="0"/>
        <pt x="604" y="409" on="1"/>
        <pt x="605" y="409" on="0"/>
        <pt x="611" y="404" on="0"/>
        <pt x="618" y="397" on="0"/>
        <pt x="623" y="391" on="0"/>
        <pt x="623" y="389" on="1"/>
        <pt x="623" y="388" on="0"/>
        <pt x="624" y="388" on="1"/>
        <pt x="624" y="386" on="1"/>
        <pt x="625" y="385" on="1"/>
        <pt x="625" y="384" on="0"/>
        <pt x="624" y="383" on="0"/>
        <pt x="624" y="382" on="1"/>
        <pt x="623" y="381" on="0"/>
        <pt x="623" y="380" on="1"/>
        <pt x="622" y="378" on="0"/>
        <pt x="616" y="371" on="0"/>
        <pt x="610" y="365" on="0"/>
        <pt x="605" y="360" on="0"/>
        <pt x="604" y="360" on="1"/>
        <pt x="376" y="360" on="1"/>
        <pt x="376" y="340" on="0"/>
        <pt x="367" y="305" on="0"/>
        <pt x="355" y="271" on="0"/>
        <pt x="344" y="235" on="0"/>
        <pt x="342" y="214" on="1"/>
        <pt x="342" y="205" on="1"/>
        <pt x="341" y="197" on="0"/>
        <pt x="340" y="168" on="0"/>
        <pt x="337" y="132" on="0"/>
        <pt x="336" y="92" on="0"/>
        <pt x="333" y="55" on="0"/>
        <pt x="332" y="26" on="0"/>
        <pt x="331" y="20" on="1"/>
        <pt x="325" y="3" on="0"/>
        <pt x="293" y="-6" on="0"/>
        <pt x="279" y="-6" on="1"/>
        <pt x="279" y="37" on="0"/>
        <pt x="274" y="133" on="0"/>
        <pt x="280" y="230" on="0"/>
        <pt x="303" y="322" on="0"/>
        <pt x="331" y="360" on="1"/>
      </contour>
    </TTGlyph>
    <TTGlyph name="Tcaron" xMin="19" yMin="-6" xMax="625" yMax="743">
      <component glyphName="T" x="0" y="0" flags="0x1204"/>
      <component glyphName="caron" x="90" y="164" flags="0x1004"/>
    </TTGlyph>
    <TTGlyph name="Tcommaaccent" xMin="19" yMin="-285" xMax="625" yMax="433">
      <component glyphName="T" x="0" y="0" flags="0x1204"/>
      <component glyphName="commaaccent" x="190" y="0" flags="0x1004"/>
    </TTGlyph>
    <TTGlyph name="Thorn" xMin="5" yMin="-44" xMax="414" yMax="575">
      <contour>
        <pt x="97" y="170" on="1"/>
        <pt x="107" y="116" on="0"/>
        <pt x="103" y="21" on="0"/>
        <pt x="85" y="-37" on="0"/>
        <pt x="62" y="-51" on="0"/>
        <pt x="43" y="-3" on="0"/>
        <pt x="37" y="118" on="0"/>
        <pt x="45" y="223" on="1"/>
        <pt x="43" y="233" on="0"/>
        <pt x="37" y="280" on="0"/>
        <pt x="29" y="341" on="0"/>
        <pt x="21" y="409" on="0"/>
        <pt x="14" y="472" on="0"/>
        <pt x="7" y="522" on="0"/>
        <pt x="6" y="535" on="1"/>
        <pt x="6" y="536" on="0"/>
        <pt x="5" y="548" on="0"/>
        <pt x="5" y="551" on="1"/>
        <pt x="5" y="565" on="0"/>
        <pt x="17" y="575" on="0"/>
        <pt x="31" y="575" on="1"/>
        <pt x="49" y="575" on="0"/>
        <pt x="66" y="547" on="0"/>
        <pt x="73" y="506" on="0"/>
        <pt x="75" y="457" on="0"/>
        <pt x="79" y="416" on="0"/>
        <pt x="92" y="388" on="0"/>
        <pt x="106" y="388" on="1"/>
        <pt x="180" y="412" on="0"/>
        <pt x="294" y="408" on="0"/>
        <pt x="371" y="370" on="0"/>
        <pt x="412" y="308" on="0"/>
        <pt x="415" y="241" on="0"/>
        <pt x="378" y="180" on="0"/>
        <pt x="299" y="144" on="0"/>
        <pt x="179" y="144" on="0"/>
      </contour>
      <contour>
        <pt x="103" y="286" on="1"/>
        <pt x="103" y="243" on="0"/>
        <pt x="136" y="202" on="0"/>
        <pt x="180" y="202" on="1"/>
        <pt x="206" y="202" on="1"/>
        <pt x="223" y="202" on="0"/>
        <pt x="260" y="206" on="0"/>
        <pt x="298" y="212" on="0"/>
        <pt x="330" y="225" on="0"/>
        <pt x="349" y="244" on="0"/>
        <pt x="349" y="258" on="1"/>
        <pt x="349" y="302" on="0"/>
        <pt x="308" y="351" on="0"/>
        <pt x="268" y="351" on="1"/>
        <pt x="246" y="351" on="0"/>
        <pt x="202" y="348" on="0"/>
        <pt x="160" y="340" on="0"/>
        <pt x="120" y="324" on="0"/>
        <pt x="103" y="311" on="1"/>
        <pt x="103" y="308" on="0"/>
        <pt x="103" y="290" on="0"/>
      </contour>
    </TTGlyph>
    <TTGlyph name="U" xMin="8" yMin="0" xMax="450" yMax="459">
      <contour>
        <pt x="8" y="314" on="1"/>
        <pt x="8" y="336" on="1"/>
        <pt x="8" y="350" on="0"/>
        <pt x="11" y="382" on="0"/>
        <pt x="17" y="415" on="0"/>
        <pt x="28" y="442" on="0"/>
        <pt x="46" y="459" on="0"/>
        <pt x="59" y="459" on="1"/>
        <pt x="67" y="459" on="0"/>
        <pt x="75" y="450" on="0"/>
        <pt x="79" y="435" on="0"/>
        <pt x="79" y="428" on="1"/>
        <pt x="79" y="415" on="1"/>
        <pt x="79" y="404" on="0"/>
        <pt x="78" y="388" on="0"/>
        <pt x="76" y="371" on="0"/>
        <pt x="72" y="353" on="0"/>
        <pt x="69" y="341" on="1"/>
        <pt x="72" y="309" on="0"/>
        <pt x="79" y="241" on="0"/>
        <pt x="91" y="178" on="0"/>
        <pt x="111" y="123" on="0"/>
        <pt x="146" y="82" on="0"/>
        <pt x="200" y="57" on="0"/>
        <pt x="239" y="57" on="1"/>
        <pt x="258" y="57" on="0"/>
        <pt x="304" y="62" on="0"/>
        <pt x="348" y="76" on="0"/>
        <pt x="383" y="104" on="0"/>
        <pt x="389" y="127" on="1"/>
        <pt x="389" y="131" on="0"/>
        <pt x="390" y="153" on="0"/>
        <pt x="390" y="178" on="0"/>
        <pt x="391" y="200" on="0"/>
        <pt x="391" y="205" on="1"/>
        <pt x="391" y="229" on="0"/>
        <pt x="381" y="276" on="0"/>
        <pt x="369" y="321" on="0"/>
        <pt x="360" y="365" on="0"/>
        <pt x="360" y="389" on="1"/>
        <pt x="360" y="402" on="0"/>
        <pt x="365" y="419" on="0"/>
        <pt x="380" y="419" on="1"/>
        <pt x="398" y="419" on="0"/>
        <pt x="422" y="391" on="0"/>
        <pt x="438" y="347" on="0"/>
        <pt x="445" y="293" on="0"/>
        <pt x="450" y="241" on="0"/>
        <pt x="450" y="220" on="1"/>
        <pt x="450" y="190" on="1"/>
        <pt x="450" y="138" on="0"/>
        <pt x="415" y="65" on="0"/>
        <pt x="354" y="20" on="0"/>
        <pt x="269" y="0" on="0"/>
        <pt x="219" y="0" on="1"/>
        <pt x="178" y="0" on="0"/>
        <pt x="116" y="27" on="0"/>
        <pt x="69" y="74" on="0"/>
        <pt x="37" y="136" on="0"/>
        <pt x="17" y="207" on="0"/>
        <pt x="8" y="280" on="0"/>
      </contour>
    </TTGlyph>
    <TTGlyph name="Uacute" xMin="8" yMin="0" xMax="450" yMax="630">
      <component glyphName="U" x="0" y="0" flags="0x1204"/>
      <component glyphName="acute" x="-143" y="-228" scalex="1.23992919922" scaley="1.47839355469" flags="0x1004"/>
    </TTGlyph>
    <TTGlyph name="Ubreve" xMin="8" yMin="0" xMax="450" yMax="606">
      <component glyphName="U" x="0" y="0" flags="0x1204"/>
      <component glyphName="breve" x="105" y="24" flags="0x1004"/>
    </TTGlyph>
    <TTGlyph name="Ucircumflex" xMin="8" yMin="0" xMax="450" yMax="767">
      <component glyphName="U" x="0" y="0" flags="0x1204"/>
      <component glyphName="circumflex" x="77" y="74" flags="0x1004"/>
    </TTGlyph>
    <TTGlyph name="Udieresis" xMin="8" yMin="0" xMax="450" yMax="632">
      <component glyphName="U" x="0" y="0" flags="0x1204"/>
      <component glyphName="dieresis" x="-14" y="27" flags="0x1004"/>
    </TTGlyph>
    <TTGlyph name="Ugrave" xMin="7" yMin="0" xMax="450" yMax="651">
      <component glyphName="U" x="0" y="0" flags="0x1204"/>
      <component glyphName="grave" x="-60" y="54" flags="0x1004"/>
    </TTGlyph>
    <TTGlyph name="Uhungarumlaut" xMin="8" yMin="0" xMax="450" yMax="693">
      <component glyphName="U" x="0" y="0" flags="0x1204"/>
      <component glyphName="hungarumlaut" x="82" y="82" flags="0x1004"/>
    </TTGlyph>
    <TTGlyph name="Umacron" xMin="8" yMin="0" xMax="450" yMax="599">
      <component glyphName="U" x="0" y="0" flags="0x1204"/>
      <component glyphName="macron" x="52" y="76" flags="0x1004"/>
    </TTGlyph>
    <TTGlyph name="Uogonek" xMin="8" yMin="-158" xMax="450" yMax="459">
      <contour>
        <pt x="229" y="-35" on="1"/>
        <pt x="251" y="-12" on="0"/>
        <pt x="266" y="2" on="1"/>
        <pt x="243" y="0" on="0"/>
        <pt x="219" y="0" on="1"/>
        <pt x="178" y="0" on="0"/>
        <pt x="116" y="27" on="0"/>
        <pt x="69" y="74" on="0"/>
        <pt x="37" y="136" on="0"/>
        <pt x="17" y="207" on="0"/>
        <pt x="8" y="280" on="0"/>
        <pt x="8" y="314" on="1"/>
        <pt x="8" y="336" on="1"/>
        <pt x="8" y="350" on="0"/>
        <pt x="11" y="382" on="0"/>
        <pt x="17" y="415" on="0"/>
        <pt x="28" y="442" on="0"/>
        <pt x="46" y="459" on="0"/>
        <pt x="59" y="459" on="1"/>
        <pt x="67" y="459" on="0"/>
        <pt x="75" y="450" on="0"/>
        <pt x="79" y="435" on="0"/>
        <pt x="79" y="428" on="1"/>
        <pt x="79" y="415" on="1"/>
        <pt x="79" y="404" on="0"/>
        <pt x="78" y="388" on="0"/>
        <pt x="76" y="371" on="0"/>
        <pt x="72" y="353" on="0"/>
        <pt x="69" y="341" on="1"/>
        <pt x="72" y="309" on="0"/>
        <pt x="79" y="241" on="0"/>
        <pt x="91" y="178" on="0"/>
        <pt x="111" y="123" on="0"/>
        <pt x="146" y="82" on="0"/>
        <pt x="200" y="57" on="0"/>
        <pt x="239" y="57" on="1"/>
        <pt x="258" y="57" on="0"/>
        <pt x="304" y="62" on="0"/>
        <pt x="348" y="76" on="0"/>
        <pt x="383" y="104" on="0"/>
        <pt x="389" y="127" on="1"/>
        <pt x="389" y="131" on="0"/>
        <pt x="390" y="153" on="0"/>
        <pt x="390" y="178" on="0"/>
        <pt x="391" y="200" on="0"/>
        <pt x="391" y="205" on="1"/>
        <pt x="391" y="229" on="0"/>
        <pt x="381" y="276" on="0"/>
        <pt x="369" y="321" on="0"/>
        <pt x="360" y="365" on="0"/>
        <pt x="360" y="389" on="1"/>
        <pt x="360" y="402" on="0"/>
        <pt x="365" y="419" on="0"/>
        <pt x="380" y="419" on="1"/>
        <pt x="398" y="419" on="0"/>
        <pt x="422" y="391" on="0"/>
        <pt x="438" y="347" on="0"/>
        <pt x="445" y="293" on="0"/>
        <pt x="450" y="241" on="0"/>
        <pt x="450" y="220" on="1"/>
        <pt x="450" y="190" on="1"/>
        <pt x="450" y="138" on="0"/>
        <pt x="415" y="65" on="0"/>
        <pt x="384" y="42" on="1"/>
        <pt x="355" y="21" on="0"/>
        <pt x="317" y="11" on="1"/>
        <pt x="315" y="8" on="0"/>
        <pt x="314" y="3" on="1"/>
        <pt x="307" y="-10" on="0"/>
        <pt x="283" y="-43" on="0"/>
        <pt x="267" y="-55" on="1"/>
        <pt x="308" y="-86" on="0"/>
        <pt x="346" y="-128" on="0"/>
        <pt x="353" y="-153" on="0"/>
        <pt x="335" y="-161" on="0"/>
        <pt x="304" y="-155" on="0"/>
        <pt x="269" y="-134" on="0"/>
        <pt x="240" y="-102" on="0"/>
        <pt x="224" y="-60" on="0"/>
      </contour>
    </TTGlyph>
    <TTGlyph name="Uring" xMin="8" yMin="0" xMax="450" yMax="730">
      <component glyphName="U" x="0" y="0" flags="0x1204"/>
      <component glyphName="ring" x="-3" y="164" flags="0x1004"/>
    </TTGlyph>
    <TTGlyph name="Utilde" xMin="8" yMin="0" xMax="459" yMax="673">
      <component glyphName="U" x="0" y="0" flags="0x1204"/>
      <component glyphName="tilde" x="-8" y="87" flags="0x1004"/>
    </TTGlyph>
    <TTGlyph name="V" xMin="8" yMin="-1" xMax="479" yMax="429">
      <contour>
        <pt x="39" y="331" on="1"/>
        <pt x="34" y="337" on="0"/>
        <pt x="24" y="354" on="0"/>
        <pt x="14" y="373" on="0"/>
        <pt x="8" y="392" on="0"/>
        <pt x="8" y="399" on="1"/>
        <pt x="8" y="419" on="0"/>
        <pt x="29" y="419" on="1"/>
        <pt x="54" y="419" on="0"/>
        <pt x="91" y="378" on="0"/>
        <pt x="121" y="314" on="0"/>
        <pt x="147" y="238" on="0"/>
        <pt x="173" y="167" on="0"/>
        <pt x="204" y="109" on="0"/>
        <pt x="224" y="98" on="1"/>
        <pt x="302" y="243" on="1"/>
        <pt x="312" y="253" on="1"/>
        <pt x="317" y="259" on="0"/>
        <pt x="337" y="286" on="0"/>
        <pt x="361" y="322" on="0"/>
        <pt x="388" y="360" on="0"/>
        <pt x="414" y="394" on="0"/>
        <pt x="433" y="422" on="0"/>
        <pt x="439" y="429" on="1"/>
        <pt x="439" y="429" on="0"/>
        <pt x="447" y="429" on="0"/>
        <pt x="448" y="429" on="1"/>
        <pt x="463" y="429" on="0"/>
        <pt x="479" y="409" on="0"/>
        <pt x="479" y="394" on="1"/>
        <pt x="479" y="393" on="0"/>
        <pt x="478" y="381" on="0"/>
        <pt x="478" y="380" on="1"/>
        <pt x="473" y="373" on="0"/>
        <pt x="455" y="348" on="0"/>
        <pt x="432" y="314" on="0"/>
        <pt x="406" y="279" on="0"/>
        <pt x="383" y="246" on="0"/>
        <pt x="365" y="220" on="0"/>
        <pt x="360" y="214" on="1"/>
        <pt x="360" y="212" on="0"/>
        <pt x="352" y="206" on="0"/>
        <pt x="350" y="205" on="1"/>
        <pt x="253" y="20" on="1"/>
        <pt x="253" y="19" on="0"/>
        <pt x="243" y="14" on="0"/>
        <pt x="231" y="8" on="0"/>
        <pt x="218" y="1" on="0"/>
        <pt x="214" y="0" on="1"/>
        <pt x="213" y="0" on="0"/>
        <pt x="205" y="-1" on="0"/>
        <pt x="202" y="-1" on="1"/>
        <pt x="198" y="-1" on="1"/>
        <pt x="196" y="-1" on="0"/>
        <pt x="195" y="0" on="1"/>
      </contour>
    </TTGlyph>
    <TTGlyph name="W" xMin="19" yMin="-1" xMax="722" yMax="488">
      <contour>
        <pt x="29" y="389" on="1"/>
        <pt x="21" y="399" on="0"/>
        <pt x="19" y="413" on="0"/>
        <pt x="19" y="424" on="1"/>
        <pt x="19" y="435" on="0"/>
        <pt x="26" y="450" on="0"/>
        <pt x="39" y="450" on="1"/>
        <pt x="47" y="450" on="0"/>
        <pt x="59" y="442" on="0"/>
        <pt x="70" y="429" on="0"/>
        <pt x="76" y="416" on="0"/>
        <pt x="78" y="409" on="1"/>
        <pt x="90" y="368" on="0"/>
        <pt x="108" y="302" on="0"/>
        <pt x="121" y="235" on="0"/>
        <pt x="131" y="162" on="0"/>
        <pt x="136" y="116" on="1"/>
        <pt x="146" y="98" on="1"/>
        <pt x="154" y="100" on="0"/>
        <pt x="170" y="110" on="0"/>
        <pt x="175" y="116" on="1"/>
        <pt x="180" y="123" on="0"/>
        <pt x="201" y="154" on="0"/>
        <pt x="228" y="193" on="0"/>
        <pt x="258" y="235" on="0"/>
        <pt x="285" y="274" on="0"/>
        <pt x="307" y="304" on="0"/>
        <pt x="312" y="312" on="1"/>
        <pt x="320" y="323" on="0"/>
        <pt x="330" y="332" on="0"/>
        <pt x="342" y="332" on="1"/>
        <pt x="352" y="332" on="0"/>
        <pt x="383" y="301" on="0"/>
        <pt x="422" y="252" on="0"/>
        <pt x="462" y="193" on="0"/>
        <pt x="501" y="139" on="0"/>
        <pt x="534" y="95" on="0"/>
        <pt x="546" y="88" on="1"/>
        <pt x="547" y="88" on="0"/>
        <pt x="549" y="87" on="0"/>
        <pt x="550" y="87" on="1"/>
        <pt x="553" y="87" on="1"/>
        <pt x="554" y="87" on="0"/>
        <pt x="555" y="88" on="1"/>
        <pt x="565" y="98" on="1"/>
        <pt x="672" y="467" on="1"/>
        <pt x="676" y="480" on="0"/>
        <pt x="680" y="488" on="0"/>
        <pt x="690" y="488" on="1"/>
        <pt x="700" y="488" on="0"/>
        <pt x="711" y="479" on="0"/>
        <pt x="719" y="466" on="0"/>
        <pt x="722" y="450" on="0"/>
        <pt x="722" y="442" on="1"/>
        <pt x="722" y="431" on="0"/>
        <pt x="713" y="380" on="0"/>
        <pt x="698" y="314" on="0"/>
        <pt x="677" y="235" on="0"/>
        <pt x="651" y="159" on="0"/>
        <pt x="624" y="88" on="0"/>
        <pt x="596" y="32" on="0"/>
        <pt x="568" y="-1" on="0"/>
        <pt x="555" y="-1" on="1"/>
        <pt x="554" y="-1" on="0"/>
        <pt x="547" y="0" on="0"/>
        <pt x="546" y="0" on="1"/>
        <pt x="516" y="26" on="0"/>
        <pt x="465" y="82" on="0"/>
        <pt x="419" y="141" on="0"/>
        <pt x="374" y="201" on="0"/>
        <pt x="350" y="234" on="1"/>
        <pt x="349" y="235" on="0"/>
        <pt x="343" y="243" on="0"/>
        <pt x="342" y="243" on="1"/>
        <pt x="340" y="243" on="0"/>
        <pt x="339" y="244" on="1"/>
        <pt x="337" y="244" on="0"/>
        <pt x="337" y="245" on="0"/>
        <pt x="336" y="245" on="1"/>
        <pt x="323" y="245" on="0"/>
        <pt x="292" y="208" on="0"/>
        <pt x="258" y="154" on="0"/>
        <pt x="219" y="90" on="0"/>
        <pt x="179" y="37" on="0"/>
        <pt x="138" y="0" on="0"/>
        <pt x="116" y="0" on="1"/>
        <pt x="116" y="0" on="0"/>
        <pt x="110" y="4" on="0"/>
        <pt x="105" y="11" on="0"/>
        <pt x="99" y="18" on="0"/>
        <pt x="98" y="20" on="1"/>
        <pt x="97" y="21" on="0"/>
        <pt x="97" y="28" on="0"/>
        <pt x="98" y="29" on="1"/>
      </contour>
    </TTGlyph>
    <TTGlyph name="Wacute" xMin="19" yMin="-1" xMax="722" yMax="744">
      <component glyphName="W" x="0" y="0" flags="0x1204"/>
      <component glyphName="acute" x="82" y="164" flags="0x1004"/>
    </TTGlyph>
    <TTGlyph name="Wcircumflex" xMin="19" yMin="-1" xMax="722" yMax="857">
      <component glyphName="W" x="0" y="0" flags="0x1204"/>
      <component glyphName="circumflex" x="210" y="164" flags="0x1004"/>
    </TTGlyph>
    <TTGlyph name="Wdieresis" xMin="19" yMin="-1" xMax="722" yMax="636">
      <component glyphName="W" x="0" y="0" flags="0x1204"/>
      <component glyphName="dieresis" x="126" y="31" flags="0x1004"/>
    </TTGlyph>
    <TTGlyph name="Wgrave" xMin="19" yMin="-1" xMax="722" yMax="761">
      <component glyphName="W" x="0" y="0" flags="0x1204"/>
      <component glyphName="grave" x="93" y="164" flags="0x1004"/>
    </TTGlyph>
    <TTGlyph name="X" xMin="9" yMin="-1" xMax="498" yMax="439">
      <contour>
        <pt x="19" y="30" on="1"/>
        <pt x="19" y="46" on="0"/>
        <pt x="41" y="84" on="0"/>
        <pt x="72" y="123" on="0"/>
        <pt x="110" y="160" on="0"/>
        <pt x="141" y="190" on="0"/>
        <pt x="159" y="211" on="0"/>
        <pt x="156" y="214" on="1"/>
        <pt x="20" y="360" on="1"/>
        <pt x="19" y="361" on="0"/>
        <pt x="14" y="370" on="0"/>
        <pt x="11" y="379" on="0"/>
        <pt x="9" y="388" on="0"/>
        <pt x="9" y="389" on="1"/>
        <pt x="9" y="391" on="0"/>
        <pt x="14" y="397" on="0"/>
        <pt x="21" y="404" on="0"/>
        <pt x="27" y="409" on="0"/>
        <pt x="29" y="409" on="1"/>
        <pt x="31" y="409" on="0"/>
        <pt x="39" y="407" on="0"/>
        <pt x="49" y="405" on="0"/>
        <pt x="57" y="401" on="0"/>
        <pt x="59" y="399" on="1"/>
        <pt x="195" y="263" on="1"/>
        <pt x="214" y="263" on="1"/>
        <pt x="235" y="286" on="0"/>
        <pt x="293" y="346" on="0"/>
        <pt x="360" y="401" on="0"/>
        <pt x="430" y="439" on="0"/>
        <pt x="462" y="439" on="1"/>
        <pt x="467" y="439" on="0"/>
        <pt x="480" y="439" on="0"/>
        <pt x="490" y="434" on="0"/>
        <pt x="498" y="427" on="0"/>
        <pt x="498" y="419" on="1"/>
        <pt x="498" y="411" on="0"/>
        <pt x="494" y="398" on="0"/>
        <pt x="487" y="389" on="1"/>
        <pt x="476" y="386" on="0"/>
        <pt x="433" y="362" on="0"/>
        <pt x="381" y="330" on="0"/>
        <pt x="326" y="291" on="0"/>
        <pt x="281" y="254" on="0"/>
        <pt x="253" y="223" on="0"/>
        <pt x="253" y="214" on="1"/>
        <pt x="253" y="205" on="1"/>
        <pt x="253" y="200" on="0"/>
        <pt x="274" y="177" on="0"/>
        <pt x="305" y="149" on="0"/>
        <pt x="344" y="118" on="0"/>
        <pt x="382" y="93" on="0"/>
        <pt x="414" y="77" on="0"/>
        <pt x="424" y="77" on="1"/>
        <pt x="431" y="77" on="0"/>
        <pt x="439" y="81" on="0"/>
        <pt x="447" y="85" on="0"/>
        <pt x="456" y="88" on="0"/>
        <pt x="464" y="88" on="1"/>
        <pt x="479" y="88" on="0"/>
        <pt x="488" y="71" on="0"/>
        <pt x="488" y="57" on="1"/>
        <pt x="488" y="44" on="0"/>
        <pt x="473" y="29" on="0"/>
        <pt x="450" y="21" on="0"/>
        <pt x="425" y="19" on="0"/>
        <pt x="416" y="19" on="1"/>
        <pt x="399" y="19" on="0"/>
        <pt x="359" y="36" on="0"/>
        <pt x="317" y="62" on="0"/>
        <pt x="277" y="95" on="0"/>
        <pt x="242" y="128" on="0"/>
        <pt x="213" y="156" on="0"/>
        <pt x="205" y="166" on="1"/>
        <pt x="167" y="130" on="0"/>
        <pt x="98" y="62" on="0"/>
        <pt x="69" y="20" on="1"/>
        <pt x="64" y="12" on="0"/>
        <pt x="61" y="3" on="0"/>
        <pt x="59" y="0" on="0"/>
        <pt x="54" y="-1" on="0"/>
        <pt x="45" y="-1" on="1"/>
        <pt x="27" y="-1" on="0"/>
        <pt x="19" y="12" on="0"/>
      </contour>
    </TTGlyph>
    <TTGlyph name="Y" xMin="0" yMin="-1" xMax="409" yMax="605">
      <contour>
        <pt x="97" y="34" on="1"/>
        <pt x="97" y="37" on="0"/>
        <pt x="98" y="55" on="0"/>
        <pt x="98" y="59" on="1"/>
        <pt x="101" y="65" on="0"/>
        <pt x="116" y="94" on="0"/>
        <pt x="136" y="131" on="0"/>
        <pt x="157" y="171" on="0"/>
        <pt x="177" y="207" on="0"/>
        <pt x="192" y="236" on="0"/>
        <pt x="195" y="243" on="1"/>
        <pt x="196" y="246" on="0"/>
        <pt x="202" y="260" on="0"/>
        <pt x="208" y="275" on="0"/>
        <pt x="213" y="289" on="0"/>
        <pt x="214" y="292" on="1"/>
        <pt x="201" y="309" on="0"/>
        <pt x="160" y="340" on="0"/>
        <pt x="112" y="373" on="0"/>
        <pt x="64" y="409" on="0"/>
        <pt x="25" y="448" on="0"/>
        <pt x="0" y="491" on="0"/>
        <pt x="0" y="516" on="1"/>
        <pt x="0" y="535" on="0"/>
        <pt x="9" y="548" on="0"/>
        <pt x="24" y="548" on="1"/>
        <pt x="25" y="548" on="0"/>
        <pt x="37" y="547" on="0"/>
        <pt x="39" y="546" on="1"/>
        <pt x="48" y="531" on="0"/>
        <pt x="75" y="491" on="0"/>
        <pt x="107" y="447" on="0"/>
        <pt x="144" y="405" on="0"/>
        <pt x="182" y="371" on="0"/>
        <pt x="223" y="350" on="0"/>
        <pt x="243" y="350" on="1"/>
        <pt x="245" y="350" on="0"/>
        <pt x="252" y="350" on="0"/>
        <pt x="253" y="350" on="1"/>
        <pt x="257" y="357" on="0"/>
        <pt x="274" y="391" on="0"/>
        <pt x="292" y="428" on="0"/>
        <pt x="309" y="461" on="0"/>
        <pt x="312" y="467" on="1"/>
        <pt x="314" y="473" on="0"/>
        <pt x="322" y="500" on="0"/>
        <pt x="331" y="530" on="0"/>
        <pt x="343" y="562" on="0"/>
        <pt x="357" y="588" on="0"/>
        <pt x="374" y="605" on="0"/>
        <pt x="385" y="605" on="1"/>
        <pt x="386" y="604" on="1"/>
        <pt x="388" y="604" on="1"/>
        <pt x="388" y="603" on="0"/>
        <pt x="389" y="603" on="1"/>
        <pt x="391" y="603" on="0"/>
        <pt x="397" y="598" on="0"/>
        <pt x="404" y="592" on="0"/>
        <pt x="409" y="586" on="0"/>
        <pt x="409" y="585" on="1"/>
        <pt x="390" y="512" on="0"/>
        <pt x="336" y="370" on="0"/>
        <pt x="302" y="302" on="1"/>
        <pt x="302" y="282" on="1"/>
        <pt x="295" y="274" on="0"/>
        <pt x="263" y="225" on="0"/>
        <pt x="225" y="162" on="0"/>
        <pt x="184" y="94" on="0"/>
        <pt x="148" y="37" on="0"/>
        <pt x="122" y="-1" on="0"/>
        <pt x="118" y="-1" on="1"/>
        <pt x="101" y="-1" on="0"/>
        <pt x="97" y="19" on="0"/>
      </contour>
    </TTGlyph>
    <TTGlyph name="Yacute" xMin="0" yMin="-1" xMax="409" yMax="744">
      <component glyphName="Y" x="0" y="0" flags="0x1204"/>
      <component glyphName="acute" x="-72" y="164" flags="0x1004"/>
    </TTGlyph>
    <TTGlyph name="Ycircumflex" xMin="0" yMin="-1" xMax="409" yMax="857">
      <component glyphName="Y" x="0" y="0" flags="0x1204"/>
      <component glyphName="circumflex" x="54" y="164" flags="0x1004"/>
    </TTGlyph>
    <TTGlyph name="Ydieresis" xMin="0" yMin="-1" xMax="409" yMax="755">
      <component glyphName="Y" x="0" y="0" flags="0x1204"/>
      <component glyphName="dieresis" x="-58" y="150" flags="0x1004"/>
    </TTGlyph>
    <TTGlyph name="Ygrave" xMin="0" yMin="-1" xMax="420" yMax="841">
      <component glyphName="Y" x="0" y="0" flags="0x1204"/>
      <component glyphName="grave" x="-58" y="244" flags="0x1004"/>
    </TTGlyph>
    <TTGlyph name="Z" xMin="9" yMin="-1" xMax="712" yMax="479">
      <contour>
        <pt x="9" y="39" on="1"/>
        <pt x="9" y="41" on="0"/>
        <pt x="12" y="44" on="1"/>
        <pt x="18" y="53" on="1"/>
        <pt x="21" y="58" on="0"/>
        <pt x="27" y="65" on="0"/>
        <pt x="29" y="67" on="1"/>
        <pt x="273" y="292" on="1"/>
        <pt x="280" y="297" on="0"/>
        <pt x="304" y="312" on="0"/>
        <pt x="333" y="333" on="0"/>
        <pt x="363" y="357" on="0"/>
        <pt x="386" y="379" on="0"/>
        <pt x="401" y="398" on="0"/>
        <pt x="401" y="404" on="1"/>
        <pt x="401" y="405" on="0"/>
        <pt x="399" y="408" on="0"/>
        <pt x="399" y="409" on="1"/>
        <pt x="378" y="411" on="0"/>
        <pt x="309" y="408" on="0"/>
        <pt x="229" y="405" on="0"/>
        <pt x="150" y="407" on="0"/>
        <pt x="85" y="422" on="0"/>
        <pt x="45" y="451" on="0"/>
        <pt x="45" y="479" on="1"/>
        <pt x="48" y="479" on="0"/>
        <pt x="66" y="478" on="0"/>
        <pt x="86" y="478" on="0"/>
        <pt x="104" y="478" on="0"/>
        <pt x="107" y="478" on="1"/>
        <pt x="121" y="478" on="0"/>
        <pt x="181" y="476" on="0"/>
        <pt x="256" y="474" on="0"/>
        <pt x="339" y="472" on="0"/>
        <pt x="414" y="470" on="0"/>
        <pt x="473" y="467" on="0"/>
        <pt x="487" y="467" on="1"/>
        <pt x="500" y="462" on="0"/>
        <pt x="508" y="450" on="0"/>
        <pt x="508" y="439" on="1"/>
        <pt x="508" y="424" on="0"/>
        <pt x="480" y="386" on="0"/>
        <pt x="434" y="340" on="0"/>
        <pt x="374" y="288" on="0"/>
        <pt x="307" y="235" on="0"/>
        <pt x="238" y="182" on="0"/>
        <pt x="175" y="131" on="0"/>
        <pt x="123" y="86" on="0"/>
        <pt x="107" y="67" on="1"/>
        <pt x="136" y="67" on="1"/>
        <pt x="202" y="67" on="0"/>
        <pt x="336" y="80" on="0"/>
        <pt x="470" y="95" on="0"/>
        <pt x="603" y="107" on="0"/>
        <pt x="667" y="107" on="1"/>
        <pt x="712" y="107" on="0"/>
        <pt x="712" y="67" on="1"/>
        <pt x="712" y="59" on="0"/>
        <pt x="663" y="46" on="0"/>
        <pt x="581" y="34" on="0"/>
        <pt x="474" y="23" on="0"/>
        <pt x="360" y="14" on="0"/>
        <pt x="244" y="7" on="0"/>
        <pt x="145" y="2" on="0"/>
        <pt x="71" y="-1" on="0"/>
        <pt x="54" y="-1" on="1"/>
        <pt x="47" y="-1" on="1"/>
        <pt x="42" y="-1" on="0"/>
        <pt x="31" y="0" on="0"/>
        <pt x="26" y="0" on="1"/>
        <pt x="20" y="0" on="1"/>
        <pt x="19" y="2" on="0"/>
        <pt x="14" y="12" on="0"/>
        <pt x="11" y="25" on="0"/>
        <pt x="9" y="37" on="0"/>
      </contour>
    </TTGlyph>
    <TTGlyph name="Zacute" xMin="9" yMin="-1" xMax="712" yMax="708">
      <component glyphName="Z" x="0" y="0" flags="0x1204"/>
      <component glyphName="acute" x="21" y="128" flags="0x1004"/>
    </TTGlyph>
    <TTGlyph name="Zcaron" xMin="9" yMin="-1" xMax="712" yMax="706">
      <component glyphName="Z" x="0" y="0" flags="0x1204"/>
      <component glyphName="caron" x="139" y="127" flags="0x1004"/>
    </TTGlyph>
    <TTGlyph name="Zdotaccent" xMin="9" yMin="-1" xMax="712" yMax="689">
      <component glyphName="Z" x="0" y="0" flags="0x1204"/>
      <component glyphName="dotaccent" x="278" y="164" flags="0x1004"/>
    </TTGlyph>
    <TTGlyph name="a" xMin="8" yMin="-2" xMax="523" yMax="282">
      <contour>
        <pt x="297" y="49" on="1"/>
        <pt x="281" y="49" on="0"/>
        <pt x="246" y="40" on="0"/>
        <pt x="212" y="28" on="0"/>
        <pt x="175" y="19" on="0"/>
        <pt x="156" y="19" on="1"/>
        <pt x="127" y="19" on="0"/>
        <pt x="73" y="37" on="0"/>
        <pt x="32" y="73" on="0"/>
        <pt x="8" y="124" on="0"/>
        <pt x="8" y="156" on="1"/>
        <pt x="8" y="184" on="0"/>
        <pt x="43" y="232" on="0"/>
        <pt x="95" y="264" on="0"/>
        <pt x="155" y="282" on="0"/>
        <pt x="179" y="282" on="1"/>
        <pt x="190" y="282" on="0"/>
        <pt x="223" y="279" on="0"/>
        <pt x="262" y="272" on="0"/>
        <pt x="302" y="261" on="0"/>
        <pt x="335" y="243" on="0"/>
        <pt x="358" y="220" on="0"/>
        <pt x="360" y="205" on="1"/>
        <pt x="360" y="200" on="0"/>
        <pt x="356" y="175" on="0"/>
        <pt x="354" y="147" on="0"/>
        <pt x="351" y="122" on="0"/>
        <pt x="350" y="116" on="1"/>
        <pt x="350" y="110" on="1"/>
        <pt x="350" y="88" on="0"/>
        <pt x="370" y="66" on="0"/>
        <pt x="399" y="57" on="0"/>
        <pt x="415" y="57" on="1"/>
        <pt x="447" y="57" on="1"/>
        <pt x="462" y="57" on="0"/>
        <pt x="470" y="58" on="0"/>
        <pt x="473" y="58" on="0"/>
        <pt x="480" y="59" on="0"/>
        <pt x="496" y="59" on="1"/>
        <pt x="509" y="59" on="0"/>
        <pt x="523" y="49" on="0"/>
        <pt x="523" y="33" on="1"/>
        <pt x="523" y="16" on="0"/>
        <pt x="501" y="2" on="0"/>
        <pt x="471" y="-3" on="0"/>
        <pt x="441" y="-1" on="0"/>
        <pt x="433" y="-1" on="1"/>
        <pt x="410" y="-1" on="0"/>
        <pt x="369" y="15" on="0"/>
        <pt x="335" y="34" on="0"/>
        <pt x="307" y="49" on="0"/>
      </contour>
      <contour>
        <pt x="67" y="146" on="1"/>
        <pt x="67" y="122" on="0"/>
        <pt x="88" y="93" on="0"/>
        <pt x="119" y="80" on="0"/>
        <pt x="157" y="77" on="0"/>
        <pt x="175" y="77" on="1"/>
        <pt x="182" y="77" on="0"/>
        <pt x="215" y="79" on="0"/>
        <pt x="251" y="86" on="0"/>
        <pt x="280" y="98" on="0"/>
        <pt x="282" y="107" on="1"/>
        <pt x="302" y="185" on="1"/>
        <pt x="304" y="193" on="0"/>
        <pt x="292" y="205" on="0"/>
        <pt x="271" y="213" on="0"/>
        <pt x="246" y="219" on="0"/>
        <pt x="222" y="223" on="0"/>
        <pt x="203" y="225" on="0"/>
        <pt x="201" y="225" on="1"/>
        <pt x="183" y="225" on="0"/>
        <pt x="136" y="218" on="0"/>
        <pt x="95" y="201" on="0"/>
        <pt x="67" y="171" on="0"/>
      </contour>
    </TTGlyph>
    <TTGlyph name="aacute" xMin="8" yMin="-2" xMax="523" yMax="432">
      <component glyphName="a" x="0" y="0" flags="0x1204"/>
      <component glyphName="acute" x="-84" y="-148" flags="0x1004"/>
    </TTGlyph>
    <TTGlyph name="abreve" xMin="8" yMin="-2" xMax="523" yMax="446">
      <component glyphName="a" x="0" y="0" flags="0x1204"/>
      <component glyphName="breve" x="62" y="-136" flags="0x1004"/>
    </TTGlyph>
    <TTGlyph name="acircumflex" xMin="8" yMin="-2" xMax="523" yMax="624">
      <component glyphName="a" x="0" y="0" flags="0x1204"/>
      <component glyphName="circumflex" x="45" y="-69" flags="0x1004"/>
    </TTGlyph>
    <TTGlyph name="acute" xMin="144" yMin="457" xMax="422" yMax="580">
      <contour>
        <pt x="144" y="462" on="1"/>
        <pt x="144" y="475" on="0"/>
        <pt x="161" y="491" on="0"/>
        <pt x="172" y="496" on="1"/>
        <pt x="210" y="508" on="0"/>
        <pt x="260" y="518" on="0"/>
        <pt x="303" y="527" on="0"/>
        <pt x="352" y="545" on="0"/>
        <pt x="388" y="565" on="1"/>
        <pt x="390" y="567" on="0"/>
        <pt x="400" y="577" on="0"/>
        <pt x="402" y="579" on="1"/>
        <pt x="404" y="579" on="1"/>
        <pt x="404" y="579" on="0"/>
        <pt x="405" y="580" on="0"/>
        <pt x="406" y="580" on="1"/>
        <pt x="415" y="580" on="0"/>
        <pt x="422" y="563" on="0"/>
        <pt x="422" y="556" on="1"/>
        <pt x="422" y="543" on="0"/>
        <pt x="399" y="524" on="0"/>
        <pt x="388" y="519" on="1"/>
        <pt x="371" y="511" on="0"/>
        <pt x="356" y="504" on="0"/>
        <pt x="350" y="501" on="1"/>
        <pt x="343" y="499" on="0"/>
        <pt x="316" y="489" on="0"/>
        <pt x="279" y="477" on="0"/>
        <pt x="237" y="465" on="0"/>
        <pt x="195" y="458" on="0"/>
        <pt x="158" y="457" on="0"/>
      </contour>
    </TTGlyph>
    <TTGlyph name="adieresis" xMin="8" yMin="-2" xMax="523" yMax="431">
      <component glyphName="a" x="0" y="0" flags="0x1204"/>
      <component glyphName="dieresis" x="-44" y="-174" flags="0x1004"/>
    </TTGlyph>
    <TTGlyph name="ae" xMin="8" yMin="-2" xMax="781" yMax="360">
      <contour>
        <pt x="297" y="49" on="1"/>
        <pt x="281" y="49" on="0"/>
        <pt x="246" y="40" on="0"/>
        <pt x="212" y="28" on="0"/>
        <pt x="175" y="19" on="0"/>
        <pt x="156" y="19" on="1"/>
        <pt x="127" y="19" on="0"/>
        <pt x="73" y="37" on="0"/>
        <pt x="32" y="73" on="0"/>
        <pt x="8" y="124" on="0"/>
        <pt x="8" y="156" on="1"/>
        <pt x="8" y="184" on="0"/>
        <pt x="43" y="232" on="0"/>
        <pt x="95" y="264" on="0"/>
        <pt x="155" y="282" on="0"/>
        <pt x="179" y="282" on="1"/>
        <pt x="190" y="282" on="0"/>
        <pt x="223" y="279" on="0"/>
        <pt x="262" y="272" on="0"/>
        <pt x="302" y="261" on="0"/>
        <pt x="319" y="252" on="1"/>
        <pt x="331" y="246" on="0"/>
        <pt x="340" y="238" on="1"/>
        <pt x="343" y="245" on="0"/>
        <pt x="348" y="251" on="1"/>
        <pt x="366" y="283" on="0"/>
        <pt x="425" y="331" on="0"/>
        <pt x="496" y="360" on="0"/>
        <pt x="529" y="360" on="1"/>
        <pt x="554" y="360" on="0"/>
        <pt x="605" y="347" on="0"/>
        <pt x="645" y="320" on="0"/>
        <pt x="671" y="277" on="0"/>
        <pt x="671" y="249" on="1"/>
        <pt x="671" y="236" on="0"/>
        <pt x="666" y="221" on="0"/>
        <pt x="658" y="211" on="0"/>
        <pt x="643" y="201" on="0"/>
        <pt x="631" y="195" on="1"/>
        <pt x="626" y="193" on="0"/>
        <pt x="600" y="187" on="0"/>
        <pt x="569" y="179" on="0"/>
        <pt x="536" y="170" on="0"/>
        <pt x="506" y="162" on="0"/>
        <pt x="480" y="156" on="0"/>
        <pt x="475" y="156" on="1"/>
        <pt x="473" y="155" on="0"/>
        <pt x="452" y="152" on="0"/>
        <pt x="429" y="150" on="0"/>
        <pt x="409" y="146" on="0"/>
        <pt x="406" y="146" on="1"/>
        <pt x="404" y="144" on="0"/>
        <pt x="396" y="138" on="0"/>
        <pt x="396" y="136" on="1"/>
        <pt x="396" y="116" on="0"/>
        <pt x="419" y="90" on="0"/>
        <pt x="453" y="72" on="0"/>
        <pt x="496" y="62" on="0"/>
        <pt x="538" y="58" on="0"/>
        <pt x="575" y="57" on="0"/>
        <pt x="585" y="57" on="1"/>
        <pt x="635" y="57" on="0"/>
        <pt x="732" y="69" on="0"/>
        <pt x="781" y="69" on="1"/>
        <pt x="781" y="60" on="1"/>
        <pt x="781" y="54" on="0"/>
        <pt x="779" y="42" on="0"/>
        <pt x="773" y="31" on="0"/>
        <pt x="768" y="29" on="1"/>
        <pt x="729" y="21" on="0"/>
        <pt x="671" y="14" on="0"/>
        <pt x="618" y="9" on="0"/>
        <pt x="563" y="8" on="0"/>
        <pt x="529" y="8" on="1"/>
        <pt x="511" y="8" on="1"/>
        <pt x="500" y="2" on="0"/>
        <pt x="485" y="0" on="1"/>
        <pt x="471" y="-3" on="0"/>
        <pt x="441" y="-1" on="0"/>
        <pt x="433" y="-1" on="1"/>
        <pt x="410" y="-1" on="0"/>
        <pt x="369" y="15" on="0"/>
        <pt x="335" y="34" on="0"/>
        <pt x="307" y="49" on="0"/>
      </contour>
      <contour>
        <pt x="67" y="146" on="1"/>
        <pt x="67" y="122" on="0"/>
        <pt x="88" y="93" on="0"/>
        <pt x="119" y="80" on="0"/>
        <pt x="157" y="77" on="0"/>
        <pt x="175" y="77" on="1"/>
        <pt x="182" y="77" on="0"/>
        <pt x="215" y="79" on="0"/>
        <pt x="251" y="86" on="0"/>
        <pt x="280" y="98" on="0"/>
        <pt x="282" y="107" on="1"/>
        <pt x="302" y="185" on="1"/>
        <pt x="304" y="193" on="0"/>
        <pt x="292" y="205" on="0"/>
        <pt x="271" y="213" on="0"/>
        <pt x="246" y="219" on="0"/>
        <pt x="222" y="223" on="0"/>
        <pt x="203" y="225" on="0"/>
        <pt x="201" y="225" on="1"/>
        <pt x="183" y="225" on="0"/>
        <pt x="136" y="218" on="0"/>
        <pt x="95" y="201" on="0"/>
        <pt x="67" y="171" on="0"/>
      </contour>
      <contour>
        <pt x="552" y="304" on="1"/>
        <pt x="540" y="304" on="0"/>
        <pt x="507" y="298" on="0"/>
        <pt x="472" y="287" on="0"/>
        <pt x="438" y="270" on="0"/>
        <pt x="411" y="248" on="0"/>
        <pt x="394" y="220" on="0"/>
        <pt x="394" y="202" on="1"/>
        <pt x="434" y="202" on="1"/>
        <pt x="457" y="202" on="0"/>
        <pt x="503" y="207" on="0"/>
        <pt x="547" y="215" on="0"/>
        <pt x="581" y="235" on="0"/>
        <pt x="602" y="264" on="0"/>
        <pt x="602" y="286" on="1"/>
        <pt x="602" y="292" on="1"/>
        <pt x="592" y="302" on="1"/>
        <pt x="590" y="302" on="0"/>
        <pt x="578" y="303" on="0"/>
        <pt x="566" y="303" on="0"/>
        <pt x="554" y="304" on="0"/>
      </contour>
    </TTGlyph>
    <TTGlyph name="aeacute" xMin="8" yMin="-2" xMax="781" yMax="580">
      <component glyphName="ae" x="0" y="0" flags="0x1204"/>
      <component glyphName="acute" x="117" y="0" flags="0x1004"/>
    </TTGlyph>
    <TTGlyph name="agrave" xMin="8" yMin="-2" xMax="523" yMax="457">
      <component glyphName="a" x="0" y="0" flags="0x1204"/>
      <component glyphName="grave" x="25" y="-44" scalex="0.658142089844" scaley="0.839172363281" flags="0x1004"/>
    </TTGlyph>
    <TTGlyph name="amacron" xMin="8" yMin="-2" xMax="523" yMax="415">
      <component glyphName="a" x="0" y="0" flags="0x1204"/>
      <component glyphName="macron" x="8" y="-108" flags="0x1004"/>
    </TTGlyph>
    <TTGlyph name="ampersand" xMin="8" yMin="-1" xMax="683" yMax="683">
      <contour>
        <pt x="458" y="89" on="1"/>
        <pt x="457" y="89" on="0"/>
        <pt x="450" y="88" on="0"/>
        <pt x="448" y="88" on="1"/>
        <pt x="411" y="67" on="0"/>
        <pt x="350" y="37" on="0"/>
        <pt x="291" y="18" on="0"/>
        <pt x="226" y="8" on="0"/>
        <pt x="185" y="8" on="1"/>
        <pt x="181" y="8" on="0"/>
        <pt x="161" y="8" on="0"/>
        <pt x="139" y="8" on="0"/>
        <pt x="121" y="9" on="0"/>
        <pt x="116" y="9" on="1"/>
        <pt x="92" y="25" on="0"/>
        <pt x="52" y="49" on="0"/>
        <pt x="24" y="79" on="0"/>
        <pt x="8" y="122" on="0"/>
        <pt x="8" y="156" on="1"/>
        <pt x="8" y="195" on="0"/>
        <pt x="37" y="256" on="0"/>
        <pt x="82" y="309" on="0"/>
        <pt x="139" y="357" on="0"/>
        <pt x="195" y="403" on="0"/>
        <pt x="246" y="450" on="0"/>
        <pt x="263" y="478" on="1"/>
        <pt x="275" y="496" on="0"/>
        <pt x="297" y="541" on="0"/>
        <pt x="320" y="587" on="0"/>
        <pt x="348" y="630" on="0"/>
        <pt x="385" y="663" on="0"/>
        <pt x="432" y="683" on="0"/>
        <pt x="462" y="683" on="1"/>
        <pt x="475" y="683" on="0"/>
        <pt x="508" y="674" on="0"/>
        <pt x="536" y="657" on="0"/>
        <pt x="555" y="632" on="0"/>
        <pt x="555" y="614" on="1"/>
        <pt x="555" y="592" on="0"/>
        <pt x="527" y="554" on="0"/>
        <pt x="483" y="519" on="0"/>
        <pt x="429" y="489" on="0"/>
        <pt x="377" y="462" on="0"/>
        <pt x="333" y="439" on="0"/>
        <pt x="322" y="429" on="1"/>
        <pt x="322" y="416" on="0"/>
        <pt x="334" y="371" on="0"/>
        <pt x="353" y="317" on="0"/>
        <pt x="377" y="260" on="0"/>
        <pt x="406" y="213" on="0"/>
        <pt x="437" y="184" on="0"/>
        <pt x="453" y="184" on="1"/>
        <pt x="455" y="184" on="0"/>
        <pt x="456" y="184" on="1"/>
        <pt x="457" y="184" on="0"/>
        <pt x="458" y="185" on="1"/>
        <pt x="633" y="350" on="1"/>
        <pt x="634" y="350" on="0"/>
        <pt x="641" y="353" on="0"/>
        <pt x="643" y="353" on="1"/>
        <pt x="650" y="353" on="0"/>
        <pt x="664" y="345" on="0"/>
        <pt x="676" y="335" on="0"/>
        <pt x="683" y="320" on="0"/>
        <pt x="683" y="312" on="1"/>
        <pt x="683" y="304" on="0"/>
        <pt x="676" y="294" on="0"/>
        <pt x="664" y="286" on="0"/>
        <pt x="650" y="283" on="0"/>
        <pt x="643" y="282" on="1"/>
        <pt x="516" y="156" on="1"/>
        <pt x="516" y="156" on="0"/>
        <pt x="515" y="153" on="1"/>
        <pt x="512" y="147" on="1"/>
        <pt x="511" y="144" on="0"/>
        <pt x="507" y="139" on="0"/>
        <pt x="507" y="136" on="1"/>
        <pt x="507" y="127" on="1"/>
        <pt x="519" y="116" on="0"/>
        <pt x="541" y="90" on="0"/>
        <pt x="560" y="65" on="0"/>
        <pt x="582" y="39" on="0"/>
        <pt x="595" y="29" on="1"/>
        <pt x="586" y="14" on="0"/>
        <pt x="569" y="-1" on="0"/>
        <pt x="555" y="-1" on="1"/>
        <pt x="554" y="-1" on="0"/>
        <pt x="547" y="0" on="0"/>
        <pt x="546" y="0" on="1"/>
        <pt x="541" y="6" on="0"/>
        <pt x="520" y="37" on="0"/>
        <pt x="495" y="66" on="0"/>
        <pt x="468" y="89" on="0"/>
      </contour>
      <contour>
        <pt x="77" y="98" on="1"/>
        <pt x="90" y="84" on="0"/>
        <pt x="126" y="71" on="0"/>
        <pt x="163" y="66" on="0"/>
        <pt x="201" y="67" on="0"/>
        <pt x="218" y="67" on="1"/>
        <pt x="240" y="67" on="0"/>
        <pt x="295" y="73" on="0"/>
        <pt x="350" y="89" on="0"/>
        <pt x="396" y="116" on="0"/>
        <pt x="409" y="136" on="1"/>
        <pt x="388" y="158" on="0"/>
        <pt x="340" y="216" on="0"/>
        <pt x="299" y="280" on="0"/>
        <pt x="272" y="348" on="0"/>
        <pt x="273" y="380" on="1"/>
        <pt x="271" y="380" on="0"/>
        <pt x="264" y="381" on="0"/>
        <pt x="263" y="381" on="1"/>
        <pt x="243" y="381" on="0"/>
        <pt x="199" y="355" on="0"/>
        <pt x="157" y="312" on="0"/>
        <pt x="120" y="259" on="0"/>
        <pt x="92" y="207" on="0"/>
        <pt x="75" y="157" on="0"/>
        <pt x="75" y="141" on="1"/>
        <pt x="75" y="139" on="0"/>
        <pt x="76" y="126" on="0"/>
        <pt x="76" y="113" on="0"/>
        <pt x="77" y="100" on="0"/>
      </contour>
      <contour>
        <pt x="448" y="623" on="1"/>
        <pt x="445" y="621" on="0"/>
        <pt x="427" y="610" on="0"/>
        <pt x="402" y="593" on="0"/>
        <pt x="376" y="574" on="0"/>
        <pt x="354" y="554" on="0"/>
        <pt x="340" y="534" on="0"/>
        <pt x="340" y="526" on="1"/>
        <pt x="340" y="524" on="0"/>
        <pt x="341" y="518" on="0"/>
        <pt x="341" y="516" on="1"/>
        <pt x="356" y="526" on="0"/>
        <pt x="397" y="547" on="0"/>
        <pt x="439" y="570" on="0"/>
        <pt x="475" y="598" on="0"/>
        <pt x="487" y="614" on="1"/>
        <pt x="479" y="620" on="0"/>
        <pt x="467" y="625" on="0"/>
        <pt x="458" y="625" on="1"/>
        <pt x="457" y="625" on="0"/>
        <pt x="450" y="623" on="0"/>
      </contour>
    </TTGlyph>
    <TTGlyph name="aogonek" xMin="8" yMin="-136" xMax="523" yMax="282">
      <contour>
        <pt x="303" y="-14" on="1"/>
        <pt x="327" y="13" on="0"/>
        <pt x="345" y="28" on="1"/>
        <pt x="331" y="35" on="0"/>
        <pt x="320" y="42" on="1"/>
        <pt x="307" y="49" on="0"/>
        <pt x="297" y="49" on="1"/>
        <pt x="281" y="49" on="0"/>
        <pt x="246" y="40" on="0"/>
        <pt x="212" y="28" on="0"/>
        <pt x="175" y="19" on="0"/>
        <pt x="156" y="19" on="1"/>
        <pt x="127" y="19" on="0"/>
        <pt x="73" y="37" on="0"/>
        <pt x="32" y="73" on="0"/>
        <pt x="8" y="124" on="0"/>
        <pt x="8" y="156" on="1"/>
        <pt x="8" y="184" on="0"/>
        <pt x="43" y="232" on="0"/>
        <pt x="95" y="264" on="0"/>
        <pt x="155" y="282" on="0"/>
        <pt x="179" y="282" on="1"/>
        <pt x="190" y="282" on="0"/>
        <pt x="223" y="279" on="0"/>
        <pt x="262" y="272" on="0"/>
        <pt x="302" y="261" on="0"/>
        <pt x="335" y="243" on="0"/>
        <pt x="358" y="220" on="0"/>
        <pt x="360" y="205" on="1"/>
        <pt x="360" y="200" on="0"/>
        <pt x="356" y="175" on="0"/>
        <pt x="354" y="147" on="0"/>
        <pt x="351" y="122" on="0"/>
        <pt x="350" y="116" on="1"/>
        <pt x="350" y="110" on="1"/>
        <pt x="350" y="88" on="0"/>
        <pt x="370" y="66" on="0"/>
        <pt x="399" y="57" on="0"/>
        <pt x="415" y="57" on="1"/>
        <pt x="447" y="57" on="1"/>
        <pt x="462" y="57" on="0"/>
        <pt x="470" y="58" on="0"/>
        <pt x="473" y="58" on="0"/>
        <pt x="480" y="59" on="0"/>
        <pt x="496" y="59" on="1"/>
        <pt x="509" y="59" on="0"/>
        <pt x="523" y="49" on="0"/>
        <pt x="523" y="33" on="1"/>
        <pt x="523" y="16" on="0"/>
        <pt x="501" y="2" on="0"/>
        <pt x="471" y="-3" on="0"/>
        <pt x="441" y="-1" on="0"/>
        <pt x="433" y="-1" on="1"/>
        <pt x="410" y="-1" on="0"/>
        <pt x="389" y="7" on="1"/>
        <pt x="384" y="8" on="0"/>
        <pt x="380" y="11" on="1"/>
        <pt x="375" y="3" on="0"/>
        <pt x="369" y="-4" on="1"/>
        <pt x="357" y="-20" on="0"/>
        <pt x="341" y="-33" on="1"/>
        <pt x="382" y="-65" on="0"/>
        <pt x="420" y="-106" on="0"/>
        <pt x="427" y="-132" on="0"/>
        <pt x="409" y="-139" on="0"/>
        <pt x="378" y="-133" on="0"/>
        <pt x="343" y="-112" on="0"/>
        <pt x="314" y="-81" on="0"/>
        <pt x="298" y="-38" on="0"/>
      </contour>
      <contour>
        <pt x="67" y="146" on="1"/>
        <pt x="67" y="122" on="0"/>
        <pt x="88" y="93" on="0"/>
        <pt x="119" y="80" on="0"/>
        <pt x="157" y="77" on="0"/>
        <pt x="175" y="77" on="1"/>
        <pt x="182" y="77" on="0"/>
        <pt x="215" y="79" on="0"/>
        <pt x="251" y="86" on="0"/>
        <pt x="280" y="98" on="0"/>
        <pt x="282" y="107" on="1"/>
        <pt x="302" y="185" on="1"/>
        <pt x="304" y="193" on="0"/>
        <pt x="292" y="205" on="0"/>
        <pt x="271" y="213" on="0"/>
        <pt x="246" y="219" on="0"/>
        <pt x="222" y="223" on="0"/>
        <pt x="203" y="225" on="0"/>
        <pt x="201" y="225" on="1"/>
        <pt x="183" y="225" on="0"/>
        <pt x="136" y="218" on="0"/>
        <pt x="95" y="201" on="0"/>
        <pt x="67" y="171" on="0"/>
      </contour>
    </TTGlyph>
    <TTGlyph name="aring" xMin="8" yMin="-2" xMax="523" yMax="501">
      <contour>
        <pt x="96" y="360" on="1"/>
        <pt x="96" y="383" on="0"/>
        <pt x="110" y="433" on="0"/>
        <pt x="139" y="473" on="0"/>
        <pt x="178" y="501" on="0"/>
        <pt x="202" y="501" on="1"/>
        <pt x="236" y="501" on="0"/>
        <pt x="285" y="485" on="0"/>
        <pt x="314" y="453" on="0"/>
        <pt x="327" y="405" on="0"/>
        <pt x="327" y="371" on="1"/>
        <pt x="327" y="364" on="1"/>
        <pt x="327" y="358" on="0"/>
        <pt x="327" y="345" on="0"/>
        <pt x="327" y="340" on="1"/>
        <pt x="327" y="331" on="1"/>
        <pt x="322" y="314" on="0"/>
        <pt x="297" y="292" on="0"/>
        <pt x="265" y="281" on="0"/>
        <pt x="248" y="279" on="1"/>
        <pt x="239" y="278" on="0"/>
        <pt x="230" y="277" on="1"/>
        <pt x="242" y="275" on="1"/>
        <pt x="262" y="272" on="0"/>
        <pt x="302" y="261" on="0"/>
        <pt x="335" y="243" on="0"/>
        <pt x="358" y="220" on="0"/>
        <pt x="360" y="205" on="1"/>
        <pt x="360" y="200" on="0"/>
        <pt x="356" y="175" on="0"/>
        <pt x="354" y="147" on="0"/>
        <pt x="351" y="122" on="0"/>
        <pt x="350" y="116" on="1"/>
        <pt x="350" y="110" on="1"/>
        <pt x="350" y="88" on="0"/>
        <pt x="370" y="66" on="0"/>
        <pt x="399" y="57" on="0"/>
        <pt x="415" y="57" on="1"/>
        <pt x="447" y="57" on="1"/>
        <pt x="462" y="57" on="0"/>
        <pt x="470" y="58" on="0"/>
        <pt x="473" y="58" on="0"/>
        <pt x="480" y="59" on="0"/>
        <pt x="496" y="59" on="1"/>
        <pt x="509" y="59" on="0"/>
        <pt x="523" y="49" on="0"/>
        <pt x="523" y="33" on="1"/>
        <pt x="523" y="16" on="0"/>
        <pt x="501" y="2" on="0"/>
        <pt x="471" y="-3" on="0"/>
        <pt x="441" y="-1" on="0"/>
        <pt x="433" y="-1" on="1"/>
        <pt x="410" y="-1" on="0"/>
        <pt x="369" y="15" on="0"/>
        <pt x="335" y="34" on="0"/>
        <pt x="307" y="49" on="0"/>
        <pt x="297" y="49" on="1"/>
        <pt x="281" y="49" on="0"/>
        <pt x="246" y="40" on="0"/>
        <pt x="212" y="28" on="0"/>
        <pt x="175" y="19" on="0"/>
        <pt x="156" y="19" on="1"/>
        <pt x="127" y="19" on="0"/>
        <pt x="73" y="37" on="0"/>
        <pt x="32" y="73" on="0"/>
        <pt x="8" y="124" on="0"/>
        <pt x="8" y="156" on="1"/>
        <pt x="8" y="184" on="0"/>
        <pt x="43" y="232" on="0"/>
        <pt x="95" y="264" on="0"/>
        <pt x="125" y="274" on="1"/>
        <pt x="146" y="280" on="0"/>
        <pt x="164" y="281" on="1"/>
        <pt x="150" y="285" on="0"/>
        <pt x="138" y="291" on="1"/>
        <pt x="120" y="299" on="0"/>
        <pt x="96" y="332" on="0"/>
      </contour>
      <contour>
        <pt x="67" y="146" on="1"/>
        <pt x="67" y="122" on="0"/>
        <pt x="88" y="93" on="0"/>
        <pt x="119" y="80" on="0"/>
        <pt x="157" y="77" on="0"/>
        <pt x="175" y="77" on="1"/>
        <pt x="182" y="77" on="0"/>
        <pt x="215" y="79" on="0"/>
        <pt x="251" y="86" on="0"/>
        <pt x="280" y="98" on="0"/>
        <pt x="282" y="107" on="1"/>
        <pt x="302" y="185" on="1"/>
        <pt x="304" y="193" on="0"/>
        <pt x="292" y="205" on="0"/>
        <pt x="271" y="213" on="0"/>
        <pt x="246" y="219" on="0"/>
        <pt x="222" y="223" on="0"/>
        <pt x="203" y="225" on="0"/>
        <pt x="201" y="225" on="1"/>
        <pt x="183" y="225" on="0"/>
        <pt x="136" y="218" on="0"/>
        <pt x="95" y="201" on="0"/>
        <pt x="67" y="171" on="0"/>
      </contour>
      <contour>
        <pt x="127" y="368" on="1"/>
        <pt x="127" y="350" on="0"/>
        <pt x="146" y="327" on="0"/>
        <pt x="174" y="314" on="0"/>
        <pt x="205" y="310" on="0"/>
        <pt x="217" y="310" on="1"/>
        <pt x="228" y="310" on="0"/>
        <pt x="245" y="311" on="0"/>
        <pt x="261" y="314" on="0"/>
        <pt x="279" y="324" on="0"/>
        <pt x="291" y="331" on="1"/>
        <pt x="297" y="343" on="0"/>
        <pt x="297" y="364" on="0"/>
        <pt x="297" y="375" on="1"/>
        <pt x="297" y="399" on="0"/>
        <pt x="281" y="434" on="0"/>
        <pt x="253" y="457" on="0"/>
        <pt x="216" y="464" on="0"/>
        <pt x="193" y="459" on="1"/>
        <pt x="184" y="457" on="0"/>
        <pt x="160" y="436" on="0"/>
        <pt x="140" y="409" on="0"/>
        <pt x="127" y="379" on="0"/>
      </contour>
    </TTGlyph>
    <TTGlyph name="asciicircum" xMin="8" yMin="409" xMax="302" yMax="693">
      <contour>
        <pt x="8" y="448" on="1"/>
        <pt x="8" y="465" on="0"/>
        <pt x="20" y="515" on="0"/>
        <pt x="39" y="569" on="0"/>
        <pt x="67" y="623" on="0"/>
        <pt x="100" y="666" on="0"/>
        <pt x="138" y="692" on="0"/>
        <pt x="158" y="692" on="1"/>
        <pt x="164" y="692" on="0"/>
        <pt x="178" y="693" on="0"/>
        <pt x="192" y="689" on="0"/>
        <pt x="202" y="682" on="0"/>
        <pt x="205" y="672" on="1"/>
        <pt x="210" y="643" on="0"/>
        <pt x="229" y="584" on="0"/>
        <pt x="256" y="527" on="0"/>
        <pt x="286" y="473" on="0"/>
        <pt x="302" y="448" on="1"/>
        <pt x="292" y="433" on="0"/>
        <pt x="278" y="417" on="0"/>
        <pt x="264" y="417" on="1"/>
        <pt x="251" y="417" on="0"/>
        <pt x="227" y="447" on="0"/>
        <pt x="207" y="490" on="0"/>
        <pt x="188" y="541" on="0"/>
        <pt x="172" y="586" on="0"/>
        <pt x="157" y="615" on="0"/>
        <pt x="151" y="615" on="1"/>
        <pt x="133" y="615" on="0"/>
        <pt x="112" y="585" on="0"/>
        <pt x="99" y="539" on="0"/>
        <pt x="88" y="485" on="0"/>
        <pt x="74" y="439" on="0"/>
        <pt x="49" y="409" on="0"/>
        <pt x="29" y="409" on="1"/>
        <pt x="24" y="409" on="0"/>
        <pt x="17" y="419" on="0"/>
        <pt x="11" y="432" on="0"/>
        <pt x="8" y="445" on="0"/>
      </contour>
    </TTGlyph>
    <TTGlyph name="asciitilde" xMin="19" yMin="429" xMax="467" yMax="586">
      <contour>
        <pt x="151" y="526" on="1"/>
        <pt x="134" y="526" on="0"/>
        <pt x="112" y="513" on="0"/>
        <pt x="95" y="493" on="0"/>
        <pt x="82" y="470" on="0"/>
        <pt x="69" y="450" on="0"/>
        <pt x="52" y="437" on="0"/>
        <pt x="39" y="437" on="1"/>
        <pt x="26" y="437" on="0"/>
        <pt x="19" y="450" on="0"/>
        <pt x="19" y="462" on="1"/>
        <pt x="19" y="487" on="0"/>
        <pt x="47" y="531" on="0"/>
        <pt x="88" y="565" on="0"/>
        <pt x="138" y="586" on="0"/>
        <pt x="160" y="586" on="1"/>
        <pt x="178" y="586" on="0"/>
        <pt x="206" y="572" on="0"/>
        <pt x="229" y="552" on="0"/>
        <pt x="251" y="529" on="0"/>
        <pt x="276" y="509" on="0"/>
        <pt x="307" y="496" on="0"/>
        <pt x="326" y="496" on="1"/>
        <pt x="344" y="496" on="0"/>
        <pt x="371" y="512" on="0"/>
        <pt x="394" y="531" on="0"/>
        <pt x="417" y="547" on="0"/>
        <pt x="433" y="547" on="1"/>
        <pt x="450" y="547" on="0"/>
        <pt x="462" y="532" on="0"/>
        <pt x="467" y="516" on="1"/>
        <pt x="461" y="508" on="0"/>
        <pt x="434" y="479" on="0"/>
        <pt x="401" y="450" on="0"/>
        <pt x="366" y="429" on="0"/>
        <pt x="352" y="429" on="1"/>
        <pt x="326" y="429" on="0"/>
        <pt x="282" y="444" on="0"/>
        <pt x="244" y="465" on="0"/>
        <pt x="212" y="490" on="0"/>
        <pt x="184" y="511" on="0"/>
        <pt x="161" y="526" on="0"/>
      </contour>
    </TTGlyph>
    <TTGlyph name="asterisk" xMin="19" yMin="425" xMax="381" yMax="781">
      <contour>
        <pt x="156" y="536" on="1"/>
        <pt x="155" y="536" on="0"/>
        <pt x="152" y="537" on="0"/>
        <pt x="151" y="537" on="1"/>
        <pt x="139" y="537" on="0"/>
        <pt x="114" y="517" on="0"/>
        <pt x="88" y="493" on="0"/>
        <pt x="58" y="473" on="0"/>
        <pt x="39" y="473" on="1"/>
        <pt x="39" y="503" on="0"/>
        <pt x="70" y="551" on="0"/>
        <pt x="98" y="565" on="1"/>
        <pt x="98" y="577" on="1"/>
        <pt x="91" y="577" on="0"/>
        <pt x="65" y="574" on="0"/>
        <pt x="39" y="575" on="0"/>
        <pt x="19" y="584" on="0"/>
        <pt x="19" y="598" on="1"/>
        <pt x="19" y="604" on="1"/>
        <pt x="19" y="609" on="0"/>
        <pt x="21" y="620" on="0"/>
        <pt x="25" y="628" on="0"/>
        <pt x="29" y="628" on="1"/>
        <pt x="116" y="628" on="1"/>
        <pt x="88" y="646" on="1"/>
        <pt x="76" y="654" on="0"/>
        <pt x="57" y="671" on="0"/>
        <pt x="48" y="690" on="0"/>
        <pt x="48" y="705" on="1"/>
        <pt x="48" y="713" on="0"/>
        <pt x="52" y="732" on="0"/>
        <pt x="63" y="732" on="1"/>
        <pt x="69" y="732" on="0"/>
        <pt x="87" y="721" on="0"/>
        <pt x="105" y="707" on="0"/>
        <pt x="122" y="694" on="0"/>
        <pt x="127" y="692" on="1"/>
        <pt x="127" y="691" on="0"/>
        <pt x="128" y="691" on="1"/>
        <pt x="130" y="690" on="0"/>
        <pt x="132" y="690" on="1"/>
        <pt x="133" y="690" on="0"/>
        <pt x="136" y="692" on="0"/>
        <pt x="136" y="692" on="1"/>
        <pt x="137" y="700" on="0"/>
        <pt x="139" y="717" on="0"/>
        <pt x="146" y="731" on="0"/>
        <pt x="156" y="741" on="0"/>
        <pt x="166" y="741" on="1"/>
        <pt x="180" y="741" on="0"/>
        <pt x="188" y="722" on="0"/>
        <pt x="190" y="699" on="0"/>
        <pt x="194" y="677" on="0"/>
        <pt x="205" y="672" on="1"/>
        <pt x="218" y="682" on="0"/>
        <pt x="242" y="718" on="0"/>
        <pt x="270" y="754" on="0"/>
        <pt x="303" y="781" on="0"/>
        <pt x="322" y="781" on="1"/>
        <pt x="323" y="781" on="0"/>
        <pt x="330" y="779" on="0"/>
        <pt x="331" y="779" on="1"/>
        <pt x="327" y="762" on="0"/>
        <pt x="310" y="728" on="0"/>
        <pt x="288" y="694" on="0"/>
        <pt x="263" y="665" on="0"/>
        <pt x="253" y="653" on="1"/>
        <pt x="262" y="649" on="0"/>
        <pt x="275" y="646" on="0"/>
        <pt x="287" y="643" on="0"/>
        <pt x="299" y="643" on="0"/>
        <pt x="307" y="643" on="1"/>
        <pt x="315" y="643" on="0"/>
        <pt x="330" y="643" on="0"/>
        <pt x="344" y="646" on="0"/>
        <pt x="360" y="649" on="0"/>
        <pt x="371" y="653" on="1"/>
        <pt x="380" y="651" on="0"/>
        <pt x="381" y="633" on="0"/>
        <pt x="381" y="626" on="1"/>
        <pt x="381" y="610" on="0"/>
        <pt x="367" y="595" on="0"/>
        <pt x="342" y="595" on="1"/>
        <pt x="342" y="585" on="1"/>
        <pt x="342" y="584" on="0"/>
        <pt x="345" y="575" on="0"/>
        <pt x="348" y="565" on="0"/>
        <pt x="350" y="557" on="0"/>
        <pt x="350" y="555" on="1"/>
        <pt x="350" y="551" on="1"/>
        <pt x="350" y="541" on="0"/>
        <pt x="338" y="535" on="0"/>
        <pt x="331" y="535" on="1"/>
        <pt x="329" y="535" on="0"/>
        <pt x="322" y="536" on="0"/>
        <pt x="322" y="536" on="1"/>
        <pt x="224" y="585" on="1"/>
        <pt x="220" y="585" on="1"/>
        <pt x="219" y="586" on="1"/>
        <pt x="218" y="586" on="0"/>
        <pt x="218" y="585" on="0"/>
        <pt x="217" y="585" on="1"/>
        <pt x="215" y="585" on="1"/>
        <pt x="210" y="580" on="1"/>
        <pt x="206" y="576" on="0"/>
        <pt x="205" y="575" on="1"/>
        <pt x="205" y="569" on="1"/>
        <pt x="205" y="558" on="0"/>
        <pt x="211" y="535" on="0"/>
        <pt x="218" y="512" on="0"/>
        <pt x="224" y="489" on="0"/>
        <pt x="224" y="478" on="1"/>
        <pt x="224" y="451" on="0"/>
        <pt x="205" y="425" on="0"/>
        <pt x="180" y="425" on="1"/>
        <pt x="180" y="455" on="0"/>
        <pt x="169" y="508" on="0"/>
      </contour>
    </TTGlyph>
    <TTGlyph name="at" xMin="19" yMin="-1" xMax="995" yMax="702">
      <contour>
        <pt x="19" y="336" on="1"/>
        <pt x="19" y="406" on="0"/>
        <pt x="70" y="516" on="0"/>
        <pt x="156" y="597" on="0"/>
        <pt x="269" y="653" on="0"/>
        <pt x="393" y="687" on="0"/>
        <pt x="522" y="702" on="0"/>
        <pt x="581" y="702" on="1"/>
        <pt x="621" y="702" on="0"/>
        <pt x="715" y="692" on="0"/>
        <pt x="807" y="669" on="0"/>
        <pt x="891" y="630" on="0"/>
        <pt x="956" y="572" on="0"/>
        <pt x="995" y="494" on="0"/>
        <pt x="995" y="443" on="1"/>
        <pt x="995" y="394" on="0"/>
        <pt x="966" y="332" on="0"/>
        <pt x="916" y="289" on="0"/>
        <pt x="853" y="255" on="0"/>
        <pt x="819" y="234" on="1"/>
        <pt x="807" y="234" on="1"/>
        <pt x="799" y="234" on="0"/>
        <pt x="779" y="233" on="0"/>
        <pt x="771" y="233" on="1"/>
        <pt x="760" y="233" on="1"/>
        <pt x="738" y="233" on="0"/>
        <pt x="698" y="246" on="0"/>
        <pt x="664" y="261" on="0"/>
        <pt x="636" y="274" on="0"/>
        <pt x="625" y="274" on="1"/>
        <pt x="608" y="274" on="0"/>
        <pt x="575" y="263" on="0"/>
        <pt x="540" y="252" on="0"/>
        <pt x="505" y="243" on="0"/>
        <pt x="486" y="243" on="1"/>
        <pt x="462" y="243" on="0"/>
        <pt x="419" y="256" on="0"/>
        <pt x="388" y="281" on="0"/>
        <pt x="370" y="320" on="0"/>
        <pt x="370" y="346" on="1"/>
        <pt x="370" y="368" on="0"/>
        <pt x="389" y="406" on="0"/>
        <pt x="422" y="435" on="0"/>
        <pt x="464" y="457" on="0"/>
        <pt x="508" y="472" on="0"/>
        <pt x="552" y="479" on="0"/>
        <pt x="569" y="479" on="1"/>
        <pt x="573" y="479" on="0"/>
        <pt x="592" y="478" on="0"/>
        <pt x="595" y="478" on="1"/>
        <pt x="623" y="463" on="0"/>
        <pt x="649" y="424" on="0"/>
        <pt x="661" y="383" on="0"/>
        <pt x="669" y="343" on="0"/>
        <pt x="687" y="311" on="0"/>
        <pt x="724" y="292" on="0"/>
        <pt x="761" y="292" on="1"/>
        <pt x="798" y="292" on="0"/>
        <pt x="862" y="309" on="0"/>
        <pt x="909" y="345" on="0"/>
        <pt x="936" y="401" on="0"/>
        <pt x="936" y="439" on="1"/>
        <pt x="936" y="481" on="0"/>
        <pt x="901" y="547" on="0"/>
        <pt x="841" y="594" on="0"/>
        <pt x="766" y="626" on="0"/>
        <pt x="684" y="645" on="0"/>
        <pt x="603" y="654" on="0"/>
        <pt x="569" y="654" on="1"/>
        <pt x="520" y="654" on="0"/>
        <pt x="409" y="639" on="0"/>
        <pt x="300" y="608" on="0"/>
        <pt x="200" y="557" on="0"/>
        <pt x="123" y="485" on="0"/>
        <pt x="77" y="389" on="0"/>
        <pt x="77" y="329" on="1"/>
        <pt x="77" y="270" on="0"/>
        <pt x="131" y="182" on="0"/>
        <pt x="218" y="120" on="0"/>
        <pt x="329" y="80" on="0"/>
        <pt x="442" y="57" on="0"/>
        <pt x="548" y="48" on="0"/>
        <pt x="587" y="48" on="1"/>
        <pt x="641" y="48" on="0"/>
        <pt x="748" y="59" on="0"/>
        <pt x="802" y="59" on="1"/>
        <pt x="806" y="59" on="0"/>
        <pt x="817" y="59" on="0"/>
        <pt x="826" y="56" on="0"/>
        <pt x="830" y="48" on="0"/>
        <pt x="828" y="39" on="1"/>
        <pt x="825" y="29" on="0"/>
        <pt x="786" y="14" on="0"/>
        <pt x="728" y="6" on="0"/>
        <pt x="661" y="1" on="0"/>
        <pt x="600" y="-1" on="0"/>
        <pt x="576" y="-1" on="1"/>
        <pt x="544" y="-1" on="1"/>
        <pt x="492" y="-1" on="0"/>
        <pt x="373" y="12" on="0"/>
        <pt x="256" y="42" on="0"/>
        <pt x="149" y="93" on="0"/>
        <pt x="67" y="167" on="0"/>
        <pt x="19" y="269" on="0"/>
      </contour>
      <contour>
        <pt x="428" y="341" on="1"/>
        <pt x="428" y="327" on="0"/>
        <pt x="439" y="312" on="0"/>
        <pt x="456" y="303" on="0"/>
        <pt x="478" y="301" on="0"/>
        <pt x="488" y="301" on="1"/>
        <pt x="499" y="301" on="0"/>
        <pt x="535" y="304" on="0"/>
        <pt x="569" y="314" on="0"/>
        <pt x="595" y="331" on="0"/>
        <pt x="595" y="344" on="1"/>
        <pt x="595" y="355" on="0"/>
        <pt x="592" y="381" on="0"/>
        <pt x="585" y="404" on="0"/>
        <pt x="569" y="419" on="0"/>
        <pt x="557" y="419" on="1"/>
        <pt x="541" y="419" on="0"/>
        <pt x="498" y="409" on="0"/>
        <pt x="456" y="388" on="0"/>
        <pt x="428" y="360" on="0"/>
      </contour>
    </TTGlyph>
    <TTGlyph name="atilde" xMin="8" yMin="-2" xMax="523" yMax="478">
      <component glyphName="a" x="0" y="0" flags="0x1204"/>
      <component glyphName="tilde" x="4" y="-108" flags="0x1004"/>
    </TTGlyph>
    <TTGlyph name="b" xMin="19" yMin="-1" xMax="448" yMax="429">
      <contour>
        <pt x="88" y="9" on="1"/>
        <pt x="80" y="14" on="0"/>
        <pt x="70" y="31" on="0"/>
        <pt x="64" y="51" on="0"/>
        <pt x="59" y="71" on="0"/>
        <pt x="59" y="77" on="1"/>
        <pt x="57" y="88" on="0"/>
        <pt x="51" y="134" on="0"/>
        <pt x="43" y="195" on="0"/>
        <pt x="35" y="263" on="0"/>
        <pt x="27" y="326" on="0"/>
        <pt x="21" y="376" on="0"/>
        <pt x="20" y="389" on="1"/>
        <pt x="20" y="391" on="0"/>
        <pt x="19" y="403" on="0"/>
        <pt x="19" y="405" on="1"/>
        <pt x="19" y="420" on="0"/>
        <pt x="31" y="429" on="0"/>
        <pt x="46" y="429" on="1"/>
        <pt x="64" y="429" on="0"/>
        <pt x="80" y="402" on="0"/>
        <pt x="87" y="360" on="0"/>
        <pt x="88" y="312" on="0"/>
        <pt x="93" y="270" on="0"/>
        <pt x="105" y="243" on="0"/>
        <pt x="120" y="243" on="1"/>
        <pt x="142" y="243" on="0"/>
        <pt x="186" y="249" on="0"/>
        <pt x="230" y="258" on="0"/>
        <pt x="275" y="263" on="0"/>
        <pt x="297" y="263" on="1"/>
        <pt x="307" y="263" on="1"/>
        <pt x="315" y="263" on="0"/>
        <pt x="332" y="263" on="0"/>
        <pt x="340" y="263" on="1"/>
        <pt x="350" y="263" on="1"/>
        <pt x="373" y="251" on="0"/>
        <pt x="406" y="214" on="0"/>
        <pt x="429" y="171" on="0"/>
        <pt x="443" y="122" on="0"/>
        <pt x="448" y="98" on="1"/>
        <pt x="443" y="75" on="0"/>
        <pt x="412" y="43" on="0"/>
        <pt x="370" y="21" on="0"/>
        <pt x="320" y="8" on="0"/>
        <pt x="269" y="1" on="0"/>
        <pt x="223" y="-1" on="0"/>
        <pt x="205" y="-1" on="1"/>
        <pt x="188" y="-1" on="0"/>
        <pt x="161" y="0" on="0"/>
        <pt x="135" y="2" on="0"/>
        <pt x="106" y="6" on="0"/>
      </contour>
      <contour>
        <pt x="116" y="141" on="1"/>
        <pt x="116" y="98" on="0"/>
        <pt x="150" y="57" on="0"/>
        <pt x="194" y="57" on="1"/>
        <pt x="203" y="57" on="0"/>
        <pt x="239" y="58" on="0"/>
        <pt x="280" y="62" on="0"/>
        <pt x="324" y="69" on="0"/>
        <pt x="359" y="82" on="0"/>
        <pt x="381" y="101" on="0"/>
        <pt x="381" y="116" on="1"/>
        <pt x="381" y="138" on="0"/>
        <pt x="365" y="171" on="0"/>
        <pt x="337" y="194" on="0"/>
        <pt x="301" y="206" on="0"/>
        <pt x="281" y="206" on="1"/>
        <pt x="260" y="206" on="0"/>
        <pt x="217" y="202" on="0"/>
        <pt x="173" y="195" on="0"/>
        <pt x="133" y="178" on="0"/>
        <pt x="116" y="166" on="1"/>
        <pt x="116" y="162" on="0"/>
        <pt x="116" y="144" on="0"/>
      </contour>
    </TTGlyph>
    <TTGlyph name="backslash" xMin="0" yMin="-1" xMax="409" yMax="565">
      <contour>
        <pt x="9" y="507" on="1"/>
        <pt x="8" y="508" on="0"/>
        <pt x="5" y="516" on="0"/>
        <pt x="2" y="526" on="0"/>
        <pt x="0" y="534" on="0"/>
        <pt x="0" y="536" on="1"/>
        <pt x="0" y="539" on="0"/>
        <pt x="4" y="549" on="0"/>
        <pt x="12" y="558" on="0"/>
        <pt x="20" y="565" on="0"/>
        <pt x="24" y="565" on="1"/>
        <pt x="29" y="565" on="1"/>
        <pt x="31" y="564" on="0"/>
        <pt x="39" y="560" on="1"/>
        <pt x="49" y="555" on="1"/>
        <pt x="53" y="549" on="0"/>
        <pt x="67" y="526" on="0"/>
        <pt x="87" y="498" on="0"/>
        <pt x="108" y="466" on="0"/>
        <pt x="117" y="451" on="1"/>
        <pt x="134" y="426" on="1"/>
        <pt x="142" y="414" on="0"/>
        <pt x="146" y="409" on="1"/>
        <pt x="146" y="408" on="0"/>
        <pt x="155" y="400" on="0"/>
        <pt x="156" y="399" on="1"/>
        <pt x="331" y="156" on="1"/>
        <pt x="337" y="139" on="0"/>
        <pt x="359" y="108" on="0"/>
        <pt x="381" y="77" on="0"/>
        <pt x="402" y="47" on="0"/>
        <pt x="409" y="29" on="1"/>
        <pt x="406" y="27" on="0"/>
        <pt x="393" y="19" on="0"/>
        <pt x="377" y="9" on="0"/>
        <pt x="363" y="1" on="0"/>
        <pt x="360" y="0" on="1"/>
        <pt x="360" y="-1" on="0"/>
        <pt x="358" y="-1" on="1"/>
        <pt x="355" y="-1" on="1"/>
        <pt x="345" y="-1" on="0"/>
        <pt x="320" y="29" on="0"/>
        <pt x="300" y="65" on="0"/>
        <pt x="285" y="101" on="0"/>
        <pt x="282" y="107" on="1"/>
      </contour>
    </TTGlyph>
    <TTGlyph name="bar" xMin="16" yMin="-2" xMax="110" yMax="520">
      <contour>
        <pt x="110" y="520" on="1"/>
        <pt x="110" y="457" on="0"/>
        <pt x="98" y="336" on="0"/>
        <pt x="82" y="214" on="0"/>
        <pt x="74" y="92" on="0"/>
        <pt x="78" y="29" on="1"/>
        <pt x="55" y="-2" on="0"/>
        <pt x="16" y="-2" on="1"/>
        <pt x="16" y="6" on="0"/>
        <pt x="17" y="45" on="0"/>
        <pt x="19" y="89" on="0"/>
        <pt x="20" y="128" on="0"/>
        <pt x="20" y="136" on="1"/>
        <pt x="21" y="169" on="0"/>
        <pt x="26" y="251" on="0"/>
        <pt x="33" y="335" on="0"/>
        <pt x="42" y="420" on="0"/>
        <pt x="49" y="457" on="1"/>
        <pt x="54" y="488" on="0"/>
        <pt x="80" y="520" on="0"/>
      </contour>
    </TTGlyph>
    <TTGlyph name="braceleft" xMin="9" yMin="-100" xMax="361" yMax="751">
      <contour>
        <pt x="77" y="59" on="1"/>
        <pt x="77" y="80" on="0"/>
        <pt x="102" y="110" on="0"/>
        <pt x="131" y="134" on="0"/>
        <pt x="156" y="161" on="0"/>
        <pt x="156" y="180" on="1"/>
        <pt x="156" y="197" on="0"/>
        <pt x="125" y="215" on="0"/>
        <pt x="85" y="223" on="0"/>
        <pt x="47" y="224" on="0"/>
        <pt x="39" y="224" on="1"/>
        <pt x="34" y="225" on="0"/>
        <pt x="29" y="233" on="0"/>
        <pt x="27" y="241" on="0"/>
        <pt x="28" y="250" on="0"/>
        <pt x="28" y="253" on="1"/>
        <pt x="28" y="271" on="0"/>
        <pt x="46" y="292" on="0"/>
        <pt x="75" y="306" on="0"/>
        <pt x="110" y="314" on="0"/>
        <pt x="127" y="322" on="1"/>
        <pt x="127" y="331" on="1"/>
        <pt x="99" y="353" on="0"/>
        <pt x="55" y="396" on="0"/>
        <pt x="25" y="445" on="0"/>
        <pt x="9" y="501" on="0"/>
        <pt x="9" y="536" on="1"/>
        <pt x="9" y="554" on="0"/>
        <pt x="37" y="601" on="0"/>
        <pt x="80" y="649" on="0"/>
        <pt x="133" y="694" on="0"/>
        <pt x="185" y="730" on="0"/>
        <pt x="230" y="751" on="0"/>
        <pt x="243" y="751" on="1"/>
        <pt x="258" y="751" on="0"/>
        <pt x="274" y="736" on="0"/>
        <pt x="282" y="722" on="1"/>
        <pt x="269" y="702" on="0"/>
        <pt x="228" y="673" on="0"/>
        <pt x="182" y="646" on="0"/>
        <pt x="137" y="618" on="0"/>
        <pt x="100" y="583" on="0"/>
        <pt x="77" y="541" on="0"/>
        <pt x="77" y="512" on="1"/>
        <pt x="77" y="494" on="0"/>
        <pt x="82" y="462" on="0"/>
        <pt x="98" y="448" on="1"/>
        <pt x="205" y="351" on="1"/>
        <pt x="205" y="350" on="0"/>
        <pt x="207" y="345" on="0"/>
        <pt x="207" y="337" on="0"/>
        <pt x="207" y="331" on="0"/>
        <pt x="207" y="330" on="1"/>
        <pt x="207" y="311" on="0"/>
        <pt x="196" y="281" on="0"/>
        <pt x="175" y="273" on="1"/>
        <pt x="184" y="265" on="0"/>
        <pt x="205" y="246" on="0"/>
        <pt x="223" y="223" on="0"/>
        <pt x="235" y="197" on="0"/>
        <pt x="235" y="185" on="1"/>
        <pt x="235" y="164" on="0"/>
        <pt x="213" y="126" on="0"/>
        <pt x="183" y="90" on="0"/>
        <pt x="149" y="60" on="0"/>
        <pt x="136" y="49" on="1"/>
        <pt x="136" y="48" on="0"/>
        <pt x="136" y="45" on="0"/>
        <pt x="136" y="44" on="1"/>
        <pt x="136" y="19" on="0"/>
        <pt x="169" y="-11" on="0"/>
        <pt x="219" y="-30" on="0"/>
        <pt x="278" y="-39" on="0"/>
        <pt x="328" y="-48" on="0"/>
        <pt x="361" y="-62" on="0"/>
        <pt x="361" y="-74" on="1"/>
        <pt x="361" y="-78" on="0"/>
        <pt x="360" y="-88" on="0"/>
        <pt x="357" y="-95" on="0"/>
        <pt x="348" y="-99" on="0"/>
        <pt x="341" y="-98" on="1"/>
        <pt x="337" y="-98" on="0"/>
        <pt x="321" y="-99" on="0"/>
        <pt x="302" y="-99" on="0"/>
        <pt x="286" y="-100" on="0"/>
        <pt x="282" y="-100" on="1"/>
        <pt x="246" y="-100" on="0"/>
        <pt x="173" y="-81" on="0"/>
        <pt x="114" y="-40" on="0"/>
        <pt x="77" y="19" on="0"/>
      </contour>
    </TTGlyph>
    <TTGlyph name="braceright" xMin="9" yMin="-157" xMax="363" yMax="839">
      <contour>
        <pt x="48" y="-111" on="1"/>
        <pt x="48" y="-97" on="0"/>
        <pt x="85" y="-90" on="0"/>
        <pt x="142" y="-88" on="0"/>
        <pt x="207" y="-86" on="0"/>
        <pt x="264" y="-68" on="0"/>
        <pt x="302" y="-29" on="0"/>
        <pt x="302" y="8" on="1"/>
        <pt x="302" y="37" on="0"/>
        <pt x="286" y="86" on="0"/>
        <pt x="262" y="131" on="0"/>
        <pt x="233" y="174" on="0"/>
        <pt x="209" y="218" on="0"/>
        <pt x="193" y="265" on="0"/>
        <pt x="193" y="292" on="1"/>
        <pt x="193" y="313" on="1"/>
        <pt x="193" y="323" on="0"/>
        <pt x="197" y="343" on="0"/>
        <pt x="205" y="361" on="0"/>
        <pt x="214" y="371" on="1"/>
        <pt x="207" y="383" on="0"/>
        <pt x="187" y="398" on="0"/>
        <pt x="163" y="409" on="0"/>
        <pt x="139" y="419" on="0"/>
        <pt x="119" y="439" on="0"/>
        <pt x="107" y="470" on="0"/>
        <pt x="107" y="496" on="1"/>
        <pt x="107" y="518" on="0"/>
        <pt x="122" y="551" on="0"/>
        <pt x="144" y="579" on="0"/>
        <pt x="169" y="604" on="0"/>
        <pt x="190" y="632" on="0"/>
        <pt x="205" y="666" on="0"/>
        <pt x="205" y="687" on="1"/>
        <pt x="205" y="707" on="0"/>
        <pt x="184" y="738" on="0"/>
        <pt x="149" y="759" on="0"/>
        <pt x="105" y="772" on="0"/>
        <pt x="62" y="779" on="0"/>
        <pt x="23" y="781" on="0"/>
        <pt x="9" y="781" on="1"/>
        <pt x="9" y="819" on="1"/>
        <pt x="9" y="819" on="0"/>
        <pt x="23" y="824" on="0"/>
        <pt x="42" y="830" on="0"/>
        <pt x="62" y="836" on="0"/>
        <pt x="69" y="837" on="1"/>
        <pt x="70" y="837" on="0"/>
        <pt x="80" y="839" on="0"/>
        <pt x="82" y="839" on="1"/>
        <pt x="116" y="839" on="0"/>
        <pt x="180" y="812" on="0"/>
        <pt x="232" y="767" on="0"/>
        <pt x="264" y="706" on="0"/>
        <pt x="264" y="672" on="1"/>
        <pt x="264" y="644" on="0"/>
        <pt x="236" y="600" on="0"/>
        <pt x="202" y="560" on="0"/>
        <pt x="174" y="518" on="0"/>
        <pt x="174" y="492" on="1"/>
        <pt x="174" y="482" on="0"/>
        <pt x="177" y="467" on="0"/>
        <pt x="185" y="457" on="1"/>
        <pt x="195" y="453" on="0"/>
        <pt x="227" y="446" on="0"/>
        <pt x="263" y="439" on="0"/>
        <pt x="302" y="429" on="0"/>
        <pt x="332" y="415" on="0"/>
        <pt x="352" y="394" on="0"/>
        <pt x="352" y="380" on="1"/>
        <pt x="352" y="377" on="0"/>
        <pt x="350" y="363" on="0"/>
        <pt x="350" y="360" on="1"/>
        <pt x="335" y="355" on="0"/>
        <pt x="304" y="345" on="0"/>
        <pt x="279" y="330" on="0"/>
        <pt x="263" y="306" on="0"/>
        <pt x="263" y="287" on="1"/>
        <pt x="263" y="264" on="0"/>
        <pt x="277" y="223" on="0"/>
        <pt x="300" y="182" on="0"/>
        <pt x="326" y="142" on="0"/>
        <pt x="348" y="100" on="0"/>
        <pt x="363" y="54" on="0"/>
        <pt x="363" y="29" on="1"/>
        <pt x="363" y="26" on="0"/>
        <pt x="363" y="8" on="0"/>
        <pt x="361" y="-9" on="0"/>
        <pt x="360" y="-26" on="0"/>
        <pt x="360" y="-30" on="1"/>
        <pt x="346" y="-67" on="0"/>
        <pt x="305" y="-116" on="0"/>
        <pt x="252" y="-145" on="0"/>
        <pt x="188" y="-157" on="0"/>
        <pt x="150" y="-157" on="1"/>
        <pt x="139" y="-157" on="0"/>
        <pt x="103" y="-156" on="0"/>
        <pt x="71" y="-147" on="0"/>
        <pt x="48" y="-128" on="0"/>
      </contour>
    </TTGlyph>
</ttFont>
